<?xml version="1.0" encoding="UTF-8" standalone="no"?>
<!-- Created with Inkscape (http://www.inkscape.org/) -->

<svg
   xmlns:dc="http://purl.org/dc/elements/1.1/"
   xmlns:cc="http://creativecommons.org/ns#"
   xmlns:rdf="http://www.w3.org/1999/02/22-rdf-syntax-ns#"
   xmlns:svg="http://www.w3.org/2000/svg"
   xmlns="http://www.w3.org/2000/svg"
   xmlns:sodipodi="http://sodipodi.sourceforge.net/DTD/sodipodi-0.dtd"
   xmlns:inkscape="http://www.inkscape.org/namespaces/inkscape"
   width="128"
   height="32"
   id="svg2"
   version="1.1"
   inkscape:version="0.48.4 r9939"
   sodipodi:docname="template.svg">
  <defs
     id="defs4" />
  <sodipodi:namedview
     id="base"
     pagecolor="#ffffff"
     bordercolor="#666666"
     borderopacity="1.0"
     inkscape:pageopacity="0.0"
     inkscape:pageshadow="2"
     inkscape:zoom="4.0546875"
     inkscape:cx="22.880499"
     inkscape:cy="35.701469"
     inkscape:document-units="px"
     inkscape:current-layer="layer1"
     showgrid="false"
     inkscape:window-width="1366"
     inkscape:window-height="706"
     inkscape:window-x="-8"
     inkscape:window-y="-8"
     inkscape:window-maximized="1" />
  <metadata
     id="metadata7">
    <rdf:RDF>
      <cc:Work
         rdf:about="">
        <dc:format>image/svg+xml</dc:format>
        <dc:type
           rdf:resource="http://purl.org/dc/dcmitype/StillImage" />
        <dc:title></dc:title>
      </cc:Work>
    </rdf:RDF>
  </metadata>
  <g
     inkscape:label="Layer 1"
     inkscape:groupmode="layer"
     id="layer1"
     transform="translate(0,-1020.3622)">
    <g
       transform="matrix(3.8619071,0,0,3.8619071,-139.78811,976.26327)"
       style="font-size:7.76818275000000020px;font-style:normal;font-variant:normal;font-weight:normal;font-stretch:normal;text-align:start;line-height:141.99999571000001000%;letter-spacing:0px;word-spacing:0px;writing-mode:lr-tb;text-anchor:start;fill:#ffffff;fill-opacity:1;stroke:none;font-family:KacstBook;-inkscape-font-specification:KacstBook"
       id="flowRoot2985">
      <path
         d="m 56.157873,16.024608 0.235169,0 c 0.275629,1e-6 0.528499,-0.225054 0.758612,-0.675164 0.230111,-0.450108 0.462751,-0.675162 0.697922,-0.675164 0.139077,2e-6 0.26172,0.08724 0.367927,0.261721 0.106204,0.21747 0.159306,0.543672 0.159309,0.978609 -3e-6,0.09356 -0.04805,0.188389 -0.144137,0.284479 -0.07586,0.06827 -0.15931,0.112528 -0.250342,0.132757 -0.05563,0 -0.11885,-0.01391 -0.189652,-0.04172 l -0.269308,-0.140343 c -0.209883,-0.123906 -0.338847,-0.185859 -0.386891,-0.18586 -0.0531,10e-7 -0.158677,0.09925 -0.316721,0.297755 -0.158044,0.198504 -0.314192,0.297756 -0.468442,0.297756 l -0.193446,0 z m 1.942045,-0.269307 c -2e-6,-0.06827 -0.0076,-0.127698 -0.02276,-0.178274 -0.01517,-0.05057 -0.04678,-0.122641 -0.09483,-0.216204 -0.06828,-0.154249 -0.145402,-0.231375 -0.231376,-0.231376 -0.09103,10e-7 -0.189654,0.06069 -0.295859,0.182066 -0.03793,0.0531 -0.06069,0.09483 -0.06827,0.125171 -10e-7,0.03793 0.0923,0.106207 0.276894,0.204825 0.08597,0.04299 0.164996,0.07713 0.237066,0.102413 0.07207,0.02529 0.123272,0.03793 0.153619,0.03793 0.02276,0 0.03793,-0.0089 0.04552,-0.02655 z"
         style="fill:#ffffff"
         id="path2987" />
      <path
         d="m 51.993095,16.024608 c 0.123907,1e-6 0.239595,-0.0032 0.347065,-0.0095 0.107469,-0.0063 0.205457,-0.0158 0.293962,-0.02845 0.0885,-0.01264 0.177641,-0.03034 0.267411,-0.0531 0.08977,-0.02276 0.182697,-0.04425 0.278789,-0.06448 l 0.87999,-0.398271 -0.671372,-0.201032 c -0.222527,-0.04299 -0.393214,-0.06448 -0.512062,-0.06448 -0.166896,10e-7 -0.287009,0.01012 -0.360341,0.03034 l -0.208618,0.07586 0.01897,-0.132757 c 0.07586,-0.214938 0.16563,-0.359074 0.269307,-0.432408 0.101148,-0.07586 0.233905,-0.11379 0.398271,-0.113792 0.113791,2e-6 0.412178,0.09104 0.895162,0.2731 0.237696,0.09103 0.471601,0.15931 0.701716,0.204825 0.06321,0.01264 0.122007,0.02339 0.176377,0.03224 0.05436,0.0089 0.122007,0.01707 0.202929,0.02466 0.06574,0.0076 0.115053,0.01264 0.147929,0.01517 0.03287,0.0025 0.06321,0.0038 0.09103,0.0038 l 0.06069,0 0.117585,0 c 0.04804,10e-7 0.101145,-0.0019 0.159308,-0.0057 0.05816,-0.0038 0.12011,-0.01201 0.18586,-0.02465 l -0.235169,0.493098 -0.04172,0.113791 -0.121378,-0.02276 -0.390685,-0.04931 c 0.03034,0.11885 0.108732,0.207355 0.23517,0.265514 l 0.212411,0.04931 0.140343,0.01897 0.74344,0 0,0.534822 -0.618269,0 c -0.207357,0 -0.3477,-0.0089 -0.421029,-0.02655 -0.09609,-0.02023 -0.188392,-0.0569 -0.276894,-0.109999 -0.08851,-0.0531 -0.163104,-0.163101 -0.22379,-0.329996 l -0.03034,-0.151722 0,-0.159308 0,-0.08345 c -0.128967,0.01265 -0.244655,0.03224 -0.347065,0.05879 -0.102415,0.02655 -0.202931,0.06259 -0.301548,0.108102 l -0.474133,0.216204 c -0.288273,0.121378 -0.542408,0.219998 -0.762404,0.295859 -0.354019,0.121378 -0.622062,0.182067 -0.804129,0.182067 l -0.07586,0 0,-0.534822 z"
         style="fill:#ffffff"
         id="path2989" />
      <path
         d="m 51.769304,16.55943 c -0.04552,0.237698 -0.128966,0.489303 -0.250342,0.754818 -0.0177,0.04046 -0.03856,0.08534 -0.06258,0.134654 -0.02403,0.04931 -0.05247,0.105572 -0.08534,0.168791 -0.0177,0.0354 -0.04046,0.0746 -0.06827,0.117584 -0.02782,0.04299 -0.06195,0.08977 -0.102412,0.140344 -0.25793,0.376775 -0.587926,0.565163 -0.989989,0.565165 -0.134022,-2e-6 -0.356547,-0.09483 -0.667578,-0.284479 -0.255399,-0.15931 -0.383098,-0.285745 -0.383099,-0.379306 10e-7,-0.01012 0.0019,-0.01897 0.0057,-0.02655 0.0038,-0.0076 0.01581,-0.0177 0.03603,-0.03035 0.03035,-1e-6 0.07965,0.02276 0.147929,0.06827 0.260457,0.182066 0.414708,0.276892 0.462753,0.28448 0.149193,-2e-6 0.327467,-0.04046 0.534822,-0.121378 0.199766,-0.08345 0.364132,-0.182068 0.493097,-0.295859 l 0.212411,-0.216204 0.182067,-0.208618 c 0.07586,-0.09103 0.132755,-0.178274 0.170688,-0.261721 l 0.06069,-0.201032 c -2e-6,-0.171952 -0.04678,-0.308502 -0.140344,-0.409651 l -0.276893,-0.318616 0.208618,-0.50827 0.394478,0.432408 c 0.05563,0.04046 0.128962,0.06069 0.219998,0.06069 l 0.155515,0 0,0.534822 z"
         style="fill:#ffffff"
         id="path2991" />
      <path
         d="m 49.136922,16.142193 c -0.0354,-0.03034 -0.08029,-0.05689 -0.134654,-0.07965 -0.05437,-0.02276 -0.118219,-0.03919 -0.191549,-0.04931 l -0.219997,-0.03034 -0.307238,-0.01138 c -0.03035,0 -0.05627,6.32e-4 -0.07776,0.0019 -0.0215,0.0013 -0.04299,0.0032 -0.06448,0.0057 -0.0215,0.0025 -0.04615,0.007 -0.07396,0.01328 -0.02782,0.0063 -0.06195,0.01454 -0.102413,0.02466 -0.04552,0.0076 -0.0904,0.01897 -0.134653,0.03414 -0.04425,0.01517 -0.0942,0.03667 -0.149826,0.06448 -0.214941,0.09103 -0.322411,0.19471 -0.32241,0.31103 l 0,0.151723 0.02655,0.170687 c 0.0025,0.0051 0.0051,0.01201 0.0076,0.02086 0.0025,0.0089 0.0057,0.02213 0.0095,0.03983 0.0038,0.0177 0.0082,0.04046 0.01328,0.06827 0.0051,0.02782 0.01138,0.06448 0.01897,0.109999 l 0.379306,1.403432 c 0.0531,0.219995 0.07965,0.39574 0.07965,0.527235 l 0,0.0531 -0.0076,0.08345 -0.04552,0.208618 c -0.02276,0.151719 -0.05058,0.232638 -0.08345,0.242756 l -0.0569,-0.257928 c -0.0076,-0.08092 -0.0196,-0.160576 -0.03603,-0.238963 -0.01644,-0.07839 -0.03477,-0.158046 -0.055,-0.238963 l -0.379306,-1.524809 -0.0531,-0.288272 -0.01517,-0.246549 c 0,-0.197239 0.04172,-0.386892 0.125171,-0.568959 l 0.03034,-0.06827 0.06827,-0.113792 c 0.03793,-0.0531 0.08345,-0.102412 0.13655,-0.147929 0.07333,-0.06574 0.185859,-0.140342 0.337582,-0.22379 l 0.19724,-0.07207 0.09103,-0.01897 0.08724,-0.0076 0.276893,0 c 0.06574,1e-6 0.15425,0.0076 0.265515,0.02276 l -0.06069,-0.06448 -0.08345,-0.07207 c -0.06069,-0.04804 -0.132758,-0.09735 -0.216204,-0.147929 -0.126437,-0.07333 -0.235171,-0.109997 -0.326203,-0.109999 -0.136551,2e-6 -0.242757,0.0392 -0.318617,0.117585 -0.0354,0.0354 -0.06828,0.05563 -0.09862,0.06069 l 0.06827,-0.326203 c 0.116319,-0.222524 0.271834,-0.333787 0.466546,-0.333789 0.194709,2e-6 0.439993,0.132759 0.735853,0.398271 0.09862,0.09103 0.183329,0.17954 0.254135,0.265514 l 0.09483,0.121378 0.08724,0.125171 z"
         style="fill:#ffffff"
         id="path2993" />
    </g>
  </g>
</svg>
