<?xml version="1.0" encoding="UTF-8" standalone="no"?>
<!-- Created with Inkscape (http://www.inkscape.org/) -->

<svg
   xmlns:dc="http://purl.org/dc/elements/1.1/"
   xmlns:cc="http://creativecommons.org/ns#"
   xmlns:rdf="http://www.w3.org/1999/02/22-rdf-syntax-ns#"
   xmlns:svg="http://www.w3.org/2000/svg"
   xmlns="http://www.w3.org/2000/svg"
   xmlns:sodipodi="http://sodipodi.sourceforge.net/DTD/sodipodi-0.dtd"
   xmlns:inkscape="http://www.inkscape.org/namespaces/inkscape"
   width="128"
   height="32"
   id="svg2"
   version="1.1"
   inkscape:version="0.48.4 r9939"
   sodipodi:docname="template.svg">
  <defs
     id="defs4" />
  <sodipodi:namedview
     id="base"
     pagecolor="#ffffff"
     bordercolor="#666666"
     borderopacity="1.0"
     inkscape:pageopacity="0.0"
     inkscape:pageshadow="2"
     inkscape:zoom="4.0546875"
     inkscape:cx="7.7233806"
     inkscape:cy="35.701469"
     inkscape:document-units="px"
     inkscape:current-layer="layer1"
     showgrid="false"
     inkscape:window-width="1366"
     inkscape:window-height="706"
     inkscape:window-x="-8"
     inkscape:window-y="-8"
     inkscape:window-maximized="1" />
  <metadata
     id="metadata7">
    <rdf:RDF>
      <cc:Work
         rdf:about="">
        <dc:format>image/svg+xml</dc:format>
        <dc:type
           rdf:resource="http://purl.org/dc/dcmitype/StillImage" />
        <dc:title></dc:title>
      </cc:Work>
    </rdf:RDF>
  </metadata>
  <g
     inkscape:label="Layer 1"
     inkscape:groupmode="layer"
     id="layer1"
     transform="translate(0,-1020.3622)">
    <g
       transform="matrix(3.8619071,0,0,3.8619071,-134.4341,977.56747)"
       style="font-size:7.76818275000000020px;font-style:normal;font-variant:normal;font-weight:normal;font-stretch:normal;text-align:start;line-height:141.99999571000001000%;letter-spacing:0px;word-spacing:0px;writing-mode:lr-tb;text-anchor:start;fill:#ffffff;fill-opacity:1;stroke:none;font-family:KacstBook;-inkscape-font-specification:KacstBook"
       id="flowRoot2985">
      <path
         d="m 55.660982,13.631189 -0.462753,-0.318617 0.31103,-0.451374 0.432409,0.333789 z m 0.45896,0.751025 -0.402064,-0.299651 -0.23517,0.394478 -0.477925,-0.360341 0.276893,-0.428615 0.417236,0.303444 0.246549,-0.379306 0.474132,0.326203 z m -2.355489,1.642394 c 0.03287,-0.0076 0.06827,-0.01391 0.106205,-0.01897 0.03793,-0.0051 0.09103,-0.02402 0.159309,-0.0569 0.121377,-0.0531 0.206088,-0.122641 0.254135,-0.208618 l 0.07586,-0.132757 0.06827,-0.102413 c 0.06322,-0.09103 0.111262,-0.137813 0.144136,-0.140343 l 0.03034,0.07207 c -2e-6,0.0177 -6.34e-4,0.03351 -0.0019,0.04741 -0.0013,0.01391 -0.0032,0.02718 -0.0057,0.03983 l -0.06448,0.208618 -0.0531,0.117585 c 0.07586,0.07333 0.156778,0.122642 0.242755,0.147929 l 0.132757,0.01897 0.151723,0.0076 c 0.159306,1e-6 0.298385,-0.0196 0.417236,-0.05879 0.118847,-0.03919 0.217467,-0.104308 0.295859,-0.195343 l 0.383098,-0.568958 c 0.02781,0.0051 0.04172,0.03287 0.04172,0.08345 l -0.0076,0.07207 -0.08345,0.276893 -0.02655,0.0569 c -2e-6,0.03035 0.05689,0.07966 0.170688,0.147929 0.06321,0.02782 0.130857,0.04994 0.202929,0.06638 0.07206,0.01644 0.1435,0.02466 0.214307,0.02465 l 0.0531,0 0.08724,-0.01517 0.01897,-0.09103 -0.04931,-0.250342 c -3e-6,-0.01264 -0.0063,-0.02908 -0.01897,-0.04931 -0.0076,-0.03287 -0.0215,-0.05563 -0.04172,-0.06827 l 0.276893,-0.493098 c 0.07839,0.06322 0.117581,0.218734 0.117585,0.466546 -4e-6,0.09103 -0.0044,0.176378 -0.01328,0.256032 -0.0089,0.07966 -0.02403,0.156148 -0.04552,0.22948 -0.0215,0.07333 -0.05058,0.144769 -0.08724,0.214307 -0.03667,0.06954 -0.08282,0.140976 -0.138446,0.214308 -0.07587,0.09862 -0.168162,0.14793 -0.276894,0.147929 -0.09862,10e-7 -0.209885,-0.03414 -0.333789,-0.102412 -0.212413,-0.113792 -0.341377,-0.170687 -0.386892,-0.170688 l -0.0076,0 c -0.116322,0.116321 -0.25793,0.211147 -0.424822,0.28448 l -0.227584,0.06827 c -0.06069,0.01517 -0.132758,0.02276 -0.216204,0.02276 -0.03035,0 -0.0569,-6.32e-4 -0.07965,-0.0019 -0.02276,-0.0013 -0.04362,-0.0032 -0.06259,-0.0057 -0.01897,-0.0025 -0.03856,-0.007 -0.05879,-0.01328 -0.02023,-0.0063 -0.04425,-0.01454 -0.07207,-0.02465 l -0.09862,-0.04931 c -0.121378,-0.06827 -0.228848,-0.15678 -0.32241,-0.265514 -0.02529,0.04046 -0.055,0.07902 -0.08914,0.115688 -0.03414,0.03667 -0.0727,0.0727 -0.115689,0.108102 -0.106206,0.06827 -0.240227,0.102413 -0.402064,0.102413 l -0.242756,0 0,-0.534822 z"
         style="fill:#ffffff"
         id="path3075" />
      <path
         d="m 53.100667,16.55943 c -0.05816,0.227583 -0.145403,0.446316 -0.261721,0.656199 -0.03035,0.05563 -0.06069,0.108733 -0.09103,0.159308 -0.03035,0.05057 -0.06322,0.09988 -0.09862,0.147929 -0.0354,0.05057 -0.07333,0.101147 -0.113791,0.151723 -0.04046,0.05057 -0.08345,0.102411 -0.128964,0.155515 -0.290803,0.351488 -0.595512,0.527233 -0.914127,0.527235 -0.154252,-2e-6 -0.403329,-0.08851 -0.747233,-0.265514 -0.343903,-0.177011 -0.515855,-0.308503 -0.515855,-0.394478 0,-0.03035 0.01138,-0.04931 0.03414,-0.0569 0.07333,0.04804 0.147929,0.0923 0.22379,0.132757 0.07586,0.04046 0.154251,0.07839 0.23517,0.113792 0.04299,0.0177 0.08534,0.0335 0.127067,0.04741 0.04172,0.01391 0.08408,0.02592 0.127068,0.03603 l 0.121378,0.02276 0.132757,0.0076 c 0.250341,-2e-6 0.576543,-0.189655 0.978609,-0.568959 0.404591,-0.381835 0.606887,-0.675165 0.606889,-0.87999 l -0.08345,0 c -0.09609,0 -0.182069,-0.0013 -0.257928,-0.0038 -0.07586,-0.0025 -0.144138,-0.01075 -0.204825,-0.02465 -0.06069,-0.01391 -0.11569,-0.03351 -0.164998,-0.05879 -0.04931,-0.02529 -0.0942,-0.06069 -0.134654,-0.106206 -0.03793,-0.04552 -0.06069,-0.107469 -0.06827,-0.185859 -1e-6,-0.06069 6.31e-4,-0.101148 0.0019,-0.121378 0.0013,-0.02023 0.0032,-0.03287 0.0057,-0.03793 -10e-7,-0.187123 0.06827,-0.412178 0.204825,-0.675164 0.136549,-0.262984 0.280685,-0.394477 0.432409,-0.394478 0.13149,10e-7 0.26804,0.13908 0.40965,0.417236 0.09862,0.227585 0.163099,0.448846 0.193446,0.663785 l 0.360341,0 0,0.534822 z m -0.295858,-0.553787 c -2e-6,-0.07586 -0.04173,-0.180802 -0.125171,-0.314824 -0.08851,-0.136549 -0.166897,-0.204824 -0.23517,-0.204825 -0.04552,1e-6 -0.106207,0.04299 -0.182066,0.128964 -0.04552,0.06322 -0.07713,0.126436 -0.09483,0.189653 -10e-7,0.0076 6.31e-4,0.01581 0.0019,0.02466 0.0013,0.0089 0.0044,0.01833 0.0095,0.02845 0.0025,0.0051 0.02402,0.02149 0.06448,0.04931 l 0.159309,0.06827 0.13655,0.03034 0.193446,0.01897 c 0.0354,1e-6 0.05942,-0.0063 0.07207,-0.01897 z"
         style="fill:#ffffff"
         id="path3077" />
      <path
         d="m 49.937257,16.202882 -0.02276,0.09483 c -0.03793,0.204825 -0.08851,0.31103 -0.151723,0.318616 -0.0354,0 -0.0531,-0.120113 -0.0531,-0.36034 l 0,-0.216204 c -10e-7,-0.11632 -0.0051,-0.183331 -0.01517,-0.201033 -0.02782,-0.305972 -0.0569,-0.595508 -0.08724,-0.86861 -0.03035,-0.273098 -0.06322,-0.536083 -0.09862,-0.788956 l -0.12517,-0.921713 0.05689,-0.166894 0.303445,-0.515856 0,0.432408 0.178274,1.83584 c 0.02023,0.245286 0.03603,0.445686 0.04741,0.6012 0.01138,0.155516 0.01707,0.272469 0.01707,0.350858 z"
         style="fill:#ffffff"
         id="path3079" />
      <path
         d="m 48.385896,13.092575 0.170688,1.282053 0.06069,1.232744 c -3e-6,0.500684 -0.203564,0.893897 -0.610682,1.179641 -0.07839,0.0531 -0.164369,0.10178 -0.257928,0.146033 -0.09356,0.04425 -0.189655,0.08155 -0.288273,0.111895 -0.194712,0.06069 -0.405859,0.09103 -0.633441,0.09103 -0.174481,0 -0.330629,-0.02339 -0.468442,-0.07017 -0.137815,-0.04678 -0.2554,-0.115057 -0.352755,-0.204825 -0.09736,-0.08977 -0.17132,-0.197872 -0.221893,-0.324307 -0.05058,-0.126435 -0.07586,-0.269307 -0.07586,-0.428615 0,-0.250342 0.07333,-0.527234 0.219998,-0.83068 0.146664,-0.318615 0.26172,-0.48551 0.345168,-0.500684 l -0.02276,0.18586 c -0.174482,0.376778 -0.261722,0.671372 -0.261721,0.883783 -10e-7,0.209883 0.08218,0.385627 0.246548,0.527235 0.161837,0.139079 0.375512,0.208618 0.641027,0.208618 l 0.01897,0 0.182066,0 c 0.02781,0 0.05626,-6.32e-4 0.08534,-0.0019 0.02908,-0.0013 0.0727,-0.0057 0.130861,-0.01328 l 0.402064,-0.117585 c 0.05563,-0.01517 0.107467,-0.0354 0.155515,-0.06069 0.09356,-0.03793 0.184593,-0.08724 0.2731,-0.147929 0.103674,-0.06322 0.173214,-0.130228 0.208618,-0.201032 0.02276,-0.06828 0.03413,-0.195974 0.03414,-0.383099 -3e-6,-0.207353 -0.01391,-0.451373 -0.04172,-0.73206 -0.02782,-0.280685 -0.06701,-0.605623 -0.117584,-0.974816 -0.05816,-0.402062 -0.110634,-0.713092 -0.157412,-0.933093 -0.04678,-0.219993 -0.08914,-0.375508 -0.127068,-0.466546 l 0.337582,-0.45896 c 0.0531,0.169428 0.09103,0.269312 0.113792,0.299652 0.02276,0.04552 0.05563,0.09357 0.09862,0.144136 l 0.163101,0.147929 z"
         style="fill:#ffffff"
         id="path3081" />
    </g>
  </g>
</svg>
