<?xml version="1.0" encoding="UTF-8" standalone="no"?>
<!-- Created with Inkscape (http://www.inkscape.org/) -->

<svg
   xmlns:dc="http://purl.org/dc/elements/1.1/"
   xmlns:cc="http://creativecommons.org/ns#"
   xmlns:rdf="http://www.w3.org/1999/02/22-rdf-syntax-ns#"
   xmlns:svg="http://www.w3.org/2000/svg"
   xmlns="http://www.w3.org/2000/svg"
   xmlns:sodipodi="http://sodipodi.sourceforge.net/DTD/sodipodi-0.dtd"
   xmlns:inkscape="http://www.inkscape.org/namespaces/inkscape"
   width="128"
   height="32"
   id="svg2"
   version="1.1"
   inkscape:version="0.48.4 r9939"
   sodipodi:docname="template.svg">
  <defs
     id="defs4" />
  <sodipodi:namedview
     id="base"
     pagecolor="#ffffff"
     bordercolor="#666666"
     borderopacity="1.0"
     inkscape:pageopacity="0.0"
     inkscape:pageshadow="2"
     inkscape:zoom="4.0546875"
     inkscape:cx="7.7233806"
     inkscape:cy="35.701469"
     inkscape:document-units="px"
     inkscape:current-layer="layer1"
     showgrid="false"
     inkscape:window-width="1366"
     inkscape:window-height="706"
     inkscape:window-x="-8"
     inkscape:window-y="-8"
     inkscape:window-maximized="1" />
  <metadata
     id="metadata7">
    <rdf:RDF>
      <cc:Work
         rdf:about="">
        <dc:format>image/svg+xml</dc:format>
        <dc:type
           rdf:resource="http://purl.org/dc/dcmitype/StillImage" />
        <dc:title></dc:title>
      </cc:Work>
    </rdf:RDF>
  </metadata>
  <g
     inkscape:label="Layer 1"
     inkscape:groupmode="layer"
     id="layer1"
     transform="translate(0,-1020.3622)">
    <g
       transform="matrix(3.8619071,0,0,3.8619071,-118.47463,977.82382)"
       style="font-size:7.76818275000000020px;font-style:normal;font-variant:normal;font-weight:normal;font-stretch:normal;text-align:start;line-height:141.99999571000001000%;letter-spacing:0px;word-spacing:0px;writing-mode:lr-tb;text-anchor:start;fill:#ffffff;fill-opacity:1;stroke:none;font-family:KacstBook;-inkscape-font-specification:KacstBook"
       id="flowRoot2985">
      <path
         d="m 55.99477,13.217745 -0.493098,-0.348961 0.341376,-0.477925 0.455167,0.36034 z m 1.088608,2.511005 c -3e-6,0.268043 -0.140346,0.481719 -0.42103,0.641027 -0.128965,0.0708 -0.280055,0.128331 -0.45327,0.172584 -0.173218,0.04425 -0.350859,0.06638 -0.532925,0.06638 -0.146665,0 -0.254768,-0.01138 -0.324306,-0.03414 -0.06954,-0.02276 -0.111896,-0.06701 -0.127068,-0.132757 l 0,-0.121378 c 0,-0.05057 0.0025,-0.08851 0.0076,-0.113792 0,-0.0354 6.32e-4,-0.06322 0.0019,-0.08345 0.0013,-0.02023 0.0032,-0.0354 0.0057,-0.04552 l 0.03793,-0.155515 0.09103,0.04552 0.140343,0.04552 0.144137,0.02276 0.147929,0.01138 c 0.146664,0 0.34896,-0.03667 0.606889,-0.109999 0.293328,-0.0885 0.439993,-0.184595 0.439995,-0.288272 -2e-6,-0.118849 -0.09103,-0.2908 -0.2731,-0.515856 -0.17954,-0.225053 -0.350227,-0.366661 -0.512063,-0.424823 l 0,-0.466546 0.0076,-0.106206 c 0.0076,-0.04551 0.02655,-0.07207 0.0569,-0.07965 0.123905,3e-6 0.29965,0.155518 0.527235,0.466546 0.126433,0.171954 0.23011,0.362871 0.311031,0.572752 0.07839,0.202298 0.117582,0.413444 0.117585,0.633441 z"
         style="fill:#ffffff"
         id="path3084" />
      <path
         d="m 54.90237,15.690819 c -3e-6,0.237699 -0.03414,0.472869 -0.102413,0.705509 -0.06828,0.232641 -0.174483,0.46781 -0.318617,0.705509 -0.336319,0.548728 -0.702981,0.823092 -1.099987,0.823093 -0.17701,-1e-6 -0.422294,-0.08471 -0.735853,-0.254135 -0.313559,-0.169424 -0.470339,-0.28448 -0.470339,-0.345168 0,-0.0177 0.01644,-0.0354 0.04931,-0.0531 l 0.451374,0.182067 0.204825,0.06827 c 0.0531,0.01517 0.10494,0.02276 0.155515,0.02276 0.250341,-1e-6 0.499418,-0.08598 0.747233,-0.257928 0.311028,-0.212412 0.604358,-0.547465 0.879989,-1.005161 l 0.01897,-0.109998 c -2e-6,-0.02023 -0.0019,-0.04299 -0.0057,-0.06827 -0.0038,-0.02529 -0.01201,-0.05184 -0.02465,-0.07965 l -0.04931,-0.125171 c -0.05563,0.106207 -0.127702,0.195976 -0.216204,0.269308 -0.08092,0.05816 -0.156782,0.08724 -0.227584,0.08724 -0.108736,0 -0.211148,-0.05563 -0.307237,-0.166895 -0.08092,-0.111262 -0.12138,-0.238962 -0.121378,-0.383099 -2e-6,-0.219996 0.07586,-0.458958 0.227583,-0.716887 0.154249,-0.260455 0.280685,-0.390684 0.379306,-0.390685 0.09103,1e-6 0.204823,0.09862 0.341375,0.295858 0.149191,0.247815 0.223788,0.513328 0.223791,0.796542 z m -0.326203,-0.06827 c -0.01517,-0.128963 -0.05563,-0.237697 -0.121378,-0.326203 -0.04805,-0.07586 -0.118851,-0.123905 -0.212411,-0.144136 -0.04552,10e-7 -0.09609,0.03414 -0.151723,0.102413 -0.04046,0.07081 -0.07081,0.149194 -0.09103,0.235169 -2e-6,0.06069 0.04172,0.117586 0.125171,0.170688 0.08345,0.04552 0.161835,0.06828 0.235169,0.06827 0.08344,1e-6 0.155514,-0.0354 0.216205,-0.106206 z"
         style="fill:#ffffff"
         id="path3086" />
      <path
         d="m 49.770363,16.202882 -0.02276,0.09483 c -0.03793,0.204825 -0.08851,0.31103 -0.151722,0.318616 -0.0354,0 -0.0531,-0.120113 -0.0531,-0.36034 l 0,-0.216204 c -1e-6,-0.11632 -0.0051,-0.183331 -0.01517,-0.201033 -0.02782,-0.305972 -0.0569,-0.595508 -0.08724,-0.86861 -0.03035,-0.273098 -0.06322,-0.536083 -0.09862,-0.788956 l -0.125171,-0.921713 0.0569,-0.166894 0.303445,-0.515856 0,0.432408 0.178273,1.83584 c 0.02023,0.245286 0.03603,0.445686 0.04741,0.6012 0.01138,0.155516 0.01707,0.272469 0.01707,0.350858 z"
         style="fill:#ffffff"
         id="path3088" />
      <path
         d="m 47.456597,16.024608 c 0.161837,1e-6 0.295226,-0.03793 0.400168,-0.113791 0.10494,-0.07586 0.157411,-0.19471 0.157412,-0.356548 -10e-7,-0.166893 -0.0569,-0.610681 -0.170688,-1.331363 -0.116321,-0.725736 -0.209883,-1.179638 -0.280686,-1.361708 l 0.333789,-0.462753 0.128964,0.326203 c 0.0531,0.108738 0.144135,0.189656 0.2731,0.242756 l -0.280686,0.512062 0.02655,0.314824 0.136551,0.788956 0.0531,0.45896 c 0.01517,0.151724 0.02276,0.27563 0.02276,0.37172 -2e-6,0.108735 -0.02655,0.261722 -0.07965,0.45896 -0.04805,0.184596 -0.107471,0.327468 -0.178273,0.428616 -0.03287,0.04552 -0.08724,0.08787 -0.163102,0.127067 -0.07586,0.03919 -0.174481,0.06891 -0.295858,0.08914 l -0.238963,0.04172 -0.329996,0 0,-0.534822 z"
         style="fill:#ffffff"
         id="path3090" />
      <path
         d="m 46.436265,13.631189 -0.402064,-0.295859 -0.23517,0.394478 -0.477925,-0.36034 0.276893,-0.432409 0.417236,0.307238 0.250342,-0.383099 0.470339,0.326203 z m -1.543775,2.393419 0.163102,-0.01517 0.147929,-0.02655 c 0.15425,-0.02276 0.240226,-0.0569 0.257928,-0.102413 -0.01012,-0.01264 -0.0196,-0.02718 -0.02845,-0.04362 -0.0089,-0.01644 -0.01581,-0.03477 -0.02086,-0.055 l -0.01517,-0.117585 c -10e-7,-0.273099 0.149193,-0.562636 0.447581,-0.86861 0.05816,-0.06069 0.117583,-0.116951 0.178273,-0.168792 0.06069,-0.05184 0.11948,-0.09735 0.176378,-0.13655 0.05689,-0.03919 0.110629,-0.06954 0.161205,-0.09103 0.05057,-0.02149 0.09735,-0.03224 0.140343,-0.03224 0.07586,2e-6 0.147927,0.07207 0.216204,0.216204 l 0.06069,0.231377 c 0.01517,0.07586 0.02276,0.152988 0.02276,0.231376 -2e-6,0.169425 -0.04931,0.356549 -0.147929,0.561373 -0.01517,0.03287 -0.03793,0.0746 -0.06828,0.125171 -0.03035,0.05058 -0.06954,0.108735 -0.117585,0.174481 -2e-6,0.02782 0.05563,0.05563 0.166895,0.08345 0.108732,0.02276 0.221259,0.03414 0.337582,0.03414 l 0.09862,0 0,0.534822 -0.151722,0 -0.367926,-0.04172 c -0.04299,-0.01011 -0.07334,-0.0177 -0.09103,-0.02276 -0.0177,-0.0051 -0.04299,-0.01517 -0.07586,-0.03035 l -0.553786,-0.250342 -0.576545,0.242756 c -0.189654,0.06827 -0.359077,0.102413 -0.50827,0.102413 l -0.102413,0 0,-0.534822 z m 1.634808,-0.652406 c -2e-6,-0.09862 -0.03414,-0.188387 -0.102412,-0.269307 -0.06575,-0.08344 -0.145403,-0.125169 -0.238963,-0.125171 l -0.08724,0.0038 c -0.02023,2e-6 -0.04678,0.0089 -0.07966,0.02655 l -0.08345,0.03414 -0.08724,0.0531 c -0.116322,0.07839 -0.174482,0.164367 -0.174481,0.257928 -10e-7,0.05058 0.04931,0.11885 0.147929,0.204825 0.103676,0.08851 0.179537,0.132758 0.227584,0.132757 0.01517,1e-6 0.05437,-0.01391 0.117585,-0.04172 l 0.219997,-0.140344 c 0.08345,-0.06827 0.130227,-0.11379 0.140343,-0.13655 z"
         style="fill:#ffffff"
         id="path3092" />
      <path
         d="m 42.260107,16.024608 0.219998,-0.0076 c 0.04552,10e-7 0.07965,-0.0051 0.102412,-0.01517 0.0531,-0.0076 0.146665,-0.03034 0.280687,-0.06828 0.230111,-0.0531 0.389419,-0.131492 0.477925,-0.23517 -0.0531,-0.08345 -0.140344,-0.159307 -0.261721,-0.227583 -0.08092,-0.04299 -0.164367,-0.06448 -0.250342,-0.06448 -0.05563,10e-7 -0.09736,0.01012 -0.125171,0.03034 l 0.06448,-0.216204 c 0.04552,-0.177008 0.102412,-0.29965 0.170688,-0.367927 0.0885,-0.07333 0.260455,-0.109996 0.515856,-0.109998 0.214938,2e-6 0.39574,0.05437 0.542407,0.163101 0.174479,0.126437 0.261719,0.29586 0.261721,0.50827 -2e-6,0.05816 -0.04173,0.136551 -0.125171,0.23517 l -0.151722,0.140343 c 0.0076,0.0354 0.08597,0.08598 0.235169,0.151722 l 0.201032,0.06069 c 0.06322,0.01517 0.118847,0.02276 0.166895,0.02276 l 0.18586,0 0,0.534822 -0.216204,0 c -0.07081,0 -0.144139,-0.01328 -0.219998,-0.03983 -0.07586,-0.02655 -0.158046,-0.06511 -0.246549,-0.115688 l -0.44758,-0.379306 c -0.06322,1e-6 -0.152989,0.0354 -0.269308,0.106206 l -0.527235,0.295858 -0.265514,0.08345 -0.140343,0.03034 -0.178274,0.01897 -0.227583,0 0,-0.534822 z"
         style="fill:#ffffff"
         id="path3094" />
      <path
         d="m 41.960456,16.55943 c -0.197242,0 -0.35655,-0.0531 -0.477925,-0.159309 -0.08851,-0.07333 -0.164369,-0.182066 -0.227584,-0.326203 l -0.06448,-0.159308 -0.0531,-0.182067 c -0.05563,0.09609 -0.120747,0.186493 -0.195342,0.271204 -0.0746,0.08471 -0.165,0.168791 -0.271204,0.252238 -0.09609,0.08092 -0.204194,0.14224 -0.324306,0.183963 -0.120115,0.04172 -0.25224,0.06511 -0.396375,0.07017 l -0.356547,-0.03035 -0.09483,-0.02276 c -0.0708,-0.03287 -0.126435,-0.06827 -0.166894,-0.106206 -0.02782,-0.0354 -0.04805,-0.07965 -0.06069,-0.132757 l -0.01517,-0.201032 c -10e-7,-0.101147 0.0076,-0.197238 0.02276,-0.288272 0.01517,-0.09609 0.03667,-0.147928 0.06448,-0.155516 l 0.121378,0.189653 c 0.07586,0.128965 0.283214,0.193447 0.622061,0.193446 0.209881,10e-7 0.40712,-0.05057 0.591717,-0.151722 0.225053,-0.128963 0.33758,-0.304708 0.337582,-0.527235 l -0.03034,-0.424823 -0.03414,-0.318616 -0.09862,-0.485512 c -0.0025,-0.0177 -0.007,-0.03793 -0.01328,-0.06069 -0.0063,-0.02276 -0.01581,-0.05057 -0.02845,-0.08345 l 0.288273,-0.489305 0.106205,0.641027 c 0.04299,0.348964 0.07649,0.616374 0.100516,0.802232 0.02402,0.185861 0.04109,0.292699 0.05121,0.320513 0.06827,0.364135 0.149191,0.600569 0.242755,0.709302 0.06827,0.09103 0.183329,0.136551 0.345169,0.13655 l 0.147929,0 0,0.534822 z"
         style="fill:#ffffff"
         id="path3096" />
      <path
         d="m 38.535325,13.915668 -0.402064,-0.295858 -0.238963,0.394478 -0.477925,-0.360341 0.276893,-0.432409 0.428616,0.314824 0.238962,-0.390685 0.470339,0.326203 z m 0.364133,1.596878 c -1e-6,0.207354 -0.03287,0.394478 -0.09862,0.561372 -0.05816,0.141608 -0.163103,0.256664 -0.314824,0.345168 -0.156781,0.08851 -0.326204,0.132757 -0.50827,0.132757 -0.212411,0 -0.352754,-0.0531 -0.421029,-0.159308 l -0.04931,-0.125171 -0.0076,-0.117585 c 0,-0.126434 0.02781,-0.265513 0.08345,-0.417236 0.05563,-0.151721 0.147929,-0.336317 0.276894,-0.553787 0.209881,-0.361603 0.337581,-0.542405 0.383098,-0.542407 0.09609,2e-6 0.225054,0.08851 0.386892,0.265514 0.179537,0.194712 0.269306,0.398273 0.269307,0.610683 z m -0.235169,0.299651 c -2e-6,-0.02529 -0.0032,-0.05184 -0.0095,-0.07965 -0.0063,-0.02782 -0.02086,-0.0746 -0.04362,-0.140343 l -0.151722,-0.189653 c -0.0177,-0.0177 -0.03793,-0.0354 -0.06069,-0.0531 -0.02276,-0.0177 -0.05437,-0.03793 -0.09483,-0.06069 l -0.109998,-0.07586 -0.166895,0.178274 c -0.02782,0.03287 -0.05247,0.06322 -0.07396,0.09103 -0.02149,0.02782 -0.03856,0.05184 -0.05121,0.07207 -0.06322,0.108735 -0.09483,0.192183 -0.09483,0.250342 -10e-7,0.02529 0.0089,0.05437 0.02655,0.08724 l 0.102413,0.08345 0.09862,0.01896 0.08345,0.01138 0.170688,-0.01138 c 0.03287,-0.0025 0.06069,-0.0088 0.08345,-0.01896 0.113791,-0.04552 0.190284,-0.07965 0.22948,-0.102413 0.03919,-0.02276 0.06006,-0.04299 0.06259,-0.06069 z"
         style="fill:#ffffff"
         id="path3098" />
    </g>
  </g>
</svg>
