<?xml version="1.0" encoding="UTF-8" standalone="no"?>
<!-- Created with Inkscape (http://www.inkscape.org/) -->

<svg
   xmlns:dc="http://purl.org/dc/elements/1.1/"
   xmlns:cc="http://creativecommons.org/ns#"
   xmlns:rdf="http://www.w3.org/1999/02/22-rdf-syntax-ns#"
   xmlns:svg="http://www.w3.org/2000/svg"
   xmlns="http://www.w3.org/2000/svg"
   xmlns:sodipodi="http://sodipodi.sourceforge.net/DTD/sodipodi-0.dtd"
   xmlns:inkscape="http://www.inkscape.org/namespaces/inkscape"
   width="128"
   height="32"
   id="svg2"
   version="1.1"
   inkscape:version="0.48.4 r9939"
   sodipodi:docname="template.svg">
  <defs
     id="defs4" />
  <sodipodi:namedview
     id="base"
     pagecolor="#ffffff"
     bordercolor="#666666"
     borderopacity="1.0"
     inkscape:pageopacity="0.0"
     inkscape:pageshadow="2"
     inkscape:zoom="4.0546875"
     inkscape:cx="7.7233806"
     inkscape:cy="35.701469"
     inkscape:document-units="px"
     inkscape:current-layer="layer1"
     showgrid="false"
     inkscape:window-width="1366"
     inkscape:window-height="706"
     inkscape:window-x="-8"
     inkscape:window-y="-8"
     inkscape:window-maximized="1" />
  <metadata
     id="metadata7">
    <rdf:RDF>
      <cc:Work
         rdf:about="">
        <dc:format>image/svg+xml</dc:format>
        <dc:type
           rdf:resource="http://purl.org/dc/dcmitype/StillImage" />
        <dc:title></dc:title>
      </cc:Work>
    </rdf:RDF>
  </metadata>
  <g
     inkscape:label="Layer 1"
     inkscape:groupmode="layer"
     id="layer1"
     transform="translate(0,-1020.3622)">
    <g
       transform="matrix(3.8619071,0,0,3.8619071,-116.80471,977.82382)"
       style="font-size:7.76818275000000020px;font-style:normal;font-variant:normal;font-weight:normal;font-stretch:normal;text-align:start;line-height:141.99999571000001000%;letter-spacing:0px;word-spacing:0px;writing-mode:lr-tb;text-anchor:start;fill:#ffffff;fill-opacity:1;stroke:none;font-family:KacstBook;-inkscape-font-specification:KacstBook"
       id="flowRoot2985">
      <path
         d="m 55.994771,13.217745 -0.493097,-0.348961 0.341375,-0.477925 0.455167,0.36034 z m 1.088608,2.511005 c -2e-6,0.268043 -0.140345,0.481719 -0.42103,0.641027 -0.128965,0.0708 -0.280055,0.128331 -0.45327,0.172584 -0.173218,0.04425 -0.350859,0.06638 -0.532925,0.06638 -0.146665,0 -0.254767,-0.01138 -0.324306,-0.03414 -0.06954,-0.02276 -0.111896,-0.06701 -0.127068,-0.132757 l 0,-0.121378 c 0,-0.05057 0.0025,-0.08851 0.0076,-0.113792 0,-0.0354 6.32e-4,-0.06322 0.0019,-0.08345 0.0013,-0.02023 0.0032,-0.0354 0.0057,-0.04552 l 0.03793,-0.155515 0.09103,0.04552 0.140343,0.04552 0.144136,0.02276 0.147929,0.01138 c 0.146664,0 0.34896,-0.03667 0.606889,-0.109999 0.293328,-0.0885 0.439993,-0.184595 0.439995,-0.288272 -2e-6,-0.118849 -0.09103,-0.2908 -0.2731,-0.515856 -0.17954,-0.225053 -0.350227,-0.366661 -0.512063,-0.424823 l 0,-0.466546 0.0076,-0.106206 c 0.0076,-0.04551 0.02655,-0.07207 0.0569,-0.07965 0.123905,3e-6 0.29965,0.155518 0.527235,0.466546 0.126434,0.171954 0.23011,0.362871 0.311031,0.572752 0.07839,0.202298 0.117583,0.413444 0.117585,0.633441 z"
         style="fill:#ffffff"
         id="path3101" />
      <path
         d="m 54.90237,15.690819 c -3e-6,0.237699 -0.03414,0.472869 -0.102413,0.705509 -0.06828,0.232641 -0.174483,0.46781 -0.318617,0.705509 -0.336319,0.548728 -0.702981,0.823092 -1.099986,0.823093 -0.177011,-1e-6 -0.422295,-0.08471 -0.735854,-0.254135 -0.313559,-0.169424 -0.470339,-0.28448 -0.470339,-0.345168 0,-0.0177 0.01644,-0.0354 0.04931,-0.0531 l 0.451374,0.182067 0.204825,0.06827 c 0.0531,0.01517 0.104941,0.02276 0.155515,0.02276 0.250341,-1e-6 0.499418,-0.08598 0.747233,-0.257928 0.311029,-0.212412 0.604358,-0.547465 0.879989,-1.005161 l 0.01897,-0.109998 c -2e-6,-0.02023 -0.0019,-0.04299 -0.0057,-0.06827 -0.0038,-0.02529 -0.01201,-0.05184 -0.02465,-0.07965 l -0.04931,-0.125171 c -0.05563,0.106207 -0.127702,0.195976 -0.216204,0.269308 -0.08092,0.05816 -0.156782,0.08724 -0.227584,0.08724 -0.108736,0 -0.211148,-0.05563 -0.307237,-0.166895 -0.08092,-0.111262 -0.121379,-0.238962 -0.121378,-0.383099 -10e-7,-0.219996 0.07586,-0.458958 0.227583,-0.716887 0.15425,-0.260455 0.280685,-0.390684 0.379306,-0.390685 0.09103,1e-6 0.204823,0.09862 0.341375,0.295858 0.149192,0.247815 0.223788,0.513328 0.223791,0.796542 z m -0.326203,-0.06827 c -0.01517,-0.128963 -0.05563,-0.237697 -0.121378,-0.326203 -0.04805,-0.07586 -0.118851,-0.123905 -0.212411,-0.144136 -0.04552,10e-7 -0.09609,0.03414 -0.151723,0.102413 -0.04046,0.07081 -0.07081,0.149194 -0.09103,0.235169 -2e-6,0.06069 0.04172,0.117586 0.125171,0.170688 0.08345,0.04552 0.161835,0.06828 0.23517,0.06827 0.08344,1e-6 0.155513,-0.0354 0.216204,-0.106206 z"
         style="fill:#ffffff"
         id="path3103" />
      <path
         d="m 49.770362,16.202882 -0.02276,0.09483 c -0.03793,0.204825 -0.08851,0.31103 -0.151723,0.318616 -0.0354,0 -0.0531,-0.120113 -0.0531,-0.36034 l 0,-0.216204 c 0,-0.11632 -0.0051,-0.183331 -0.01517,-0.201033 -0.02782,-0.305972 -0.0569,-0.595508 -0.08724,-0.86861 -0.03034,-0.273098 -0.06322,-0.536083 -0.09862,-0.788956 l -0.125171,-0.921713 0.0569,-0.166894 0.303445,-0.515856 0,0.432408 0.178274,1.83584 c 0.02023,0.245286 0.03603,0.445686 0.04741,0.6012 0.01138,0.155516 0.01707,0.272469 0.01707,0.350858 z"
         style="fill:#ffffff"
         id="path3105" />
      <path
         d="m 47.456598,16.024608 c 0.161836,1e-6 0.295225,-0.03793 0.400167,-0.113791 0.104941,-0.07586 0.157411,-0.19471 0.157412,-0.356548 -10e-7,-0.166893 -0.0569,-0.610681 -0.170687,-1.331363 -0.116322,-0.725736 -0.209884,-1.179638 -0.280687,-1.361708 l 0.333789,-0.462753 0.128964,0.326203 c 0.0531,0.108738 0.144135,0.189656 0.273101,0.242756 l -0.280687,0.512062 0.02655,0.314824 0.13655,0.788956 0.0531,0.45896 c 0.01517,0.151724 0.02276,0.27563 0.02276,0.37172 -10e-7,0.108735 -0.02655,0.261722 -0.07965,0.45896 -0.04805,0.184596 -0.107471,0.327468 -0.178274,0.428616 -0.03287,0.04552 -0.08724,0.08787 -0.163102,0.127067 -0.07586,0.03919 -0.174481,0.06891 -0.295858,0.08914 l -0.238963,0.04172 -0.329996,0 0,-0.534822 z"
         style="fill:#ffffff"
         id="path3107" />
      <path
         d="m 42.829066,16.024608 c 0.123907,1e-6 0.239595,-0.0032 0.347065,-0.0095 0.10747,-0.0063 0.205457,-0.0158 0.293962,-0.02845 0.0885,-0.01264 0.177641,-0.03034 0.267411,-0.0531 0.08977,-0.02276 0.182697,-0.04425 0.278789,-0.06448 l 0.87999,-0.398271 -0.671371,-0.201032 c -0.222528,-0.04299 -0.393215,-0.06448 -0.512063,-0.06448 -0.166896,10e-7 -0.287009,0.01012 -0.360341,0.03034 l -0.208618,0.07586 0.01897,-0.132757 c 0.07586,-0.214938 0.16563,-0.359074 0.269307,-0.432408 0.101148,-0.07586 0.233905,-0.11379 0.398272,-0.113792 0.11379,2e-6 0.412177,0.09104 0.895161,0.2731 0.237696,0.09103 0.471601,0.15931 0.701716,0.204825 0.06321,0.01264 0.122007,0.02339 0.176377,0.03224 0.05436,0.0089 0.122007,0.01707 0.202929,0.02466 0.06574,0.0076 0.115053,0.01264 0.147929,0.01517 0.03287,0.0025 0.06321,0.0038 0.09103,0.0038 l 0.06069,0 0.117585,0 c 0.04804,10e-7 0.101145,-0.0019 0.159309,-0.0057 0.05816,-0.0038 0.120109,-0.01201 0.185859,-0.02465 l -0.235169,0.493098 -0.04172,0.113791 -0.121378,-0.02276 -0.390685,-0.04931 c 0.03034,0.11885 0.108732,0.207355 0.23517,0.265514 l 0.212411,0.04931 0.140343,0.01897 0.74344,0 0,0.534822 -0.618269,0 c -0.207357,0 -0.3477,-0.0089 -0.421029,-0.02655 -0.09609,-0.02023 -0.188392,-0.0569 -0.276893,-0.109999 -0.08851,-0.0531 -0.163105,-0.163101 -0.223791,-0.329996 l -0.03034,-0.151722 0,-0.159308 0,-0.08345 c -0.128967,0.01265 -0.244655,0.03224 -0.347065,0.05879 -0.102415,0.02655 -0.202931,0.06259 -0.301548,0.108102 l -0.474132,0.216204 c -0.288274,0.121378 -0.542409,0.219998 -0.762405,0.295859 -0.354019,0.121378 -0.622062,0.182067 -0.804128,0.182067 l -0.07586,0 0,-0.534822 z"
         style="fill:#ffffff"
         id="path3109" />
      <path
         d="m 38.580842,16.024608 c 0.123906,1e-6 0.239594,-0.0032 0.347065,-0.0095 0.107469,-0.0063 0.205456,-0.0158 0.293962,-0.02845 0.0885,-0.01264 0.17764,-0.03034 0.26741,-0.0531 0.08977,-0.02276 0.182698,-0.04425 0.27879,-0.06448 l 0.879989,-0.398271 -0.671371,-0.201032 c -0.222527,-0.04299 -0.393215,-0.06448 -0.512063,-0.06448 -0.0885,10e-7 -0.158677,0.0025 -0.210514,0.0076 -0.05184,0.0051 -0.100517,0.01644 -0.146033,0.03414 l -0.106206,0.0531 -0.07965,0.04552 0,-0.109999 c 0.06827,-0.214938 0.157411,-0.369189 0.267411,-0.462753 0.109997,-0.09356 0.240858,-0.140341 0.392581,-0.140343 0.113791,2e-6 0.412178,0.09104 0.895162,0.2731 0.121376,0.04552 0.240225,0.08535 0.356547,0.119482 0.116318,0.03414 0.235167,0.06385 0.356548,0.08914 0.05816,0.01264 0.113789,0.02276 0.166894,0.03035 0.0531,0.0076 0.120111,0.01517 0.201032,0.02276 0.06574,0.0076 0.115053,0.01264 0.14793,0.01517 0.03287,0.0025 0.06321,0.0038 0.09103,0.0038 l 0.06069,0 0.117585,0 c 0.04804,10e-7 0.101144,-0.0019 0.159308,-0.0057 0.05816,-0.0038 0.12011,-0.01201 0.18586,-0.02465 l -0.23517,0.493098 -0.04172,0.113791 -0.121378,-0.02276 -0.390685,-0.04931 c 0.03034,0.11885 0.108731,0.207355 0.235169,0.265514 l 0.212412,0.04931 0.140343,0.01897 0.743439,0 0,0.534822 -0.618268,0 c -0.207358,0 -0.347701,-0.0089 -0.42103,-0.02655 -0.09609,-0.02023 -0.188391,-0.0569 -0.276893,-0.109999 -0.08851,-0.0531 -0.163104,-0.163101 -0.22379,-0.329996 l -0.02276,-0.151722 -0.0076,-0.159308 0,-0.08345 c -0.128966,0.01265 -0.244655,0.03224 -0.347065,0.05879 -0.102414,0.02655 -0.20293,0.06259 -0.301548,0.108102 l -0.474132,0.216204 c -0.288274,0.121378 -0.542408,0.219998 -0.762405,0.295859 -0.354019,0.121378 -0.622061,0.182067 -0.804128,0.182067 l -0.07586,0 0,-0.534822 z m 1.964804,1.638601 -0.493098,-0.348961 0.341375,-0.477925 0.455167,0.36034 z"
         style="fill:#ffffff"
         id="path3111" />
      <path
         d="m 37.92085,13.396019 -0.40965,-0.299651 -0.231377,0.398271 -0.477925,-0.360341 0.276893,-0.432408 0.417236,0.307237 0.250342,-0.383099 0.470339,0.326203 z m 0.622061,3.163411 c -0.242757,0 -0.409652,-0.05184 -0.500683,-0.155516 -0.09356,-0.101148 -0.185862,-0.347696 -0.276894,-0.739646 l -0.208618,0.227583 c -0.06069,0.07586 -0.117586,0.122643 -0.170687,0.140343 l -0.109999,0.0038 -0.242756,-0.03414 -0.125171,-0.03793 c -0.237698,-0.0531 -0.356547,-0.12517 -0.356547,-0.216204 0,-0.17448 0.0885,-0.372983 0.265514,-0.59551 0.197238,-0.247811 0.45643,-0.437464 0.777577,-0.568959 l -0.04172,-0.250342 c -10e-7,-0.03287 0.0088,-0.06574 0.02655,-0.09862 0.01264,-0.02023 0.02971,-0.04488 0.05121,-0.07396 0.02149,-0.02908 0.04868,-0.06385 0.08155,-0.104309 l 0.08724,-0.06827 0.09862,0.489305 0.09103,0.86861 c 0.03034,0.278158 0.09483,0.47034 0.193446,0.576545 0.06827,0.06827 0.193444,0.102413 0.375513,0.102412 l 0.07586,0 0,0.534822 z m -0.811714,-1.164469 0,-0.06448 -0.109999,-0.603097 -0.132757,0.231377 -0.166894,0.08724 -0.144136,0.09103 c -0.126437,0.08345 -0.189654,0.152988 -0.189653,0.208618 -10e-7,0.0354 0.07712,0.06828 0.231376,0.09862 l 0.246549,0.02655 0.2731,0 z"
         style="fill:#ffffff"
         id="path3113" />
    </g>
  </g>
</svg>
