<?xml version="1.0" encoding="UTF-8" standalone="no"?>
<!-- Created with Inkscape (http://www.inkscape.org/) -->

<svg
   xmlns:dc="http://purl.org/dc/elements/1.1/"
   xmlns:cc="http://creativecommons.org/ns#"
   xmlns:rdf="http://www.w3.org/1999/02/22-rdf-syntax-ns#"
   xmlns:svg="http://www.w3.org/2000/svg"
   xmlns="http://www.w3.org/2000/svg"
   xmlns:sodipodi="http://sodipodi.sourceforge.net/DTD/sodipodi-0.dtd"
   xmlns:inkscape="http://www.inkscape.org/namespaces/inkscape"
   width="128"
   height="32"
   id="svg2"
   version="1.1"
   inkscape:version="0.48.4 r9939"
   sodipodi:docname="template.svg">
  <defs
     id="defs4" />
  <sodipodi:namedview
     id="base"
     pagecolor="#ffffff"
     bordercolor="#666666"
     borderopacity="1.0"
     inkscape:pageopacity="0.0"
     inkscape:pageshadow="2"
     inkscape:zoom="4.0546875"
     inkscape:cx="22.880499"
     inkscape:cy="35.701469"
     inkscape:document-units="px"
     inkscape:current-layer="layer1"
     showgrid="false"
     inkscape:window-width="1366"
     inkscape:window-height="706"
     inkscape:window-x="-8"
     inkscape:window-y="-8"
     inkscape:window-maximized="1" />
  <metadata
     id="metadata7">
    <rdf:RDF>
      <cc:Work
         rdf:about="">
        <dc:format>image/svg+xml</dc:format>
        <dc:type
           rdf:resource="http://purl.org/dc/dcmitype/StillImage" />
        <dc:title></dc:title>
      </cc:Work>
    </rdf:RDF>
  </metadata>
  <g
     inkscape:label="Layer 1"
     inkscape:groupmode="layer"
     id="layer1"
     transform="translate(0,-1020.3622)">
    <g
       transform="matrix(3.8619071,0,0,3.8619071,-135.80373,978.26327)"
       style="font-size:7.76818275000000020px;font-style:normal;font-variant:normal;font-weight:normal;font-stretch:normal;text-align:start;line-height:141.99999571000001000%;letter-spacing:0px;word-spacing:0px;writing-mode:lr-tb;text-anchor:start;fill:#ffffff;fill-opacity:1;stroke:none;font-family:KacstBook;-inkscape-font-specification:KacstBook"
       id="flowRoot2985">
      <path
         d="m 51.989301,16.024608 c 0.242756,1e-6 0.413443,-0.0177 0.512063,-0.0531 0.17448,-0.05563 0.276893,-0.144136 0.307238,-0.265515 0.03034,-0.118848 0.07586,-0.178272 0.13655,-0.178273 0.05057,10e-7 0.09103,0.05437 0.121378,0.163101 0.03034,0.108735 0.08408,0.19155 0.161205,0.248446 0.07712,0.0569 0.158675,0.08534 0.244652,0.08534 l 0.09103,0 c 0.217467,1e-6 0.393212,-0.04552 0.527236,-0.13655 l 0.295858,-0.341375 c 0.139076,-0.161836 0.26804,-0.300915 0.386892,-0.417236 0.118846,-0.116319 0.228845,-0.211146 0.329996,-0.28448 0.151719,-0.108732 0.301545,-0.193444 0.449477,-0.254135 0.147926,-0.06069 0.293959,-0.09103 0.438099,-0.09103 0.09862,2e-6 0.18712,0.01201 0.265514,0.03603 0.07838,0.02402 0.146028,0.05816 0.202928,0.102413 0.05689,0.04425 0.100512,0.09609 0.130861,0.155515 0.03034,0.05943 0.04551,0.123276 0.04552,0.191549 l -0.03034,0.144137 c -0.02529,0.08851 -0.04868,0.163102 -0.07017,0.22379 -0.0215,0.06069 -0.0411,0.108735 -0.05879,0.144136 -0.02782,0.06575 -0.06259,0.134655 -0.104309,0.206722 -0.04173,0.07207 -0.09041,0.144769 -0.146033,0.218101 -0.01012,0.01012 -0.02845,0.02466 -0.055,0.04362 -0.02656,0.01897 -0.06259,0.04489 -0.108102,0.07776 l -0.128964,0.06827 -0.170688,0.07586 -0.364133,0.13655 -0.303445,0.09103 c -0.06575,0.01517 -0.146668,0.03224 -0.242756,0.05121 -0.09609,0.01897 -0.206092,0.04236 -0.329996,0.07017 l -0.523442,0.02276 -0.09103,0.140343 -0.08345,0.163101 c -0.05058,0.106205 -0.09609,0.171952 -0.136551,0.197239 l -0.03793,-0.09103 0,-0.132757 0.04172,-0.182067 c 0.01264,-0.04299 0.02529,-0.0746 0.03793,-0.09483 l -0.182067,0 c -0.247814,0 -0.429881,-0.06195 -0.5462,-0.18586 l -0.07586,-0.106206 c -0.03793,-0.04552 -0.06828,-0.07333 -0.09103,-0.08345 -0.06575,0.07839 -0.174481,0.166895 -0.326203,0.265514 -0.02023,0.01264 -0.04931,0.02592 -0.08724,0.03983 -0.03793,0.01391 -0.08218,0.02845 -0.132757,0.04362 l -0.117585,0.01897 -0.128964,0.0076 -0.102412,0 0,-0.534822 z m 4.255811,-0.629647 c -4e-6,-0.02023 -0.0025,-0.04109 -0.0076,-0.06259 -0.0051,-0.02149 -0.01897,-0.05373 -0.04172,-0.09672 l -0.04552,-0.06448 c -0.07839,-0.08597 -0.184599,-0.128962 -0.318617,-0.128964 -0.346436,2e-6 -0.70804,0.173218 -1.084814,0.519649 l -0.292066,0.32241 -0.03793,0.0569 -0.02276,0.07586 c 0.144134,10e-7 0.292695,-0.01391 0.445685,-0.04172 0.152983,-0.02782 0.316717,-0.06827 0.491201,-0.121378 0.419761,-0.126435 0.72447,-0.279421 0.914126,-0.45896 z"
         style="fill:#ffffff"
         id="path2996" />
      <path
         d="m 51.185173,13.377054 -0.493097,-0.348961 0.341375,-0.477926 0.45896,0.360341 z m -1.316191,2.647554 0.311031,-0.04172 c 0.15425,-0.02276 0.240226,-0.0569 0.257928,-0.102413 -0.01012,-0.01264 -0.0196,-0.02718 -0.02845,-0.04362 -0.0089,-0.01644 -0.01581,-0.03477 -0.02086,-0.055 l -0.01517,-0.117585 c -10e-7,-0.273099 0.149192,-0.562636 0.447581,-0.86861 0.05816,-0.06069 0.117583,-0.116951 0.178273,-0.168792 0.06069,-0.05184 0.11948,-0.09735 0.176377,-0.13655 0.05689,-0.03919 0.11063,-0.06954 0.161205,-0.09103 0.05057,-0.02149 0.09735,-0.03224 0.140344,-0.03224 0.07586,2e-6 0.147927,0.07207 0.216204,0.216204 l 0.06069,0.231377 c 0.01517,0.07586 0.02276,0.152988 0.02276,0.231376 -2e-6,0.169425 -0.04931,0.356549 -0.147929,0.561373 -0.01517,0.03287 -0.03793,0.0746 -0.06827,0.125171 -0.03035,0.05058 -0.06954,0.108735 -0.117585,0.174481 -2e-6,0.02782 0.05563,0.05563 0.166895,0.08345 0.108732,0.02276 0.221259,0.03414 0.337582,0.03414 l 0.09862,0 0,0.534822 -0.151722,0 -0.367927,-0.04172 c -0.04299,-0.01011 -0.07333,-0.0177 -0.09103,-0.02276 -0.0177,-0.0051 -0.04299,-0.01517 -0.07586,-0.03035 l -0.553787,-0.250342 -0.576545,0.242756 c -0.189653,0.06827 -0.359076,0.102413 -0.508269,0.102413 l -0.102413,0 0,-0.534822 z m 1.634808,-0.652406 c -2e-6,-0.09862 -0.03414,-0.188387 -0.102413,-0.269307 -0.02782,-0.03793 -0.06069,-0.06827 -0.09862,-0.09103 -0.03793,-0.02276 -0.08092,-0.03414 -0.128964,-0.03414 l -0.01138,0 c -0.05311,0.0025 -0.08977,0.0057 -0.109999,0.0095 -0.02023,0.0038 -0.0392,0.01075 -0.0569,0.02086 l -0.170687,0.08724 c -0.116322,0.07839 -0.174482,0.164367 -0.174481,0.257928 -10e-7,0.05058 0.04931,0.11885 0.147929,0.204825 0.103676,0.08851 0.179537,0.132758 0.227584,0.132757 0.01517,1e-6 0.05436,-0.01391 0.117584,-0.04172 l 0.219998,-0.140344 c 0.08344,-0.06827 0.130226,-0.11379 0.140343,-0.13655 z"
         style="fill:#ffffff"
         id="path2998" />
      <path
         d="m 49.447953,16.55943 c -0.04552,0.237698 -0.128967,0.489303 -0.250342,0.754818 -0.0177,0.04046 -0.03857,0.08534 -0.06259,0.134654 -0.02402,0.04931 -0.05247,0.105572 -0.08534,0.168791 -0.0177,0.0354 -0.04046,0.0746 -0.06827,0.117584 -0.02782,0.04299 -0.06195,0.08977 -0.102412,0.140344 -0.25793,0.376775 -0.587925,0.565163 -0.989988,0.565165 -0.134022,-2e-6 -0.356548,-0.09483 -0.667578,-0.284479 -0.2554,-0.15931 -0.383099,-0.285745 -0.383099,-0.379306 0,-0.01012 0.0019,-0.01897 0.0057,-0.02655 0.0038,-0.0076 0.01581,-0.0177 0.03603,-0.03035 0.03035,-1e-6 0.07966,0.02276 0.14793,0.06827 0.260456,0.182066 0.414707,0.276892 0.462753,0.28448 0.149193,-2e-6 0.327466,-0.04046 0.534821,-0.121378 0.199766,-0.08345 0.364132,-0.182068 0.493097,-0.295859 l 0.212412,-0.216204 0.182066,-0.208618 c 0.07586,-0.09103 0.132755,-0.178274 0.170688,-0.261721 l 0.06069,-0.201032 c -2e-6,-0.171952 -0.04678,-0.308502 -0.140343,-0.409651 l -0.276893,-0.318616 0.208618,-0.50827 0.394478,0.432408 c 0.05563,0.04046 0.128961,0.06069 0.219997,0.06069 l 0.155515,0 0,0.534822 z"
         style="fill:#ffffff"
         id="path3000" />
    </g>
  </g>
</svg>
