<?xml version="1.0" encoding="UTF-8" standalone="no"?>
<!-- Created with Inkscape (http://www.inkscape.org/) -->

<svg
   xmlns:dc="http://purl.org/dc/elements/1.1/"
   xmlns:cc="http://creativecommons.org/ns#"
   xmlns:rdf="http://www.w3.org/1999/02/22-rdf-syntax-ns#"
   xmlns:svg="http://www.w3.org/2000/svg"
   xmlns="http://www.w3.org/2000/svg"
   xmlns:sodipodi="http://sodipodi.sourceforge.net/DTD/sodipodi-0.dtd"
   xmlns:inkscape="http://www.inkscape.org/namespaces/inkscape"
   width="128"
   height="32"
   id="svg2"
   version="1.1"
   inkscape:version="0.48.4 r9939"
   sodipodi:docname="template.svg">
  <defs
     id="defs4" />
  <sodipodi:namedview
     id="base"
     pagecolor="#ffffff"
     bordercolor="#666666"
     borderopacity="1.0"
     inkscape:pageopacity="0.0"
     inkscape:pageshadow="2"
     inkscape:zoom="4.0546875"
     inkscape:cx="10.338131"
     inkscape:cy="35.701469"
     inkscape:document-units="px"
     inkscape:current-layer="layer1"
     showgrid="false"
     inkscape:window-width="1366"
     inkscape:window-height="706"
     inkscape:window-x="-8"
     inkscape:window-y="-8"
     inkscape:window-maximized="1" />
  <metadata
     id="metadata7">
    <rdf:RDF>
      <cc:Work
         rdf:about="">
        <dc:format>image/svg+xml</dc:format>
        <dc:type
           rdf:resource="http://purl.org/dc/dcmitype/StillImage" />
        <dc:title></dc:title>
      </cc:Work>
    </rdf:RDF>
  </metadata>
  <g
     inkscape:label="Layer 1"
     inkscape:groupmode="layer"
     id="layer1"
     transform="translate(0,-1020.3622)">
    <g
       transform="matrix(3.8619071,0,0,3.8619071,-118.54055,976.26327)"
       style="font-size:7.76818275000000020px;font-style:normal;font-variant:normal;font-weight:normal;font-stretch:normal;text-align:start;line-height:141.99999571000001000%;letter-spacing:0px;word-spacing:0px;writing-mode:lr-tb;text-anchor:start;fill:#ffffff;fill-opacity:1;stroke:none;font-family:KacstBook;-inkscape-font-specification:KacstBook"
       id="flowRoot2985">
      <path
         d="m 58.141641,15.998057 c -2e-6,0.480454 -0.17069,0.930563 -0.512063,1.350329 -0.321147,0.389419 -0.642292,0.584129 -0.963436,0.58413 -0.07586,-1e-6 -0.170689,-0.0196 -0.28448,-0.05879 -0.113792,-0.0392 -0.250342,-0.09925 -0.40965,-0.18017 -0.305973,-0.15931 -0.45896,-0.269308 -0.45896,-0.329996 0,-0.04046 0.01644,-0.06069 0.04931,-0.06069 0.02023,-1e-6 0.121378,0.04552 0.303444,0.13655 0.166895,0.09862 0.297123,0.147928 0.390685,0.147929 0.36919,-10e-7 0.754818,-0.18586 1.156883,-0.557579 0.356545,-0.33379 0.534819,-0.61574 0.534821,-0.845852 -2e-6,-0.0531 -0.01454,-0.11632 -0.04362,-0.189653 -0.02908,-0.07333 -0.0765,-0.152986 -0.14224,-0.238963 l -0.265514,-0.341375 0.140343,-0.5462 c 0.11379,0.08345 0.235168,0.269308 0.364134,0.557579 0.09356,0.202298 0.140341,0.393215 0.140343,0.572752 z"
         style="fill:#ffffff"
         id="path3003" />
      <path
         d="m 54.739269,16.028401 0.314824,-0.01138 c 0.0885,-0.02276 0.151089,-0.03983 0.187756,-0.05121 0.03666,-0.01138 0.06132,-0.0196 0.07397,-0.02466 0.0531,-0.01517 0.08345,-0.04299 0.09103,-0.08345 -10e-7,-0.103676 -0.0354,-0.209882 -0.106206,-0.318617 -0.01517,-0.02782 -0.03034,-0.05247 -0.04552,-0.07396 -0.01517,-0.02149 -0.02908,-0.04109 -0.04172,-0.05879 l -0.08345,-0.08724 c -10e-7,-0.03287 0.0063,-0.07207 0.01897,-0.117585 L 55.3234,14.727382 c 0.113791,0.113794 0.201031,0.233907 0.261721,0.360341 0.06069,0.126437 0.09103,0.250343 0.09103,0.37172 -10e-7,0.02276 -6.33e-4,0.05184 -0.0019,0.08724 -0.0013,0.0354 -0.0044,0.08977 -0.0095,0.163102 l -0.04552,0.212411 c -0.02276,0.09609 -0.06385,0.182067 -0.123274,0.257928 -0.05943,0.07586 -0.129597,0.142872 -0.210515,0.201032 -0.164366,0.118849 -0.362869,0.178274 -0.59551,0.178274 l -0.261721,0 0,-0.534822 z m 0.527235,1.813082 -0.493098,-0.345168 0.341376,-0.477925 0.45896,0.36034 z"
         style="fill:#ffffff"
         id="path3005" />
      <path
         d="m 52.884464,16.024608 c 0.265513,1e-6 0.472867,-0.05563 0.622061,-0.166894 l 0.333789,-0.379306 c 0.01517,10e-7 0.05689,0.09103 0.125171,0.2731 0.06827,0.182068 0.216203,0.273101 0.443788,0.2731 l 0.06827,0 0,0.534822 -0.151722,0 c -0.08598,0 -0.164368,-0.02023 -0.23517,-0.06069 l -0.102413,-0.07207 c -0.0177,-0.01264 -0.0354,-0.02782 -0.0531,-0.04552 -0.0177,-0.0177 -0.04172,-0.04425 -0.07207,-0.07965 l -0.07966,-0.125171 c -0.03034,-0.06575 -0.05563,-0.104941 -0.07586,-0.117585 -0.09609,0.111263 -0.216205,0.227584 -0.36034,0.348961 l -0.06827,0.04552 -0.128964,0.06448 -0.102413,0.03034 -0.109999,0.01138 -0.102412,0 0,-0.534822 z m 1.179641,1.998942 -0.405858,-0.299652 -0.235169,0.394478 -0.477926,-0.36034 0.276894,-0.428616 0.417236,0.303445 0.250342,-0.379306 0.470339,0.326203 z"
         style="fill:#ffffff"
         id="path3007" />
      <path
         d="m 53.768246,19.153881 c -5e-6,0.05563 -0.230117,0.165628 -0.690337,0.329996 -0.460227,0.166892 -0.838268,0.250339 -1.134124,0.250342 -0.718154,-3e-6 -1.265618,-0.16184 -1.642394,-0.485511 -0.356548,-0.303447 -0.534822,-0.728269 -0.534821,-1.274468 -1e-6,-0.45011 0.115055,-0.873668 0.345168,-1.270674 0.166894,-0.298387 0.44758,-0.630912 0.842059,-0.997575 -0.13908,-0.123905 -0.312297,-0.185858 -0.519649,-0.185859 0.06574,-0.250341 0.15425,-0.43304 0.265514,-0.548097 0.111261,-0.115055 0.237697,-0.172583 0.379306,-0.172584 0.240225,1e-6 0.42482,0.02023 0.553786,0.06069 0.28827,0.08345 0.432406,0.250343 0.432409,0.500683 -3e-6,0.07333 -0.01391,0.131494 -0.04172,0.174481 -0.01265,0.0177 -0.04299,0.04489 -0.09103,0.08155 -0.04805,0.03667 -0.11253,0.08282 -0.193446,0.138446 0.09103,0.113793 0.194708,0.189654 0.31103,0.227584 0.116318,0.02782 0.367924,0.04172 0.754819,0.04172 l 0.117585,0 0,0.534822 -0.102413,0 c -0.429883,0 -0.72827,-0.03035 -0.895161,-0.09103 -0.222529,-0.07586 -0.412182,-0.260456 -0.568959,-0.553786 -0.366664,0.166895 -0.671373,0.410914 -0.914127,0.73206 -0.240228,0.323674 -0.360341,0.654934 -0.360341,0.993781 0,0.475395 0.135285,0.837 0.405858,1.084815 0.356546,0.318614 0.945733,0.477922 1.767565,0.477925 l 0.504476,0 c 0.04298,-3e-6 0.07712,-0.0013 0.102413,-0.0038 0.02528,-0.0025 0.05942,-0.0089 0.102412,-0.01896 l 0.307238,-0.01138 c 0.07333,-0.0051 0.134018,-0.01138 0.182067,-0.01897 0.04804,-0.0076 0.08913,-0.01328 0.123274,-0.01707 0.03413,-0.0038 0.06574,-0.0044 0.09483,-0.0019 0.02908,0.0025 0.06132,0.01011 0.09672,0.02276 z"
         style="fill:#ffffff"
         id="path3009" />
      <path
         d="m 46.933155,16.202882 -0.02276,0.09483 c -0.03793,0.204825 -0.0885,0.31103 -0.151722,0.318616 -0.0354,0 -0.0531,-0.120113 -0.0531,-0.36034 l 0,-0.216204 c -10e-7,-0.11632 -0.0051,-0.183331 -0.01517,-0.201033 -0.02782,-0.305972 -0.0569,-0.595508 -0.08724,-0.86861 -0.03034,-0.273098 -0.06322,-0.536083 -0.09862,-0.788956 l -0.125171,-0.921713 0.0569,-0.166894 0.303445,-0.515856 0,0.432408 0.178274,1.83584 c 0.02023,0.245286 0.03603,0.445686 0.04741,0.6012 0.01138,0.155516 0.01707,0.272469 0.01707,0.350858 z"
         style="fill:#ffffff"
         id="path3011" />
      <path
         d="m 43.363887,12.390859 c -0.08598,4e-6 -0.184596,0.02023 -0.295858,0.06069 l -0.174481,0.06069 -0.163101,0.07207 c -0.06828,0.03288 -0.150459,0.09736 -0.246549,0.193446 -0.0051,0.01518 -0.02276,0.02908 -0.0531,0.04172 l 0,-0.102412 c 0.01517,-0.07333 0.04488,-0.136546 0.08914,-0.189653 0.04425,-0.0531 0.106837,-0.09609 0.187756,-0.128964 -0.09609,-0.01517 -0.179538,-0.04551 -0.250342,-0.09103 -0.0708,-0.04551 -0.106205,-0.103673 -0.106205,-0.174481 0,-0.06068 0.01138,-0.125167 0.03414,-0.193446 0.02276,-0.06827 0.06448,-0.144132 0.125171,-0.227584 0.123906,-0.177004 0.2731,-0.265509 0.447581,-0.265514 0.0177,5e-6 0.03919,0.0025 0.06448,0.0076 0.0177,6e-6 0.03919,0.0089 0.06448,0.02655 0.0708,0.04046 0.106205,0.101153 0.106206,0.182067 l -0.113792,0.208618 c -0.0076,-0.03287 -0.04046,-0.06321 -0.09862,-0.09103 -0.0531,-0.03034 -0.101148,-0.0493 -0.144136,-0.0569 -0.03287,4e-6 -0.06448,0.0044 -0.09483,0.01328 -0.03035,0.0089 -0.05816,0.0234 -0.08345,0.04362 -0.04552,0.02023 -0.07839,0.05311 -0.09862,0.09862 0,0.05817 0.04678,0.121382 0.140343,0.189653 0.09103,0.05311 0.17448,0.07966 0.250342,0.07965 0.06575,4e-6 0.128331,-0.0025 0.187756,-0.0076 0.05942,-0.0051 0.114423,-0.01137 0.164998,-0.01896 l 0.227584,-0.03034 z m 2.370662,0.694129 -0.04552,0.637234 c -4e-6,0.121381 -0.0025,0.223793 -0.0076,0.307238 -0.0051,0.08345 -0.01265,0.152989 -0.02276,0.208618 -0.0076,0.08092 -0.01707,0.156782 -0.02845,0.227583 -0.01138,0.07081 -0.02592,0.137817 -0.04362,0.201033 -0.03035,0.174482 -0.09989,0.35402 -0.208618,0.538614 l -0.109999,0.178274 c -0.01517,0.02529 -0.03288,0.05058 -0.0531,0.07586 -0.02023,0.02529 -0.04299,0.05184 -0.06827,0.07965 l 0.07965,0.276893 0.03414,0.292066 0,0.08345 c -3e-6,0.113792 -0.0076,0.217469 -0.02276,0.311031 -0.0076,0.08598 -0.03288,0.139078 -0.07586,0.159308 -0.03793,0.02023 -0.126438,0.04488 -0.265514,0.07397 -0.139082,0.02908 -0.335056,0.05373 -0.587924,0.07396 l -0.701716,0.06069 0.117585,-0.561372 0.07207,-0.01517 0.09103,-0.02655 c 0.04804,-0.01011 0.103043,-0.02845 0.164998,-0.055 0.06195,-0.02655 0.113158,-0.05626 0.153619,-0.08914 0.311029,-0.212411 0.515854,-0.413443 0.614476,-0.603096 l -0.01897,-0.06448 c -0.0051,-0.01517 -0.01265,-0.0354 -0.02276,-0.06069 -0.01012,-0.02529 -0.0215,-0.04994 -0.03414,-0.07397 -0.01265,-0.02402 -0.02466,-0.04615 -0.03603,-0.06638 -0.01138,-0.02023 -0.0196,-0.03161 -0.02465,-0.03414 -0.02782,-0.05816 -0.06512,-0.122009 -0.111896,-0.191549 -0.04678,-0.06954 -0.101782,-0.144767 -0.164998,-0.225687 l -0.197239,-0.242756 c -0.0354,-0.03793 -0.07207,-0.07649 -0.109998,-0.115688 -0.03793,-0.03919 -0.07839,-0.08028 -0.121378,-0.123275 -0.08092,-0.07839 -0.161207,-0.150455 -0.240859,-0.216204 -0.07966,-0.06574 -0.159942,-0.123904 -0.24086,-0.174481 l -0.132757,0.166895 c -0.03034,2e-6 -0.08345,-0.01896 -0.159308,-0.0569 -0.06828,-0.04551 -0.152988,-0.115053 -0.254135,-0.208618 -0.11885,-0.11126 -0.178274,-0.206087 -0.178274,-0.28448 l 0,-0.235169 c 0,-0.02023 0.0019,-0.04046 0.0057,-0.06069 0.0038,-0.02023 0.01201,-0.05563 0.02466,-0.106206 0.03793,-0.212407 0.101147,-0.318613 0.189653,-0.318617 0.02276,4e-6 0.131491,0.07207 0.326203,0.216205 0.161836,0.136553 0.343902,0.303448 0.5462,0.500683 0.08597,0.08092 0.166261,0.162473 0.240859,0.244653 0.0746,0.08219 0.144767,0.165 0.210515,0.248445 0.04804,0.06322 0.103675,0.140345 0.166894,0.231376 0.06322,0.09104 0.134019,0.201035 0.212412,0.329997 0.174478,0.283216 0.281948,0.513328 0.32241,0.690336 l 0.128964,-0.242756 c 0.139075,-0.275627 0.208615,-0.547462 0.208618,-0.815507 -3e-6,-0.318614 -0.0025,-0.567059 -0.0076,-0.745336 -0.0051,-0.17827 -0.01265,-0.295223 -0.02276,-0.350858 l -0.03034,-0.276893 c -3e-6,-0.02276 -0.0063,-0.05689 -0.01897,-0.102413 l -0.0531,-0.32241 0.314824,-0.417236 c -4e-6,0.02782 0.0025,0.05627 0.0076,0.08534 0.0051,0.02908 0.02023,0.07523 0.04552,0.138446 0.02528,0.0784 0.06701,0.159313 0.125171,0.242756 l 0.14793,0.159309 0.09483,0.07586 z m -0.758612,2.924448 c -0.0051,-0.04552 -0.0095,-0.07713 -0.01328,-0.09483 -0.0038,-0.0177 -0.01201,-0.04046 -0.02465,-0.06827 l -0.219997,0.235169 c -0.0354,0.03287 -0.0727,0.06322 -0.111895,0.09103 -0.0392,0.02782 -0.08029,0.05563 -0.123275,0.08345 l -0.151722,0.07586 0.261721,-0.03034 c 0.09103,-0.01011 0.168789,-0.02213 0.233273,-0.03603 0.06448,-0.01391 0.114421,-0.02971 0.149826,-0.04741 z"
         style="fill:#ffffff"
         id="path3013" />
      <path
         d="m 42.218384,15.690819 c -3e-6,0.237699 -0.03414,0.472869 -0.102413,0.705509 -0.06828,0.232641 -0.174483,0.46781 -0.318617,0.705509 -0.336319,0.548728 -0.702981,0.823092 -1.099986,0.823093 -0.177011,-1e-6 -0.422295,-0.08471 -0.735854,-0.254135 -0.313559,-0.169424 -0.470339,-0.28448 -0.470339,-0.345168 0,-0.0177 0.01644,-0.0354 0.04931,-0.0531 l 0.451374,0.182067 0.204825,0.06827 c 0.0531,0.01517 0.10494,0.02276 0.155515,0.02276 0.250341,-1e-6 0.499418,-0.08598 0.747233,-0.257928 0.311029,-0.212412 0.604358,-0.547465 0.879989,-1.005161 l 0.01897,-0.109998 c -2e-6,-0.02023 -0.0019,-0.04299 -0.0057,-0.06827 -0.0038,-0.02529 -0.01201,-0.05184 -0.02466,-0.07965 l -0.04931,-0.125171 c -0.05563,0.106207 -0.127702,0.195976 -0.216204,0.269308 -0.08092,0.05816 -0.156782,0.08724 -0.227584,0.08724 -0.108736,0 -0.211148,-0.05563 -0.307237,-0.166895 -0.08092,-0.111262 -0.12138,-0.238962 -0.121378,-0.383099 -2e-6,-0.219996 0.07586,-0.458958 0.227583,-0.716887 0.15425,-0.260455 0.280685,-0.390684 0.379306,-0.390685 0.09103,1e-6 0.204823,0.09862 0.341375,0.295858 0.149191,0.247815 0.223788,0.513328 0.223791,0.796542 z m -0.326203,-0.06827 c -0.01517,-0.128963 -0.05563,-0.237697 -0.121378,-0.326203 -0.04805,-0.07586 -0.118851,-0.123905 -0.212411,-0.144136 -0.04552,10e-7 -0.09609,0.03414 -0.151723,0.102413 -0.04046,0.07081 -0.07081,0.149194 -0.09103,0.235169 -2e-6,0.06069 0.04172,0.117586 0.125171,0.170688 0.08344,0.04552 0.161835,0.06828 0.235169,0.06827 0.08345,1e-6 0.155514,-0.0354 0.216205,-0.106206 z"
         style="fill:#ffffff"
         id="path3015" />
      <path
         d="m 39.070146,13.092575 0.170688,1.282053 0.06069,1.232744 c -3e-6,0.500684 -0.203563,0.893897 -0.610682,1.179641 -0.07839,0.0531 -0.164368,0.10178 -0.257928,0.146033 -0.09356,0.04425 -0.189655,0.08155 -0.288272,0.111895 -0.194712,0.06069 -0.405859,0.09103 -0.633441,0.09103 -0.174482,0 -0.330629,-0.02339 -0.468443,-0.07017 -0.137815,-0.04678 -0.2554,-0.115057 -0.352754,-0.204825 -0.09736,-0.08977 -0.17132,-0.197872 -0.221894,-0.324307 -0.05057,-0.126435 -0.07586,-0.269307 -0.07586,-0.428615 0,-0.250342 0.07333,-0.527234 0.219997,-0.83068 0.146665,-0.318615 0.261721,-0.48551 0.345169,-0.500684 l -0.02276,0.18586 c -0.174481,0.376778 -0.261721,0.671372 -0.261721,0.883783 0,0.209883 0.08218,0.385627 0.246549,0.527235 0.161836,0.139079 0.375512,0.208618 0.641027,0.208618 l 0.01896,0 0.182067,0 c 0.02781,0 0.05626,-6.32e-4 0.08534,-0.0019 0.02908,-0.0013 0.0727,-0.0057 0.13086,-0.01328 l 0.402064,-0.117585 c 0.05563,-0.01517 0.107468,-0.0354 0.155516,-0.06069 0.09356,-0.03793 0.184593,-0.08724 0.2731,-0.147929 0.103674,-0.06322 0.173213,-0.130228 0.208618,-0.201032 0.02275,-0.06828 0.03413,-0.195974 0.03414,-0.383099 -3e-6,-0.207353 -0.01391,-0.451373 -0.04172,-0.73206 -0.02782,-0.280685 -0.06701,-0.605623 -0.117585,-0.974816 -0.05816,-0.402062 -0.110633,-0.713092 -0.157412,-0.933093 -0.04678,-0.219993 -0.08914,-0.375508 -0.127067,-0.466546 l 0.337582,-0.45896 c 0.0531,0.169428 0.09103,0.269312 0.113792,0.299652 0.02275,0.04552 0.05563,0.09357 0.09862,0.144136 l 0.163102,0.147929 z"
         style="fill:#ffffff"
         id="path3017" />
    </g>
  </g>
</svg>
