<?xml version="1.0" encoding="UTF-8" standalone="no"?>
<!-- Created with Inkscape (http://www.inkscape.org/) -->

<svg
   xmlns:dc="http://purl.org/dc/elements/1.1/"
   xmlns:cc="http://creativecommons.org/ns#"
   xmlns:rdf="http://www.w3.org/1999/02/22-rdf-syntax-ns#"
   xmlns:svg="http://www.w3.org/2000/svg"
   xmlns="http://www.w3.org/2000/svg"
   xmlns:sodipodi="http://sodipodi.sourceforge.net/DTD/sodipodi-0.dtd"
   xmlns:inkscape="http://www.inkscape.org/namespaces/inkscape"
   width="128"
   height="32"
   id="svg2"
   version="1.1"
   inkscape:version="0.48.4 r9939"
   sodipodi:docname="D:\Thaghra\hijri_date\img\months\template.svg">
  <defs
     id="defs4" />
  <sodipodi:namedview
     id="base"
     pagecolor="#ffffff"
     bordercolor="#666666"
     borderopacity="1.0"
     inkscape:pageopacity="0.0"
     inkscape:pageshadow="2"
     inkscape:zoom="4.0546875"
     inkscape:cx="-6.5915627"
     inkscape:cy="35.701469"
     inkscape:document-units="px"
     inkscape:current-layer="layer1"
     showgrid="false"
     inkscape:window-width="1366"
     inkscape:window-height="706"
     inkscape:window-x="-8"
     inkscape:window-y="-8"
     inkscape:window-maximized="1" />
  <metadata
     id="metadata7">
    <rdf:RDF>
      <cc:Work
         rdf:about="">
        <dc:format>image/svg+xml</dc:format>
        <dc:type
           rdf:resource="http://purl.org/dc/dcmitype/StillImage" />
        <dc:title></dc:title>
      </cc:Work>
    </rdf:RDF>
  </metadata>
  <g
     inkscape:label="Layer 1"
     inkscape:groupmode="layer"
     id="layer1"
     transform="translate(0,-1020.3622)">
    <g
       transform="matrix(3.8619071,0,0,3.8619071,-115.6841,975.76571)"
       style="font-size:7.76818275000000020px;font-style:normal;font-variant:normal;font-weight:normal;font-stretch:normal;text-align:start;line-height:141.99999571000001000%;letter-spacing:0px;word-spacing:0px;writing-mode:lr-tb;text-anchor:start;fill:#ffffff;fill-opacity:1;stroke:none;font-family:KacstBook;-inkscape-font-specification:KacstBook"
       id="flowRoot2985">
      <path
         d="m 58.141641,15.998057 c -3e-6,0.480454 -0.17069,0.930563 -0.512063,1.350329 -0.321147,0.389419 -0.642292,0.584129 -0.963437,0.58413 -0.07586,-1e-6 -0.170688,-0.0196 -0.284479,-0.05879 -0.113792,-0.0392 -0.250342,-0.09925 -0.40965,-0.18017 -0.305974,-0.15931 -0.45896,-0.269308 -0.45896,-0.329996 0,-0.04046 0.01644,-0.06069 0.04931,-0.06069 0.02023,-1e-6 0.121378,0.04552 0.303445,0.13655 0.166894,0.09862 0.297123,0.147928 0.390685,0.147929 0.36919,-10e-7 0.754817,-0.18586 1.156883,-0.557579 0.356545,-0.33379 0.534819,-0.61574 0.534821,-0.845852 -2e-6,-0.0531 -0.01454,-0.11632 -0.04362,-0.189653 -0.02908,-0.07333 -0.0765,-0.152986 -0.14224,-0.238963 l -0.265514,-0.341375 0.140343,-0.5462 c 0.11379,0.08345 0.235168,0.269308 0.364134,0.557579 0.09356,0.202298 0.14034,0.393215 0.140343,0.572752 z"
         style="fill:#ffffff"
         id="path2987" />
      <path
         d="m 54.739269,16.028401 0.314823,-0.01138 c 0.0885,-0.02276 0.15109,-0.03983 0.187757,-0.05121 0.03666,-0.01138 0.06132,-0.0196 0.07396,-0.02466 0.0531,-0.01517 0.08345,-0.04299 0.09103,-0.08345 -10e-7,-0.103676 -0.0354,-0.209882 -0.106206,-0.318617 -0.01517,-0.02782 -0.03034,-0.05247 -0.04552,-0.07396 -0.01517,-0.02149 -0.02908,-0.04109 -0.04172,-0.05879 l -0.08345,-0.08724 c -10e-7,-0.03287 0.0063,-0.07207 0.01897,-0.117585 L 55.3234,14.727382 c 0.11379,0.113794 0.201031,0.233907 0.261721,0.360341 0.06069,0.126437 0.09103,0.250343 0.09103,0.37172 -10e-7,0.02276 -6.33e-4,0.05184 -0.0019,0.08724 -0.0013,0.0354 -0.0044,0.08977 -0.0095,0.163102 l -0.04552,0.212411 c -0.02276,0.09609 -0.06385,0.182067 -0.123274,0.257928 -0.05943,0.07586 -0.129597,0.142872 -0.210515,0.201032 -0.164367,0.118849 -0.36287,0.178274 -0.59551,0.178274 l -0.261721,0 0,-0.534822 z m 0.527235,1.813082 -0.493098,-0.345168 0.341375,-0.477925 0.45896,0.36034 z"
         style="fill:#ffffff"
         id="path2989" />
      <path
         d="m 52.884463,16.024608 c 0.265514,1e-6 0.472868,-0.05563 0.622062,-0.166894 l 0.333789,-0.379306 c 0.01517,10e-7 0.05689,0.09103 0.125171,0.2731 0.06827,0.182068 0.216203,0.273101 0.443788,0.2731 l 0.06827,0 0,0.534822 -0.151723,0 c -0.08598,0 -0.164367,-0.02023 -0.235169,-0.06069 l -0.102413,-0.07207 c -0.0177,-0.01264 -0.0354,-0.02782 -0.0531,-0.04552 -0.0177,-0.0177 -0.04172,-0.04425 -0.07207,-0.07965 l -0.07965,-0.125171 c -0.03034,-0.06575 -0.05563,-0.104941 -0.07586,-0.117585 -0.09609,0.111263 -0.216205,0.227584 -0.360341,0.348961 l -0.06827,0.04552 -0.128964,0.06448 -0.102412,0.03034 -0.109999,0.01138 -0.102412,0 0,-0.534822 z m 1.179641,1.998942 -0.405857,-0.299652 -0.23517,0.394478 -0.477925,-0.36034 0.276893,-0.428616 0.417237,0.303445 0.250342,-0.379306 0.470339,0.326203 z"
         style="fill:#ffffff"
         id="path2991" />
      <path
         d="m 53.768245,19.153881 c -4e-6,0.05563 -0.230116,0.165628 -0.690336,0.329996 -0.460228,0.166892 -0.838269,0.250339 -1.134124,0.250342 -0.718155,-3e-6 -1.265619,-0.16184 -1.642395,-0.485511 -0.356548,-0.303447 -0.534821,-0.728269 -0.534821,-1.274468 0,-0.45011 0.115056,-0.873668 0.345169,-1.270674 0.166893,-0.298387 0.447579,-0.630912 0.842058,-0.997575 -0.13908,-0.123905 -0.312296,-0.185858 -0.519649,-0.185859 0.06575,-0.250341 0.15425,-0.43304 0.265514,-0.548097 0.111262,-0.115055 0.237697,-0.172583 0.379306,-0.172584 0.240225,1e-6 0.424821,0.02023 0.553787,0.06069 0.28827,0.08345 0.432406,0.250343 0.432408,0.500683 -2e-6,0.07333 -0.01391,0.131494 -0.04172,0.174481 -0.01265,0.0177 -0.04299,0.04489 -0.09103,0.08155 -0.04805,0.03667 -0.112529,0.08282 -0.193446,0.138446 0.09103,0.113793 0.194708,0.189654 0.311031,0.227584 0.116318,0.02782 0.367924,0.04172 0.754819,0.04172 l 0.117584,0 0,0.534822 -0.102412,0 c -0.429883,0 -0.72827,-0.03035 -0.895162,-0.09103 -0.222528,-0.07586 -0.412181,-0.260456 -0.568958,-0.553786 -0.366664,0.166895 -0.671373,0.410914 -0.914127,0.73206 -0.240228,0.323674 -0.360342,0.654934 -0.360341,0.993781 -10e-7,0.475395 0.135285,0.837 0.405857,1.084815 0.356546,0.318614 0.945734,0.477922 1.767565,0.477925 l 0.504477,0 c 0.04298,-3e-6 0.07712,-0.0013 0.102413,-0.0038 0.02528,-0.0025 0.05942,-0.0089 0.102412,-0.01896 l 0.307238,-0.01138 c 0.07333,-0.0051 0.134017,-0.01138 0.182067,-0.01897 0.04804,-0.0076 0.08913,-0.01328 0.123274,-0.01707 0.03413,-0.0038 0.06574,-0.0044 0.09483,-0.0019 0.02908,0.0025 0.06132,0.01011 0.09672,0.02276 z"
         style="fill:#ffffff"
         id="path2993" />
      <path
         d="m 46.933155,16.202882 -0.02276,0.09483 c -0.03793,0.204825 -0.08851,0.31103 -0.151722,0.318616 -0.0354,0 -0.0531,-0.120113 -0.0531,-0.36034 l 0,-0.216204 c -10e-7,-0.11632 -0.0051,-0.183331 -0.01517,-0.201033 -0.02782,-0.305972 -0.0569,-0.595508 -0.08724,-0.86861 -0.03034,-0.273098 -0.06322,-0.536083 -0.09862,-0.788956 l -0.125171,-0.921713 0.0569,-0.166894 0.303444,-0.515856 0,0.432408 0.178274,1.83584 c 0.02023,0.245286 0.03603,0.445686 0.04741,0.6012 0.01138,0.155516 0.01707,0.272469 0.01707,0.350858 z"
         style="fill:#ffffff"
         id="path2995" />
      <path
         d="m 44.353876,11.670178 c -2e-6,0.02529 -0.02276,0.08724 -0.06827,0.18586 -0.03793,0.09104 -0.09103,0.163106 -0.159308,0.216204 -0.05816,0.04299 -0.128334,0.08598 -0.210515,0.128964 -0.08219,0.04299 -0.176379,0.08598 -0.282583,0.128964 l -0.2731,0.06069 c -0.09103,0.01518 -0.178275,0.02276 -0.261721,0.02276 l -0.394478,-0.04172 c -0.03793,5e-6 -0.08218,0.01391 -0.132757,0.04172 l -0.109999,0.08724 -0.07586,0.09103 -0.02276,-0.174481 0.02655,-0.07207 c 0.01264,-0.02528 0.02718,-0.05247 0.04362,-0.08155 0.01644,-0.02907 0.0373,-0.06005 0.06259,-0.09293 0.04299,-0.06574 0.0923,-0.116316 0.147929,-0.151722 0.05563,-0.0354 0.109998,-0.0531 0.163101,-0.0531 l 0.250342,0.04931 0.231377,0.03035 c 0.11379,4e-6 0.222525,-0.0076 0.326203,-0.02276 0.103675,-0.01517 0.194709,-0.04046 0.2731,-0.07586 l 0.09483,-0.03793 c 0.04804,-0.0177 0.0923,-0.04172 0.132757,-0.07207 0.06069,-0.03793 0.112526,-0.08218 0.155516,-0.132757 l 0.06448,-0.0569 z m 1.266882,1.41481 -0.04552,0.637234 c -4e-6,0.121381 -0.0025,0.223793 -0.0076,0.307238 -0.0051,0.08345 -0.01265,0.152989 -0.02276,0.208618 -0.0076,0.08092 -0.01707,0.156782 -0.02845,0.227583 -0.01138,0.07081 -0.02592,0.137817 -0.04362,0.201033 -0.03035,0.174482 -0.09989,0.35402 -0.208618,0.538614 l -0.109999,0.178274 c -0.01517,0.02529 -0.03288,0.05058 -0.0531,0.07586 -0.02023,0.02529 -0.04299,0.05184 -0.06827,0.07965 l 0.07965,0.276893 0.03414,0.292066 0,0.08345 c -3e-6,0.113792 -0.0076,0.217469 -0.02276,0.311031 -0.0076,0.08598 -0.03288,0.139078 -0.07586,0.159308 -0.03793,0.02023 -0.126438,0.04488 -0.265514,0.07397 -0.139081,0.02908 -0.335056,0.05373 -0.587924,0.07396 l -0.701716,0.06069 0.117585,-0.561372 0.163101,-0.04172 c 0.04804,-0.01011 0.103043,-0.02845 0.164998,-0.055 0.06195,-0.02655 0.113158,-0.05626 0.153619,-0.08914 0.311029,-0.212411 0.515854,-0.413443 0.614476,-0.603096 l -0.01897,-0.06448 c 0.0025,10e-7 -6.34e-4,-0.01075 -0.0095,-0.03224 -0.0089,-0.02149 -0.0196,-0.04552 -0.03224,-0.07207 -0.01265,-0.02655 -0.02592,-0.05247 -0.03983,-0.07776 -0.01391,-0.02529 -0.02592,-0.04299 -0.03603,-0.0531 -0.02782,-0.05816 -0.06512,-0.122009 -0.111895,-0.191549 -0.04678,-0.06954 -0.101782,-0.144767 -0.164998,-0.225687 l -0.197239,-0.242756 c -0.0354,-0.03793 -0.07207,-0.07649 -0.109998,-0.115688 -0.03793,-0.03919 -0.07839,-0.08028 -0.121378,-0.123275 -0.08092,-0.07839 -0.161207,-0.150455 -0.24086,-0.216204 -0.07965,-0.06574 -0.159941,-0.123904 -0.240859,-0.174481 l -0.132757,0.166895 c -0.03034,2e-6 -0.08345,-0.01896 -0.159308,-0.0569 -0.0354,-0.02276 -0.07713,-0.0512 -0.125171,-0.08534 -0.04805,-0.03414 -0.09736,-0.07523 -0.147929,-0.123274 -0.05816,-0.0531 -0.09925,-0.103042 -0.123275,-0.149826 -0.02402,-0.04678 -0.03603,-0.09166 -0.03603,-0.134654 l 0,-0.235169 c 0,-0.02023 0.0019,-0.04046 0.0057,-0.06069 0.0038,-0.02023 0.01201,-0.05563 0.02466,-0.106206 0.03793,-0.212407 0.101147,-0.318613 0.189653,-0.318617 0.02276,4e-6 0.131491,0.07207 0.326203,0.216205 0.161836,0.136553 0.343902,0.303448 0.5462,0.500683 0.08597,0.08092 0.166261,0.162473 0.240859,0.244653 0.0746,0.08219 0.144767,0.165 0.210515,0.248445 0.04804,0.06322 0.103675,0.140345 0.166894,0.231376 0.06322,0.09104 0.134019,0.201035 0.212412,0.329997 0.174478,0.283216 0.281948,0.513328 0.32241,0.690336 l 0.102412,-0.197239 c 0.02276,-0.04804 0.04488,-0.09293 0.06638,-0.134653 0.02149,-0.04172 0.0512,-0.105572 0.08914,-0.19155 0.02023,-0.08092 0.03666,-0.149824 0.04931,-0.206722 0.01264,-0.05689 0.02276,-0.105571 0.03035,-0.146032 0.0076,-0.04046 0.01264,-0.07523 0.01517,-0.104309 0.0025,-0.02908 0.0038,-0.055 0.0038,-0.07776 -3e-6,-0.290799 -0.0025,-0.531658 -0.0076,-0.722578 -0.0051,-0.190914 -0.01517,-0.334418 -0.03034,-0.430512 l -0.09862,-0.64482 0.299651,-0.417236 c -3e-6,0.02782 0.0025,0.05627 0.0076,0.08534 0.0051,0.02908 0.02023,0.07523 0.04552,0.138446 0.0076,0.02023 0.01643,0.0411 0.02655,0.06259 0.01011,0.0215 0.02528,0.04742 0.04552,0.07776 0.02023,0.03035 0.04615,0.06638 0.07776,0.108102 0.03161,0.04173 0.0727,0.09293 0.123274,0.153619 l 0.09483,0.07586 z m -0.754819,2.916862 c -3e-6,-0.02276 -0.0025,-0.04678 -0.0076,-0.07207 -3e-6,-0.03287 -0.0089,-0.06575 -0.02655,-0.09862 l -0.227583,0.250342 -0.193446,0.151723 -0.06827,0.03793 -0.147929,0.06448 0.276893,-0.02655 c 0.18965,-0.01517 0.321143,-0.04299 0.394478,-0.08345 z"
         style="fill:#ffffff"
         id="path2997" />
      <path
         d="m 39.092904,14.131872 -0.493097,-0.345168 0.341375,-0.481718 0.45896,0.36034 z m -1.338949,1.892736 c 0.379305,1e-6 0.713094,-0.04172 1.001367,-0.125171 l 0.914127,-0.318616 -0.333789,-0.14793 -0.303445,-0.109998 -0.109998,-0.03035 -0.364134,-0.0569 c -0.09862,2e-6 -0.178274,0.0038 -0.238963,0.01138 -0.02023,2e-6 -0.03793,6.34e-4 -0.0531,0.0019 -0.01517,0.0013 -0.02908,0.0032 -0.04172,0.0057 l -0.13655,0.03414 -0.102413,-0.0038 c 0.04804,-0.121376 0.09799,-0.225685 0.149826,-0.312927 0.05184,-0.08724 0.108734,-0.158043 0.170688,-0.212412 0.06195,-0.05436 0.130227,-0.09419 0.204825,-0.119481 0.0746,-0.02529 0.157411,-0.03793 0.248445,-0.03793 0.121377,0.05563 0.237697,0.106839 0.348961,0.153618 0.111262,0.04678 0.219996,0.0904 0.326203,0.130861 l 0.652406,0.242756 c 0.455165,0.166895 0.91286,0.250343 1.373087,0.250341 l -0.352754,0.591718 -0.367927,-0.08345 -0.208618,-0.04172 -0.231376,0 -0.113792,0 -0.269307,0.03034 c -0.01517,0.0025 -0.03224,0.007 -0.05121,0.01328 -0.01897,0.0063 -0.03983,0.01454 -0.06259,0.02465 l -0.584131,0.201032 -0.671371,0.261721 c -0.308503,0.121378 -0.542408,0.182067 -0.701716,0.182067 l -0.144136,0 0,-0.534822 z"
         style="fill:#ffffff"
         id="path2999" />
      <path
         d="m 37.522578,16.55943 c -0.04552,0.237698 -0.128966,0.489303 -0.250342,0.754818 -0.0177,0.04046 -0.03856,0.08534 -0.06258,0.134654 -0.02403,0.04931 -0.05247,0.105572 -0.08534,0.168791 -0.0177,0.0354 -0.04046,0.0746 -0.06827,0.117584 -0.02782,0.04299 -0.06196,0.08977 -0.102412,0.140344 -0.25793,0.376775 -0.587926,0.565163 -0.989989,0.565165 -0.134022,-2e-6 -0.356547,-0.09483 -0.667578,-0.284479 -0.255399,-0.15931 -0.383098,-0.285745 -0.383099,-0.379306 10e-7,-0.01012 0.0019,-0.01897 0.0057,-0.02655 0.0038,-0.0076 0.01581,-0.0177 0.03603,-0.03035 0.03034,-1e-6 0.07965,0.02276 0.147929,0.06827 0.260457,0.182066 0.414708,0.276892 0.462753,0.28448 0.149193,-2e-6 0.327467,-0.04046 0.534821,-0.121378 0.199767,-0.08345 0.364133,-0.182068 0.493098,-0.295859 l 0.212411,-0.216204 0.182067,-0.208618 c 0.07586,-0.09103 0.132755,-0.178274 0.170688,-0.261721 l 0.06069,-0.201032 c -2e-6,-0.171952 -0.04678,-0.308502 -0.140344,-0.409651 l -0.276893,-0.318616 0.208618,-0.50827 0.394478,0.432408 c 0.05563,0.04046 0.128962,0.06069 0.219998,0.06069 l 0.155515,0 0,0.534822 z"
         style="fill:#ffffff"
         id="path3001" />
    </g>
  </g>
</svg>
