<?xml version="1.0" encoding="UTF-8" standalone="no"?>
<!-- Created with Inkscape (http://www.inkscape.org/) -->

<svg
   xmlns:dc="http://purl.org/dc/elements/1.1/"
   xmlns:cc="http://creativecommons.org/ns#"
   xmlns:rdf="http://www.w3.org/1999/02/22-rdf-syntax-ns#"
   xmlns:svg="http://www.w3.org/2000/svg"
   xmlns="http://www.w3.org/2000/svg"
   xmlns:sodipodi="http://sodipodi.sourceforge.net/DTD/sodipodi-0.dtd"
   xmlns:inkscape="http://www.inkscape.org/namespaces/inkscape"
   width="128"
   height="32"
   id="svg2"
   version="1.1"
   inkscape:version="0.48.4 r9939"
   sodipodi:docname="D:\Thaghra\hijri_date\img\months\template.svg">
  <defs
     id="defs4" />
  <sodipodi:namedview
     id="base"
     pagecolor="#ffffff"
     bordercolor="#666666"
     borderopacity="1.0"
     inkscape:pageopacity="0.0"
     inkscape:pageshadow="2"
     inkscape:zoom="4.0546875"
     inkscape:cx="23.687227"
     inkscape:cy="35.701469"
     inkscape:document-units="px"
     inkscape:current-layer="layer1"
     showgrid="false"
     inkscape:window-width="1366"
     inkscape:window-height="706"
     inkscape:window-x="-8"
     inkscape:window-y="-8"
     inkscape:window-maximized="1" />
  <metadata
     id="metadata7">
    <rdf:RDF>
      <cc:Work
         rdf:about="">
        <dc:format>image/svg+xml</dc:format>
        <dc:type
           rdf:resource="http://purl.org/dc/dcmitype/StillImage" />
        <dc:title></dc:title>
      </cc:Work>
    </rdf:RDF>
  </metadata>
  <g
     inkscape:label="Layer 1"
     inkscape:groupmode="layer"
     id="layer1"
     transform="translate(0,-1020.3622)">
    <g
       transform="matrix(3.8619071,0,0,3.8619071,-101.11623,978.51962)"
       style="font-size:7.76818275000000020px;font-style:normal;font-variant:normal;font-weight:normal;font-stretch:normal;text-align:start;line-height:141.99999571000001000%;letter-spacing:0px;word-spacing:0px;writing-mode:lr-tb;text-anchor:start;fill:#ffffff;fill-opacity:1;stroke:none;font-family:KacstBook;-inkscape-font-specification:KacstBook"
       id="flowRoot2985">
      <path
         d="m 54.640649,16.024608 c 0.113792,1e-6 0.219998,-0.0025 0.318617,-0.0076 0.09862,-0.0051 0.192181,-0.01264 0.280687,-0.02276 0.08597,-0.01011 0.171319,-0.02592 0.256031,-0.04741 0.08471,-0.02149 0.170054,-0.04868 0.256031,-0.08155 l 0.701716,-0.257928 0.182067,-0.07965 -0.504477,-0.189653 -0.178273,-0.0531 -0.261721,-0.0531 -0.155516,-0.01896 -0.204825,0 c -0.02782,10e-7 -0.05437,0.0025 -0.07965,0.0076 l -0.132757,0.02276 -0.227584,0.06069 0.109999,-0.341375 c 0.139078,-0.23011 0.324938,-0.345166 0.557579,-0.345168 0.06322,2e-6 0.140975,0.01454 0.233274,0.04362 0.0923,0.02908 0.202927,0.07523 0.331892,0.138447 l 0.834473,0.348961 c 0.235167,0.09103 0.42482,0.151724 0.568959,0.182067 l 0.40965,0.0569 0.22379,0.01896 0.23517,0 -0.326203,0.527235 -0.383099,-0.07586 -0.500684,-0.02655 -0.257928,0.01138 -0.132757,0.01896 c -0.01517,0.0025 -0.03224,0.0063 -0.05121,0.01138 -0.01897,0.0051 -0.04236,0.0089 -0.07017,0.01138 l -1.407225,0.565166 -0.307238,0.07965 -0.128964,0.02276 -0.106205,0.0076 -0.13655,0 0,-0.534822 z m 1.957218,1.638601 -0.493097,-0.348961 0.341375,-0.477925 0.455167,0.36034 z"
         style="fill:#ffffff"
         id="path3004" />
      <path
         d="m 51.761719,16.024608 c 0.0177,1e-6 0.03919,0.0025 0.06448,0.0076 0.146664,1e-6 0.257927,-0.01644 0.333789,-0.04931 0.121377,-0.04552 0.213674,-0.132757 0.276893,-0.261721 l 0.02655,-0.06827 0.03035,-0.0569 c 0.0177,-0.04046 0.04299,-0.07713 0.07586,-0.109999 0.121377,-0.121377 0.271834,-0.230111 0.451374,-0.326203 l 0.121378,-0.0531 0.121378,-0.04552 c 0.06827,-0.02276 0.137812,-0.03414 0.208618,-0.03414 0.09609,2e-6 0.144134,0.04805 0.144136,0.144136 l 0,0.06448 -0.0076,0.07586 c -2e-6,0.04299 0.01011,0.0904 0.03034,0.14224 0.02023,0.05184 0.0512,0.10431 0.09293,0.157412 0.04172,0.0531 0.09419,0.105574 0.157412,0.157412 0.06321,0.05184 0.136548,0.09799 0.219997,0.138447 l 0.113792,0.04552 0.147929,0.04931 c 0.05563,0.01517 0.116318,0.02276 0.182067,0.02276 l 0.117585,0 0,0.534822 -0.189653,0 c -0.03288,0 -0.07144,-0.007 -0.115688,-0.02086 -0.04425,-0.01391 -0.09546,-0.0373 -0.153619,-0.07017 l -0.326203,-0.18586 c -0.0177,1e-6 -0.0569,0.08345 -0.117585,0.250342 -0.03793,0.144136 -0.06828,0.225055 -0.09103,0.242756 L 53.11584,16.46081 c -0.386893,-0.204825 -0.596775,-0.31103 -0.629647,-0.318617 -0.07839,1e-6 -0.14793,0.03035 -0.208619,0.09103 l -0.132757,0.166894 c -0.0531,0.05563 -0.120114,0.09736 -0.201032,0.125171 l -0.113791,0.02276 -0.08724,0.01138 -0.227583,0 0,-0.534822 z m 1.729634,-0.242755 c -0.06069,-0.179538 -0.141609,-0.269306 -0.242756,-0.269307 -0.13908,10e-7 -0.251607,0.02782 -0.337582,0.08345 -0.08851,0.0531 -0.132758,0.101149 -0.132757,0.144136 -10e-7,0.0177 0.08471,0.08092 0.254135,0.189653 0.159307,0.08345 0.281949,0.128964 0.367927,0.13655 0.04046,0 0.07333,0.0025 0.09862,0.0076 l 0.06069,-0.01896 z"
         style="fill:#ffffff"
         id="path3006" />
      <path
         d="m 51.591031,16.55943 c -0.283217,0 -0.51965,-0.09483 -0.709302,-0.28448 -0.08345,-0.09609 -0.144769,-0.214939 -0.183963,-0.356547 -0.0392,-0.141607 -0.06385,-0.295858 -0.07397,-0.462753 l -0.03034,-0.591717 -0.06448,-0.60689 c -0.02782,-0.336315 -0.05753,-0.617633 -0.08914,-0.843955 -0.03161,-0.226316 -0.06511,-0.405222 -0.100516,-0.536718 l 0.2731,-0.534821 c 0.02023,0.05816 0.04236,0.154887 0.06638,0.290169 0.02402,0.135289 0.04362,0.314195 0.05879,0.536718 l 0.07965,1.19102 0,0.356547 0.04172,0.451374 0.04172,0.28448 c 0.01517,0.134022 0.09103,0.262986 0.227584,0.386891 0.131491,0.123908 0.297121,0.185861 0.49689,0.18586 l 0.0531,0 0,0.534822 z"
         style="fill:#ffffff"
         id="path3008" />
      <path
         d="m 48.617272,15.72875 c -2e-6,0.268043 -0.140345,0.481719 -0.421029,0.641027 -0.128966,0.0708 -0.280056,0.128331 -0.45327,0.172584 -0.173218,0.04425 -0.350859,0.06638 -0.532925,0.06638 -0.146666,0 -0.254768,-0.01138 -0.324307,-0.03414 -0.06954,-0.02276 -0.111895,-0.06701 -0.127067,-0.132757 l 0,-0.121378 c 0,-0.05057 0.0025,-0.08851 0.0076,-0.113792 0,-0.0354 6.32e-4,-0.06322 0.0019,-0.08345 0.0013,-0.02023 0.0032,-0.0354 0.0057,-0.04552 l 0.01138,-0.07207 0.02655,-0.08345 0.09103,0.04552 0.140343,0.04552 0.144137,0.02276 0.147929,0.01138 c 0.146664,0 0.34896,-0.03667 0.606889,-0.109999 0.293328,-0.0885 0.439993,-0.184595 0.439995,-0.288272 -2e-6,-0.118849 -0.09103,-0.2908 -0.2731,-0.515856 -0.17954,-0.225053 -0.350227,-0.366661 -0.512063,-0.424823 l 0,-0.466546 0.0076,-0.106206 c 0.0076,-0.04551 0.02655,-0.07207 0.0569,-0.07965 0.123905,3e-6 0.29965,0.155518 0.527235,0.466546 0.126433,0.171954 0.23011,0.362871 0.311031,0.572752 0.07839,0.202298 0.117582,0.413444 0.117584,0.633441 z"
         style="fill:#ffffff"
         id="path3010" />
      <path
         d="m 46.398333,14.363249 c -4e-6,0.07334 -0.01265,0.149196 -0.03793,0.227583 l -0.03414,0.102413 c -0.06069,-0.02781 -0.120117,-0.05057 -0.178274,-0.06827 l -0.182066,-0.03414 c -0.235173,2e-6 -0.486779,0.115058 -0.754819,0.345169 -0.268045,0.230113 -0.402066,0.445053 -0.402064,0.64482 -2e-6,0.101149 0.07207,0.182067 0.216204,0.242755 0.159306,0.05058 0.341373,0.07586 0.546201,0.07586 0.262982,10e-7 0.450106,0.03793 0.561372,0.113792 0.07333,0.05816 0.109995,0.139079 0.109999,0.242756 -4e-6,0.227583 -0.04046,0.412179 -0.121378,0.553786 -0.07587,0.141607 -0.232644,0.29333 -0.470339,0.455167 -0.273103,0.187124 -0.576548,0.337581 -0.910334,0.451374 -0.333791,0.116319 -0.673902,0.17448 -1.020333,0.174481 -0.351491,-10e-7 -0.63597,-0.08598 -0.853438,-0.257928 -0.240227,-0.189654 -0.36034,-0.452639 -0.36034,-0.788956 0,-0.285744 0.08345,-0.614475 0.250342,-0.986195 0.144135,-0.313559 0.251605,-0.470338 0.32241,-0.470339 0.01264,10e-7 0.02529,0.01391 0.03793,0.04172 -0.05057,0.131494 -0.09356,0.243389 -0.128964,0.335686 -0.0354,0.0923 -0.06448,0.172585 -0.08724,0.240859 -0.06069,0.182067 -0.09103,0.338847 -0.09103,0.470339 0,0.326203 0.132757,0.565165 0.398272,0.716888 0.197238,0.113791 0.493096,0.170687 0.887575,0.170688 0.311029,-1e-6 0.701713,-0.106207 1.172055,-0.318617 0.470336,-0.207354 0.705505,-0.362869 0.705509,-0.466546 -0.03541,-0.06827 -0.07713,-0.118849 -0.125171,-0.151723 l -0.144136,-0.01517 -0.257928,-0.01138 c -0.308505,0 -0.54241,-0.03667 -0.701716,-0.109999 -0.06322,-0.03287 -0.116323,-0.08724 -0.159308,-0.163101 -0.0354,-0.09103 -0.0531,-0.183331 -0.0531,-0.276893 -2e-6,-0.333788 0.179536,-0.721944 0.538614,-1.164469 0.359073,-0.442521 0.676425,-0.663783 0.952058,-0.663785 l 0.227583,0.01138 c 0.09862,0.03035 0.147925,0.09736 0.147929,0.201032 z"
         style="fill:#ffffff"
         id="path3012" />
      <path
         d="m 39.878067,16.202882 -0.02276,0.09483 c -0.03793,0.204825 -0.08851,0.31103 -0.151723,0.318616 -0.0354,0 -0.0531,-0.120113 -0.0531,-0.36034 l 0,-0.216204 c -10e-7,-0.11632 -0.0051,-0.183331 -0.01517,-0.201033 -0.02782,-0.305972 -0.0569,-0.595508 -0.08724,-0.86861 -0.03034,-0.273098 -0.06322,-0.536083 -0.09862,-0.788956 l -0.125171,-0.921713 0.0569,-0.166894 0.303444,-0.515856 0,0.432408 0.178274,1.83584 c 0.02023,0.245286 0.03603,0.445686 0.04741,0.6012 0.01138,0.155516 0.01707,0.272469 0.01707,0.350858 z"
         style="fill:#ffffff"
         id="path3014" />
      <path
         d="m 36.308799,12.390859 c -0.08598,4e-6 -0.184596,0.02023 -0.295858,0.06069 l -0.174481,0.06069 -0.163101,0.07207 c -0.06828,0.03288 -0.150459,0.09736 -0.246549,0.193446 -0.0051,0.01518 -0.02276,0.02908 -0.0531,0.04172 l 0,-0.102412 c 0.01517,-0.07333 0.04488,-0.136546 0.08914,-0.189653 0.04425,-0.0531 0.106837,-0.09609 0.187756,-0.128964 -0.09609,-0.01517 -0.179538,-0.04551 -0.250342,-0.09103 -0.0708,-0.04551 -0.106205,-0.103673 -0.106205,-0.174481 0,-0.06068 0.01138,-0.125167 0.03414,-0.193446 0.02276,-0.06827 0.06448,-0.144132 0.125171,-0.227584 0.123906,-0.177004 0.2731,-0.265509 0.447581,-0.265514 0.0177,5e-6 0.03919,0.0025 0.06448,0.0076 0.0177,6e-6 0.03919,0.0089 0.06448,0.02655 0.0708,0.04046 0.106205,0.101153 0.106206,0.182067 L 36.02432,11.87121 c -0.0076,-0.03287 -0.04046,-0.06321 -0.09862,-0.09103 -0.0531,-0.03034 -0.101148,-0.0493 -0.144136,-0.0569 -0.03287,4e-6 -0.06448,0.0044 -0.09483,0.01328 -0.03034,0.0089 -0.05816,0.0234 -0.08345,0.04362 -0.04552,0.02023 -0.07839,0.05311 -0.09862,0.09862 0,0.05817 0.04678,0.121382 0.140343,0.189653 0.09103,0.05311 0.17448,0.07966 0.250342,0.07965 0.06575,4e-6 0.128331,-0.0025 0.187756,-0.0076 0.05942,-0.0051 0.114423,-0.01137 0.164998,-0.01896 l 0.227584,-0.03034 z m 2.370661,0.694129 -0.04552,0.637234 c -4e-6,0.121381 -0.0025,0.223793 -0.0076,0.307238 -0.0051,0.08345 -0.01265,0.152989 -0.02276,0.208618 -0.0076,0.08092 -0.01707,0.156782 -0.02845,0.227583 -0.01138,0.07081 -0.02592,0.137817 -0.04362,0.201033 -0.03035,0.174482 -0.09989,0.35402 -0.208618,0.538614 l -0.109999,0.178274 c -0.01517,0.02529 -0.03288,0.05058 -0.0531,0.07586 -0.02023,0.02529 -0.04299,0.05184 -0.06827,0.07965 l 0.07965,0.276893 0.03414,0.292066 0,0.08345 c -3e-6,0.113792 -0.0076,0.217469 -0.02276,0.311031 -0.0076,0.08598 -0.03288,0.139078 -0.07586,0.159308 -0.03793,0.02023 -0.126438,0.04488 -0.265514,0.07397 -0.139082,0.02908 -0.335056,0.05373 -0.587924,0.07396 l -0.701716,0.06069 0.117585,-0.561372 0.07207,-0.01517 0.09103,-0.02655 c 0.04804,-0.01011 0.103043,-0.02845 0.164998,-0.055 0.06195,-0.02655 0.113158,-0.05626 0.153619,-0.08914 0.311029,-0.212411 0.515854,-0.413443 0.614476,-0.603096 l -0.01897,-0.06448 c -0.0051,-0.01517 -0.01265,-0.0354 -0.02276,-0.06069 -0.01012,-0.02529 -0.0215,-0.04994 -0.03414,-0.07397 -0.01265,-0.02402 -0.02466,-0.04615 -0.03603,-0.06638 -0.01138,-0.02023 -0.0196,-0.03161 -0.02466,-0.03414 -0.02782,-0.05816 -0.06512,-0.122009 -0.111895,-0.191549 -0.04678,-0.06954 -0.101782,-0.144767 -0.164998,-0.225687 l -0.197239,-0.242756 c -0.0354,-0.03793 -0.07207,-0.07649 -0.109998,-0.115688 -0.03793,-0.03919 -0.07839,-0.08028 -0.121378,-0.123275 -0.08092,-0.07839 -0.161207,-0.150455 -0.24086,-0.216204 -0.07965,-0.06574 -0.159941,-0.123904 -0.240859,-0.174481 l -0.132757,0.166895 c -0.03034,2e-6 -0.08345,-0.01896 -0.159308,-0.0569 -0.06828,-0.04551 -0.152988,-0.115053 -0.254135,-0.208618 -0.11885,-0.11126 -0.178274,-0.206087 -0.178274,-0.28448 l 0,-0.235169 c 0,-0.02023 0.0019,-0.04046 0.0057,-0.06069 0.0038,-0.02023 0.01201,-0.05563 0.02466,-0.106206 0.03793,-0.212407 0.101147,-0.318613 0.189653,-0.318617 0.02276,4e-6 0.131491,0.07207 0.326203,0.216205 0.161835,0.136553 0.343902,0.303448 0.5462,0.500683 0.08597,0.08092 0.166261,0.162473 0.240859,0.244653 0.0746,0.08219 0.144766,0.165 0.210515,0.248445 0.04804,0.06322 0.103675,0.140345 0.166894,0.231376 0.06322,0.09104 0.134019,0.201035 0.212412,0.329997 0.174478,0.283216 0.281948,0.513328 0.32241,0.690336 l 0.128964,-0.242756 c 0.139075,-0.275627 0.208615,-0.547462 0.208618,-0.815507 -3e-6,-0.318614 -0.0025,-0.567059 -0.0076,-0.745336 -0.0051,-0.17827 -0.01265,-0.295223 -0.02276,-0.350858 l -0.03034,-0.276893 c -3e-6,-0.02276 -0.0063,-0.05689 -0.01897,-0.102413 l -0.0531,-0.32241 0.314823,-0.417236 c -3e-6,0.02782 0.0025,0.05627 0.0076,0.08534 0.0051,0.02908 0.02023,0.07523 0.04552,0.138446 0.02528,0.0784 0.06701,0.159313 0.125171,0.242756 l 0.147929,0.159309 0.09483,0.07586 z m -0.758611,2.924448 c -0.0051,-0.04552 -0.0095,-0.07713 -0.01328,-0.09483 -0.0038,-0.0177 -0.01201,-0.04046 -0.02466,-0.06827 l -0.219997,0.235169 c -0.0354,0.03287 -0.0727,0.06322 -0.111895,0.09103 -0.0392,0.02782 -0.08029,0.05563 -0.123275,0.08345 l -0.151722,0.07586 0.261721,-0.03034 c 0.09103,-0.01011 0.168789,-0.02213 0.233273,-0.03603 0.06448,-0.01391 0.114421,-0.02971 0.149826,-0.04741 z"
         style="fill:#ffffff"
         id="path3016" />
      <path
         d="m 35.163296,15.690819 c -3e-6,0.237699 -0.03414,0.472869 -0.102413,0.705509 -0.06828,0.232641 -0.174483,0.46781 -0.318617,0.705509 -0.336319,0.548728 -0.702981,0.823092 -1.099987,0.823093 -0.17701,-1e-6 -0.422294,-0.08471 -0.735853,-0.254135 -0.313559,-0.169424 -0.470339,-0.28448 -0.470339,-0.345168 0,-0.0177 0.01644,-0.0354 0.04931,-0.0531 l 0.451374,0.182067 0.204825,0.06827 c 0.0531,0.01517 0.10494,0.02276 0.155515,0.02276 0.250341,-1e-6 0.499418,-0.08598 0.747233,-0.257928 0.311029,-0.212412 0.604358,-0.547465 0.879989,-1.005161 l 0.01897,-0.109998 c -2e-6,-0.02023 -0.0019,-0.04299 -0.0057,-0.06827 -0.0038,-0.02529 -0.01201,-0.05184 -0.02466,-0.07965 l -0.04931,-0.125171 c -0.05563,0.106207 -0.127702,0.195976 -0.216204,0.269308 -0.08092,0.05816 -0.156782,0.08724 -0.227584,0.08724 -0.108736,0 -0.211148,-0.05563 -0.307237,-0.166895 -0.08092,-0.111262 -0.12138,-0.238962 -0.121378,-0.383099 -2e-6,-0.219996 0.07586,-0.458958 0.227583,-0.716887 0.154249,-0.260455 0.280685,-0.390684 0.379306,-0.390685 0.09103,1e-6 0.204823,0.09862 0.341375,0.295858 0.149191,0.247815 0.223788,0.513328 0.223791,0.796542 z m -0.326203,-0.06827 c -0.01518,-0.128963 -0.05563,-0.237697 -0.121378,-0.326203 -0.04805,-0.07586 -0.118851,-0.123905 -0.212411,-0.144136 -0.04552,10e-7 -0.09609,0.03414 -0.151723,0.102413 -0.04046,0.07081 -0.07081,0.149194 -0.09103,0.235169 -2e-6,0.06069 0.04172,0.117586 0.125171,0.170688 0.08344,0.04552 0.161835,0.06828 0.235169,0.06827 0.08345,1e-6 0.155514,-0.0354 0.216205,-0.106206 z"
         style="fill:#ffffff"
         id="path3018" />
      <path
         d="m 31.252653,16.024608 c 0.161837,1e-6 0.295226,-0.03793 0.400168,-0.113791 0.10494,-0.07586 0.157411,-0.19471 0.157412,-0.356548 -1e-6,-0.166893 -0.0569,-0.610681 -0.170688,-1.331363 -0.116321,-0.725736 -0.209883,-1.179638 -0.280686,-1.361708 l 0.333789,-0.462753 0.128964,0.326203 c 0.0531,0.108738 0.144135,0.189656 0.2731,0.242756 l -0.280686,0.512062 0.02655,0.314824 0.13655,0.788956 0.0531,0.45896 c 0.01517,0.151724 0.02276,0.27563 0.02276,0.37172 -2e-6,0.108735 -0.02655,0.261722 -0.07965,0.45896 -0.04805,0.184596 -0.107471,0.327468 -0.178273,0.428616 -0.03287,0.04552 -0.08724,0.08787 -0.163102,0.127067 -0.07586,0.03919 -0.174481,0.06891 -0.295858,0.08914 l -0.238963,0.04172 -0.329996,0 0,-0.534822 z"
         style="fill:#ffffff"
         id="path3020" />
      <path
         d="m 30.224735,16.55943 c -0.07587,0 -0.18207,0.01517 -0.318617,0.04552 -0.134024,0.03034 -0.201035,0.06827 -0.201032,0.113792 l 0.03793,0.02655 0.125171,0.07207 0.13655,0.03793 0.257928,0.04552 0.364134,0.09483 c 0.04046,0.02529 0.08344,0.08977 0.128964,0.193446 -4e-6,0.121377 -0.01581,0.222525 -0.04741,0.303445 -0.03161,0.08092 -0.0765,0.146664 -0.134653,0.197239 L 30.2437,17.966654 c -0.116324,0.08598 -0.257299,0.161836 -0.422926,0.227583 -0.165633,0.06574 -0.339481,0.122641 -0.521546,0.170688 -0.376778,0.09609 -0.718153,0.144134 -1.024125,0.144136 -0.09104,-2e-6 -0.173218,-0.0051 -0.246549,-0.01517 -0.07333,-0.01012 -0.14224,-0.02466 -0.206722,-0.04362 -0.06448,-0.01897 -0.125171,-0.04362 -0.182066,-0.07396 -0.0569,-0.03035 -0.115689,-0.06701 -0.176378,-0.109998 -0.232641,-0.187126 -0.348961,-0.438732 -0.348961,-0.754819 0,-0.298388 0.08092,-0.604361 0.242756,-0.91792 0.141607,-0.278157 0.249077,-0.417236 0.32241,-0.417236 l -0.02276,0.17448 c -0.179538,0.354019 -0.269307,0.619533 -0.269307,0.796542 0,0.318616 0.126435,0.549993 0.379306,0.69413 0.09103,0.05057 0.198503,0.09166 0.32241,0.123274 0.123905,0.03161 0.265513,0.04741 0.424822,0.04741 l 0.0569,0 c 0.03034,-2e-6 0.04931,-0.0013 0.0569,-0.0038 l 0.231377,-0.01138 c 0.05057,-0.0051 0.09356,-0.01075 0.128964,-0.01707 0.0354,-0.0063 0.07712,-0.01454 0.125171,-0.02465 0.0885,-0.01517 0.182696,-0.03667 0.282582,-0.06448 0.09988,-0.02782 0.210513,-0.06195 0.331893,-0.102413 0.447578,-0.151723 0.675161,-0.256664 0.68275,-0.314824 -3e-6,-0.02023 -0.07207,-0.05184 -0.216204,-0.09483 l -0.284479,-0.04172 c -0.05564,-0.01011 -0.09862,-0.01833 -0.128964,-0.02465 -0.03035,-0.0063 -0.06954,-0.01581 -0.117585,-0.02845 -0.06828,-0.01517 -0.128966,-0.03667 -0.182067,-0.06448 -0.08345,-0.04046 -0.125173,-0.104942 -0.125171,-0.193446 -2e-6,-0.212412 0.11379,-0.432409 0.341376,-0.659992 0.22758,-0.227584 0.434934,-0.341375 0.622061,-0.341376 l 0.55758,0 0,0.534822 z"
         style="fill:#ffffff"
         id="path3022" />
    </g>
  </g>
</svg>
