<?xml version="1.0" encoding="UTF-8" standalone="no"?>
<!-- Created with Inkscape (http://www.inkscape.org/) -->

<svg
   xmlns:dc="http://purl.org/dc/elements/1.1/"
   xmlns:cc="http://creativecommons.org/ns#"
   xmlns:rdf="http://www.w3.org/1999/02/22-rdf-syntax-ns#"
   xmlns:svg="http://www.w3.org/2000/svg"
   xmlns="http://www.w3.org/2000/svg"
   xmlns:sodipodi="http://sodipodi.sourceforge.net/DTD/sodipodi-0.dtd"
   xmlns:inkscape="http://www.inkscape.org/namespaces/inkscape"
   width="128"
   height="32"
   id="svg2"
   version="1.1"
   inkscape:version="0.48.4 r9939"
   sodipodi:docname="D:\Thaghra\hijri_date\img\months\template.svg">
  <defs
     id="defs4" />
  <sodipodi:namedview
     id="base"
     pagecolor="#ffffff"
     bordercolor="#666666"
     borderopacity="1.0"
     inkscape:pageopacity="0.0"
     inkscape:pageshadow="2"
     inkscape:zoom="4.0546875"
     inkscape:cx="23.687227"
     inkscape:cy="35.701469"
     inkscape:document-units="px"
     inkscape:current-layer="layer1"
     showgrid="false"
     inkscape:window-width="1366"
     inkscape:window-height="706"
     inkscape:window-x="-8"
     inkscape:window-y="-8"
     inkscape:window-maximized="1" />
  <metadata
     id="metadata7">
    <rdf:RDF>
      <cc:Work
         rdf:about="">
        <dc:format>image/svg+xml</dc:format>
        <dc:type
           rdf:resource="http://purl.org/dc/dcmitype/StillImage" />
        <dc:title></dc:title>
      </cc:Work>
    </rdf:RDF>
  </metadata>
  <g
     inkscape:label="Layer 1"
     inkscape:groupmode="layer"
     id="layer1"
     transform="translate(0,-1020.3622)">
    <g
       transform="matrix(3.8619071,0,0,3.8619071,-100.06154,978.26327)"
       style="font-size:7.76818275000000020px;font-style:normal;font-variant:normal;font-weight:normal;font-stretch:normal;text-align:start;line-height:141.99999571000001000%;letter-spacing:0px;word-spacing:0px;writing-mode:lr-tb;text-anchor:start;fill:#ffffff;fill-opacity:1;stroke:none;font-family:KacstBook;-inkscape-font-specification:KacstBook"
       id="flowRoot2985">
      <path
         d="m 54.640649,16.024608 c 0.113791,1e-6 0.219997,-0.0025 0.318617,-0.0076 0.09862,-0.0051 0.192181,-0.01264 0.280686,-0.02276 0.08597,-0.01011 0.171319,-0.02592 0.256031,-0.04741 0.08471,-0.02149 0.170055,-0.04868 0.256032,-0.08155 l 0.701716,-0.257928 0.182066,-0.07965 -0.504476,-0.189653 -0.178274,-0.0531 -0.261721,-0.0531 -0.155516,-0.01896 -0.204825,0 c -0.02782,10e-7 -0.05437,0.0025 -0.07965,0.0076 l -0.132757,0.02276 -0.227583,0.06069 0.109998,-0.341375 c 0.139079,-0.23011 0.324938,-0.345166 0.55758,-0.345168 0.06322,2e-6 0.140974,0.01454 0.233273,0.04362 0.0923,0.02908 0.202927,0.07523 0.331892,0.138447 l 0.834473,0.348961 c 0.235167,0.09103 0.42482,0.151724 0.568959,0.182067 l 0.40965,0.0569 0.223791,0.01896 0.235169,0 -0.326203,0.527235 -0.383099,-0.07586 -0.500683,-0.02655 -0.257928,0.01138 -0.132757,0.01896 c -0.01517,0.0025 -0.03224,0.0063 -0.05121,0.01138 -0.01897,0.0051 -0.04236,0.0089 -0.07017,0.01138 l -1.407225,0.565166 -0.307237,0.07965 -0.128964,0.02276 -0.106206,0.0076 -0.13655,0 0,-0.534822 z m 1.957218,1.638601 -0.493098,-0.348961 0.341375,-0.477925 0.455167,0.36034 z"
         style="fill:#ffffff"
         id="path3025" />
      <path
         d="m 51.761718,16.024608 c 0.0177,1e-6 0.03919,0.0025 0.06448,0.0076 0.146664,1e-6 0.257927,-0.01644 0.333789,-0.04931 0.121377,-0.04552 0.213675,-0.132757 0.276893,-0.261721 l 0.02655,-0.06827 0.03034,-0.0569 c 0.0177,-0.04046 0.04299,-0.07713 0.07586,-0.109999 0.121377,-0.121377 0.271835,-0.230111 0.451374,-0.326203 l 0.121378,-0.0531 0.121378,-0.04552 c 0.06827,-0.02276 0.137812,-0.03414 0.208618,-0.03414 0.09609,2e-6 0.144134,0.04805 0.144136,0.144136 l 0,0.06448 -0.0076,0.07586 c -2e-6,0.04299 0.01011,0.0904 0.03035,0.14224 0.02023,0.05184 0.0512,0.10431 0.09293,0.157412 0.04172,0.0531 0.09419,0.105574 0.157411,0.157412 0.06322,0.05184 0.136548,0.09799 0.219998,0.138447 l 0.113792,0.04552 0.147929,0.04931 c 0.05563,0.01517 0.116317,0.02276 0.182067,0.02276 l 0.117584,0 0,0.534822 -0.189653,0 c -0.03288,0 -0.07144,-0.007 -0.115688,-0.02086 -0.04425,-0.01391 -0.09546,-0.0373 -0.153619,-0.07017 l -0.326203,-0.18586 c -0.0177,1e-6 -0.0569,0.08345 -0.117584,0.250342 -0.03793,0.144136 -0.06828,0.225055 -0.09103,0.242756 L 53.11584,16.46081 c -0.386893,-0.204825 -0.596776,-0.31103 -0.629648,-0.318617 -0.07839,1e-6 -0.14793,0.03035 -0.208618,0.09103 l -0.132757,0.166894 c -0.0531,0.05563 -0.120114,0.09736 -0.201032,0.125171 l -0.113792,0.02276 -0.08724,0.01138 -0.227584,0 0,-0.534822 z m 1.729634,-0.242755 c -0.06069,-0.179538 -0.141609,-0.269306 -0.242755,-0.269307 -0.139081,10e-7 -0.251608,0.02782 -0.337583,0.08345 -0.08851,0.0531 -0.132758,0.101149 -0.132757,0.144136 -1e-6,0.0177 0.08471,0.08092 0.254135,0.189653 0.159307,0.08345 0.281949,0.128964 0.367927,0.13655 0.04046,0 0.07333,0.0025 0.09862,0.0076 l 0.06069,-0.01896 z"
         style="fill:#ffffff"
         id="path3027" />
      <path
         d="m 51.59103,16.55943 c -0.283216,0 -0.51965,-0.09483 -0.709302,-0.28448 -0.08345,-0.09609 -0.144769,-0.214939 -0.183963,-0.356547 -0.0392,-0.141607 -0.06385,-0.295858 -0.07396,-0.462753 l -0.03034,-0.591717 -0.06448,-0.60689 c -0.02782,-0.336315 -0.05753,-0.617633 -0.08914,-0.843955 -0.03161,-0.226316 -0.06511,-0.405222 -0.100516,-0.536718 l 0.2731,-0.534821 c 0.02023,0.05816 0.04236,0.154887 0.06638,0.290169 0.02402,0.135289 0.04362,0.314195 0.05879,0.536718 l 0.07965,1.19102 0,0.356547 0.04172,0.451374 0.04172,0.28448 c 0.01517,0.134022 0.09103,0.262986 0.227583,0.386891 0.131491,0.123908 0.297121,0.185861 0.496891,0.18586 l 0.0531,0 0,0.534822 z"
         style="fill:#ffffff"
         id="path3029" />
      <path
         d="m 48.617272,15.72875 c -2e-6,0.268043 -0.140345,0.481719 -0.42103,0.641027 -0.128965,0.0708 -0.280055,0.128331 -0.45327,0.172584 -0.173218,0.04425 -0.350859,0.06638 -0.532925,0.06638 -0.146665,0 -0.254767,-0.01138 -0.324306,-0.03414 -0.06954,-0.02276 -0.111896,-0.06701 -0.127068,-0.132757 l 0,-0.121378 c 0,-0.05057 0.0025,-0.08851 0.0076,-0.113792 0,-0.0354 6.32e-4,-0.06322 0.0019,-0.08345 0.0013,-0.02023 0.0032,-0.0354 0.0057,-0.04552 l 0.01138,-0.07207 0.02655,-0.08345 0.09103,0.04552 0.140343,0.04552 0.144136,0.02276 0.147929,0.01138 c 0.146664,0 0.34896,-0.03667 0.606889,-0.109999 0.293328,-0.0885 0.439993,-0.184595 0.439995,-0.288272 -2e-6,-0.118849 -0.09104,-0.2908 -0.2731,-0.515856 -0.17954,-0.225053 -0.350227,-0.366661 -0.512063,-0.424823 l 0,-0.466546 0.0076,-0.106206 c 0.0076,-0.04551 0.02655,-0.07207 0.0569,-0.07965 0.123905,3e-6 0.29965,0.155518 0.527235,0.466546 0.126434,0.171954 0.23011,0.362871 0.311031,0.572752 0.07839,0.202298 0.117583,0.413444 0.117585,0.633441 z"
         style="fill:#ffffff"
         id="path3031" />
      <path
         d="m 46.398335,14.363249 c -4e-6,0.07334 -0.01265,0.149196 -0.03793,0.227583 l -0.03414,0.102413 c -0.06069,-0.02781 -0.120117,-0.05057 -0.178273,-0.06827 l -0.182067,-0.03414 c -0.235173,2e-6 -0.486779,0.115058 -0.754819,0.345169 -0.268045,0.230113 -0.402066,0.445053 -0.402064,0.64482 -2e-6,0.101149 0.07207,0.182067 0.216205,0.242755 0.159305,0.05058 0.341372,0.07586 0.5462,0.07586 0.262982,10e-7 0.450106,0.03793 0.561373,0.113792 0.07333,0.05816 0.109994,0.139079 0.109998,0.242756 -4e-6,0.227583 -0.04046,0.412179 -0.121378,0.553786 -0.07586,0.141607 -0.232644,0.29333 -0.470339,0.455167 -0.273103,0.187124 -0.576547,0.337581 -0.910334,0.451374 -0.333791,0.116319 -0.673901,0.17448 -1.020332,0.174481 -0.351491,-10e-7 -0.63597,-0.08598 -0.853438,-0.257928 -0.240228,-0.189654 -0.360341,-0.452639 -0.360341,-0.788956 0,-0.285744 0.08345,-0.614475 0.250342,-0.986195 0.144136,-0.313559 0.251605,-0.470338 0.32241,-0.470339 0.01264,10e-7 0.02529,0.01391 0.03793,0.04172 -0.05057,0.131494 -0.09356,0.243389 -0.128964,0.335686 -0.0354,0.0923 -0.06448,0.172585 -0.08724,0.240859 -0.06069,0.182067 -0.09103,0.338847 -0.09103,0.470339 -10e-7,0.326203 0.132756,0.565165 0.398271,0.716888 0.197238,0.113791 0.493096,0.170687 0.887575,0.170688 0.311029,-1e-6 0.701714,-0.106207 1.172055,-0.318617 0.470336,-0.207354 0.705506,-0.362869 0.705509,-0.466546 -0.0354,-0.06827 -0.07713,-0.118849 -0.125171,-0.151723 l -0.144136,-0.01517 -0.257928,-0.01138 c -0.308505,0 -0.54241,-0.03667 -0.701716,-0.109999 -0.06322,-0.03287 -0.116322,-0.08724 -0.159308,-0.163101 -0.0354,-0.09103 -0.05311,-0.183331 -0.0531,-0.276893 -2e-6,-0.333788 0.179536,-0.721944 0.538614,-1.164469 0.359073,-0.442521 0.676426,-0.663783 0.952058,-0.663785 l 0.227583,0.01138 c 0.09862,0.03035 0.147926,0.09736 0.14793,0.201032 z"
         style="fill:#ffffff"
         id="path3033" />
      <path
         d="m 39.878066,16.202882 -0.02276,0.09483 c -0.03793,0.204825 -0.0885,0.31103 -0.151722,0.318616 -0.0354,0 -0.0531,-0.120113 -0.0531,-0.36034 l 0,-0.216204 c -1e-6,-0.11632 -0.0051,-0.183331 -0.01517,-0.201033 -0.02782,-0.305972 -0.0569,-0.595508 -0.08724,-0.86861 -0.03035,-0.273098 -0.06322,-0.536083 -0.09862,-0.788956 l -0.125171,-0.921713 0.0569,-0.166894 0.303445,-0.515856 0,0.432408 0.178273,1.83584 c 0.02023,0.245286 0.03603,0.445686 0.04741,0.6012 0.01138,0.155516 0.01707,0.272469 0.01707,0.350858 z"
         style="fill:#ffffff"
         id="path3035" />
      <path
         d="m 37.298788,11.670178 c -2e-6,0.02529 -0.02276,0.08724 -0.06827,0.18586 -0.03793,0.09104 -0.09104,0.163106 -0.159309,0.216204 -0.05816,0.04299 -0.128333,0.08598 -0.210515,0.128964 -0.08218,0.04299 -0.176378,0.08598 -0.282582,0.128964 l -0.2731,0.06069 c -0.09104,0.01518 -0.178275,0.02276 -0.261721,0.02276 l -0.394479,-0.04172 c -0.03793,5e-6 -0.08218,0.01391 -0.132757,0.04172 l -0.109998,0.08724 -0.07586,0.09103 -0.02276,-0.174481 0.02655,-0.07207 c 0.01264,-0.02528 0.02718,-0.05247 0.04362,-0.08155 0.01644,-0.02907 0.0373,-0.06005 0.06258,-0.09293 0.04299,-0.06574 0.0923,-0.116316 0.14793,-0.151722 0.05563,-0.0354 0.109998,-0.0531 0.163101,-0.0531 l 0.250342,0.04931 0.231376,0.03035 c 0.113791,4e-6 0.222525,-0.0076 0.326203,-0.02276 0.103676,-0.01517 0.194709,-0.04046 0.273101,-0.07586 l 0.09483,-0.03793 c 0.04804,-0.0177 0.0923,-0.04172 0.132757,-0.07207 0.06069,-0.03793 0.112525,-0.08218 0.155515,-0.132757 l 0.06448,-0.0569 z m 1.266881,1.41481 -0.04552,0.637234 c -3e-6,0.121381 -0.0025,0.223793 -0.0076,0.307238 -0.0051,0.08345 -0.01265,0.152989 -0.02276,0.208618 -0.0076,0.08092 -0.01707,0.156782 -0.02845,0.227583 -0.01138,0.07081 -0.02592,0.137817 -0.04362,0.201033 -0.03035,0.174482 -0.09989,0.35402 -0.208618,0.538614 l -0.109999,0.178274 c -0.01517,0.02529 -0.03288,0.05058 -0.0531,0.07586 -0.02023,0.02529 -0.04299,0.05184 -0.06827,0.07965 l 0.07965,0.276893 0.03414,0.292066 0,0.08345 c -3e-6,0.113792 -0.0076,0.217469 -0.02276,0.311031 -0.0076,0.08598 -0.03288,0.139078 -0.07586,0.159308 -0.03793,0.02023 -0.126438,0.04488 -0.265514,0.07397 -0.139081,0.02908 -0.335055,0.05373 -0.587924,0.07396 l -0.701715,0.06069 0.117584,-0.561372 0.163102,-0.04172 c 0.04804,-0.01011 0.103043,-0.02845 0.164998,-0.055 0.06195,-0.02655 0.113158,-0.05626 0.153619,-0.08914 0.311028,-0.212411 0.515853,-0.413443 0.614475,-0.603096 l -0.01897,-0.06448 c 0.0025,10e-7 -6.35e-4,-0.01075 -0.0095,-0.03224 -0.0089,-0.02149 -0.0196,-0.04552 -0.03224,-0.07207 -0.01265,-0.02655 -0.02592,-0.05247 -0.03983,-0.07776 -0.01391,-0.02529 -0.02592,-0.04299 -0.03603,-0.0531 -0.02782,-0.05816 -0.06512,-0.122009 -0.111895,-0.191549 -0.04678,-0.06954 -0.101783,-0.144767 -0.164998,-0.225687 L 37.04086,14.560488 c -0.0354,-0.03793 -0.07207,-0.07649 -0.109999,-0.115688 -0.03793,-0.03919 -0.07839,-0.08028 -0.121378,-0.123275 -0.08092,-0.07839 -0.161206,-0.150455 -0.240859,-0.216204 -0.07966,-0.06574 -0.159942,-0.123904 -0.240859,-0.174481 l -0.132757,0.166895 c -0.03035,2e-6 -0.08345,-0.01896 -0.159309,-0.0569 -0.0354,-0.02276 -0.07713,-0.0512 -0.125171,-0.08534 -0.04805,-0.03414 -0.09736,-0.07523 -0.147929,-0.123274 -0.05816,-0.0531 -0.09925,-0.103042 -0.123274,-0.149826 -0.02402,-0.04678 -0.03603,-0.09166 -0.03603,-0.134654 l 0,-0.235169 c -10e-7,-0.02023 0.0019,-0.04046 0.0057,-0.06069 0.0038,-0.02023 0.01201,-0.05563 0.02465,-0.106206 0.03793,-0.212407 0.101148,-0.318613 0.189653,-0.318617 0.02276,4e-6 0.131492,0.07207 0.326203,0.216205 0.161836,0.136553 0.343903,0.303448 0.5462,0.500683 0.08598,0.08092 0.166261,0.162473 0.24086,0.244653 0.07459,0.08219 0.144766,0.165 0.210514,0.248445 0.04804,0.06322 0.103675,0.140345 0.166895,0.231376 0.06321,0.09104 0.134019,0.201035 0.212411,0.329997 0.174478,0.283216 0.281948,0.513328 0.32241,0.690336 l 0.102413,-0.197239 c 0.02275,-0.04804 0.04488,-0.09293 0.06638,-0.134653 0.02149,-0.04172 0.0512,-0.105572 0.08914,-0.19155 0.02023,-0.08092 0.03666,-0.149824 0.04931,-0.206722 0.01264,-0.05689 0.02275,-0.105571 0.03034,-0.146032 0.0076,-0.04046 0.01264,-0.07523 0.01517,-0.104309 0.0025,-0.02908 0.0038,-0.055 0.0038,-0.07776 -3e-6,-0.290799 -0.0025,-0.531658 -0.0076,-0.722578 -0.0051,-0.190914 -0.01517,-0.334418 -0.03034,-0.430512 l -0.09862,-0.64482 0.299652,-0.417236 c -3e-6,0.02782 0.0025,0.05627 0.0076,0.08534 0.0051,0.02908 0.02023,0.07523 0.04552,0.138446 0.0076,0.02023 0.01643,0.0411 0.02655,0.06259 0.01011,0.0215 0.02528,0.04742 0.04552,0.07776 0.02023,0.03035 0.04615,0.06638 0.07776,0.108102 0.0316,0.04173 0.0727,0.09293 0.123274,0.153619 l 0.09483,0.07586 z m -0.754818,2.916862 c -3e-6,-0.02276 -0.0025,-0.04678 -0.0076,-0.07207 -2e-6,-0.03287 -0.0089,-0.06575 -0.02655,-0.09862 l -0.227583,0.250342 -0.193446,0.151723 -0.06827,0.03793 -0.14793,0.06448 0.276893,-0.02655 c 0.189651,-0.01517 0.321144,-0.04299 0.394479,-0.08345 z"
         style="fill:#ffffff"
         id="path3037" />
      <path
         d="m 32.037816,14.131872 -0.493097,-0.345168 0.341375,-0.481718 0.45896,0.36034 z m -1.338949,1.892736 c 0.379305,1e-6 0.713094,-0.04172 1.001367,-0.125171 l 0.914127,-0.318616 -0.333789,-0.14793 -0.303445,-0.109998 -0.109998,-0.03035 -0.364134,-0.0569 c -0.09862,2e-6 -0.178274,0.0038 -0.238963,0.01138 -0.02023,2e-6 -0.03793,6.34e-4 -0.0531,0.0019 -0.01517,0.0013 -0.02908,0.0032 -0.04172,0.0057 l -0.13655,0.03414 -0.102413,-0.0038 c 0.04804,-0.121376 0.09799,-0.225685 0.149826,-0.312927 0.05184,-0.08724 0.108734,-0.158043 0.170688,-0.212412 0.06195,-0.05436 0.130227,-0.09419 0.204825,-0.119481 0.0746,-0.02529 0.157411,-0.03793 0.248445,-0.03793 0.121377,0.05563 0.237697,0.106839 0.348962,0.153618 0.111261,0.04678 0.219995,0.0904 0.326202,0.130861 l 0.652406,0.242756 c 0.455165,0.166895 0.91286,0.250343 1.373087,0.250341 l -0.352754,0.591718 -0.367927,-0.08345 -0.208618,-0.04172 -0.231376,0 -0.113792,0 -0.269307,0.03034 c -0.01517,0.0025 -0.03224,0.007 -0.05121,0.01328 -0.01897,0.0063 -0.03983,0.01454 -0.06259,0.02465 l -0.584131,0.201032 -0.671371,0.261721 C 31.183113,16.498741 30.949208,16.55943 30.7899,16.55943 l -0.144136,0 0,-0.534822 z"
         style="fill:#ffffff"
         id="path3039" />
      <path
         d="m 30.46749,16.55943 c -0.04552,0.237698 -0.128966,0.489303 -0.250342,0.754818 -0.0177,0.04046 -0.03856,0.08534 -0.06259,0.134654 -0.02402,0.04931 -0.05247,0.105572 -0.08534,0.168791 -0.0177,0.0354 -0.04046,0.0746 -0.06827,0.117584 -0.02782,0.04299 -0.06196,0.08977 -0.102412,0.140344 -0.25793,0.376775 -0.587926,0.565163 -0.989989,0.565165 -0.134022,-2e-6 -0.356547,-0.09483 -0.667578,-0.284479 -0.255399,-0.15931 -0.383098,-0.285745 -0.383099,-0.379306 10e-7,-0.01012 0.0019,-0.01897 0.0057,-0.02655 0.0038,-0.0076 0.01581,-0.0177 0.03603,-0.03035 0.03035,-1e-6 0.07965,0.02276 0.147929,0.06827 0.260457,0.182066 0.414708,0.276892 0.462753,0.28448 0.149193,-2e-6 0.327467,-0.04046 0.534822,-0.121378 0.199766,-0.08345 0.364132,-0.182068 0.493097,-0.295859 l 0.212411,-0.216204 0.182067,-0.208618 c 0.07586,-0.09103 0.132755,-0.178274 0.170688,-0.261721 l 0.06069,-0.201032 c -2e-6,-0.171952 -0.04678,-0.308502 -0.140343,-0.409651 l -0.276894,-0.318616 0.208618,-0.50827 0.394479,0.432408 c 0.05563,0.04046 0.128961,0.06069 0.219997,0.06069 l 0.155515,0 0,0.534822 z"
         style="fill:#ffffff"
         id="path3041" />
      <path
         d="m 27.687179,13.915668 -0.402064,-0.295858 -0.238963,0.394478 -0.477925,-0.360341 0.276893,-0.432409 0.428615,0.314824 0.238963,-0.390685 0.470339,0.326203 z m 0.364133,1.596878 c -1e-6,0.207354 -0.03287,0.394478 -0.09862,0.561372 -0.05816,0.141608 -0.163103,0.256664 -0.314824,0.345168 -0.156781,0.08851 -0.326204,0.132757 -0.50827,0.132757 -0.212412,0 -0.352755,-0.0531 -0.421029,-0.159308 l -0.04931,-0.125171 -0.0076,-0.117585 c 0,-0.126434 0.02782,-0.265513 0.08345,-0.417236 0.05563,-0.151721 0.147929,-0.336317 0.276893,-0.553787 0.209882,-0.361603 0.337582,-0.542405 0.383099,-0.542407 0.09609,2e-6 0.225054,0.08851 0.386892,0.265514 0.179537,0.194712 0.269306,0.398273 0.269307,0.610683 z m -0.235169,0.299651 c -2e-6,-0.02529 -0.0032,-0.05184 -0.0095,-0.07965 -0.0063,-0.02782 -0.02086,-0.0746 -0.04362,-0.140343 l -0.151722,-0.189653 c -0.0177,-0.0177 -0.03793,-0.0354 -0.06069,-0.0531 -0.02276,-0.0177 -0.05437,-0.03793 -0.09483,-0.06069 l -0.109998,-0.07586 -0.166895,0.178274 c -0.02782,0.03287 -0.05247,0.06322 -0.07397,0.09103 -0.02149,0.02782 -0.03856,0.05184 -0.05121,0.07207 -0.06322,0.108735 -0.09483,0.192183 -0.09483,0.250342 -1e-6,0.02529 0.0088,0.05437 0.02655,0.08724 l 0.102413,0.08345 0.09862,0.01896 0.08345,0.01138 0.170688,-0.01138 c 0.03287,-0.0025 0.06069,-0.0088 0.08345,-0.01896 0.113791,-0.04552 0.190284,-0.07965 0.22948,-0.102413 0.03919,-0.02276 0.06006,-0.04299 0.06259,-0.06069 z"
         style="fill:#ffffff"
         id="path3043" />
    </g>
  </g>
</svg>
