<?xml version="1.0" encoding="UTF-8" standalone="no"?>
<!-- Created with Inkscape (http://www.inkscape.org/) -->

<svg
   xmlns:dc="http://purl.org/dc/elements/1.1/"
   xmlns:cc="http://creativecommons.org/ns#"
   xmlns:rdf="http://www.w3.org/1999/02/22-rdf-syntax-ns#"
   xmlns:svg="http://www.w3.org/2000/svg"
   xmlns="http://www.w3.org/2000/svg"
   xmlns:sodipodi="http://sodipodi.sourceforge.net/DTD/sodipodi-0.dtd"
   xmlns:inkscape="http://www.inkscape.org/namespaces/inkscape"
   width="128"
   height="32"
   id="svg2"
   version="1.1"
   inkscape:version="0.48.4 r9939"
   sodipodi:docname="D:\Thaghra\hijri_date\img\months\template.svg">
  <defs
     id="defs4" />
  <sodipodi:namedview
     id="base"
     pagecolor="#ffffff"
     bordercolor="#666666"
     borderopacity="1.0"
     inkscape:pageopacity="0.0"
     inkscape:pageshadow="2"
     inkscape:zoom="4.0546875"
     inkscape:cx="23.687227"
     inkscape:cy="35.701469"
     inkscape:document-units="px"
     inkscape:current-layer="layer1"
     showgrid="false"
     inkscape:window-width="1366"
     inkscape:window-height="706"
     inkscape:window-x="-8"
     inkscape:window-y="-8"
     inkscape:window-maximized="1" />
  <metadata
     id="metadata7">
    <rdf:RDF>
      <cc:Work
         rdf:about="">
        <dc:format>image/svg+xml</dc:format>
        <dc:type
           rdf:resource="http://purl.org/dc/dcmitype/StillImage" />
        <dc:title></dc:title>
      </cc:Work>
    </rdf:RDF>
  </metadata>
  <g
     inkscape:label="Layer 1"
     inkscape:groupmode="layer"
     id="layer1"
     transform="translate(0,-1020.3622)">
    <g
       transform="matrix(3.8619071,0,0,3.8619071,-138.41848,972.62362)"
       style="font-size:7.76818275000000020px;font-style:normal;font-variant:normal;font-weight:normal;font-stretch:normal;text-align:start;line-height:141.99999571000001000%;letter-spacing:0px;word-spacing:0px;writing-mode:lr-tb;text-anchor:start;fill:#ffffff;fill-opacity:1;stroke:none;font-family:KacstBook;-inkscape-font-specification:KacstBook"
       id="flowRoot2985">
      <path
         d="m 58.141641,15.998057 c -3e-6,0.480454 -0.17069,0.930563 -0.512063,1.350329 -0.321147,0.389419 -0.642293,0.584129 -0.963437,0.58413 -0.07586,-1e-6 -0.170688,-0.0196 -0.284479,-0.05879 -0.113792,-0.0392 -0.250342,-0.09925 -0.40965,-0.18017 -0.305974,-0.15931 -0.45896,-0.269308 -0.45896,-0.329996 0,-0.04046 0.01644,-0.06069 0.04931,-0.06069 0.02023,-1e-6 0.121378,0.04552 0.303445,0.13655 0.166894,0.09862 0.297122,0.147928 0.390685,0.147929 0.36919,-10e-7 0.754817,-0.18586 1.156883,-0.557579 0.356545,-0.33379 0.534819,-0.61574 0.534821,-0.845852 -2e-6,-0.0531 -0.01454,-0.11632 -0.04362,-0.189653 -0.02908,-0.07333 -0.0765,-0.152986 -0.14224,-0.238963 l -0.265514,-0.341375 0.140343,-0.5462 c 0.11379,0.08345 0.235167,0.269308 0.364134,0.557579 0.09356,0.202298 0.14034,0.393215 0.140343,0.572752 z"
         style="fill:#ffffff"
         id="path3046" />
      <path
         d="m 51.92482,16.024608 c 0.113791,1e-6 0.219997,-0.0025 0.318617,-0.0076 0.09862,-0.0051 0.192181,-0.01264 0.280686,-0.02276 0.08597,-0.01011 0.171319,-0.02592 0.256031,-0.04741 0.08471,-0.02149 0.170055,-0.04868 0.256032,-0.08155 l 0.701715,-0.257928 0.182067,-0.07965 -0.504477,-0.189653 -0.178273,-0.0531 -0.261721,-0.0531 -0.155516,-0.01896 -0.204825,0 c -0.02782,10e-7 -0.05437,0.0025 -0.07965,0.0076 l -0.132757,0.02276 -0.227583,0.06069 0.109998,-0.341375 c 0.139078,-0.23011 0.324938,-0.345166 0.55758,-0.345168 0.06322,2e-6 0.140974,0.01454 0.233273,0.04362 0.0923,0.02908 0.202927,0.07523 0.331892,0.138447 l 0.834473,0.348961 c 0.235167,0.09103 0.42482,0.151724 0.568959,0.182067 l 0.40965,0.0569 0.223791,0.01896 0.235169,0 -0.326203,0.527235 -0.383099,-0.07586 -0.500683,-0.02655 -0.257928,0.01138 -0.132757,0.01896 c -0.01517,0.0025 -0.03224,0.0063 -0.05121,0.01138 -0.01897,0.0051 -0.04236,0.0089 -0.07017,0.01138 l -1.407225,0.565166 -0.307237,0.07965 -0.128964,0.02276 -0.106206,0.0076 -0.13655,0 0,-0.534822 z m 1.957218,1.638601 -0.493098,-0.348961 0.341375,-0.477925 0.455167,0.36034 z"
         style="fill:#ffffff"
         id="path3048" />
      <path
         d="m 51.757925,16.55943 c -0.123912,0 -0.232646,-0.01897 -0.326203,-0.0569 L 51.314137,16.434259 51.13207,16.22564 c -0.04299,-0.06827 -0.07207,-0.102412 -0.08724,-0.102412 -0.03035,0 -0.06828,0.02276 -0.113792,0.06827 l -0.125171,0.140343 c -0.05816,0.0354 -0.138451,0.0746 -0.240859,0.117585 -0.102417,0.04299 -0.233277,0.08598 -0.392582,0.128964 -0.230115,0.06322 -0.462756,0.109366 -0.697922,0.138446 -0.235173,0.02908 -0.479193,0.04362 -0.73206,0.04362 -0.154254,-1e-6 -0.295229,-0.0051 -0.422926,-0.01517 -0.127702,-0.01011 -0.242126,-0.02529 -0.343272,-0.04552 -0.207355,-0.03793 -0.410916,-0.09862 -0.610682,-0.182067 -0.452639,-0.19471 -0.678958,-0.504476 -0.678958,-0.929299 0,-0.128963 0.01264,-0.235169 0.03793,-0.318617 0.0051,-0.02529 0.01264,-0.05437 0.02276,-0.08724 0.01011,-0.03287 0.02908,-0.08597 0.0569,-0.159308 l 0.04172,-0.08724 c 0.09609,-0.182065 0.168158,-0.281949 0.216204,-0.299652 l 0,0.109999 -0.07586,0.280686 -0.02655,0.166895 c 0,0.09862 0.01517,0.189022 0.04552,0.271203 0.03034,0.08218 0.07902,0.158045 0.146033,0.227584 0.06701,0.06954 0.15425,0.134022 0.261721,0.193446 0.107469,0.05942 0.239593,0.115689 0.396374,0.168791 0.300914,0.101148 0.673898,0.151722 1.118952,0.151722 0.146663,0 0.278787,-0.0019 0.396375,-0.0057 0.117582,-0.0038 0.223155,-0.01075 0.31672,-0.02086 l 0.155516,0 c 0.103673,-0.0177 0.178902,-0.02971 0.225687,-0.03603 0.04678,-0.0063 0.08091,-0.01138 0.102412,-0.01517 0.02149,-0.0038 0.0373,-0.0076 0.04741,-0.01138 0.01011,-0.0038 0.03034,-0.01201 0.06069,-0.02465 0.26551,-0.0531 0.486772,-0.128963 0.663786,-0.227583 0.03034,-0.02276 0.07333,-0.07965 0.128963,-0.170688 0.04551,-0.09862 0.09103,-0.147928 0.136551,-0.147929 l 0.03414,0.0569 0.09483,0.18586 c 0.08344,0.15678 0.247807,0.23517 0.493097,0.235169 l 0.174481,0 0,0.534822 z m -2.412385,1.832047 -0.493098,-0.348962 0.337582,-0.477925 0.45896,0.36034 z"
         style="fill:#ffffff"
         id="path3050" />
    </g>
  </g>
</svg>
