<?xml version="1.0" encoding="UTF-8" standalone="no"?>
<!-- Created with Inkscape (http://www.inkscape.org/) -->

<svg
   xmlns:dc="http://purl.org/dc/elements/1.1/"
   xmlns:cc="http://creativecommons.org/ns#"
   xmlns:rdf="http://www.w3.org/1999/02/22-rdf-syntax-ns#"
   xmlns:svg="http://www.w3.org/2000/svg"
   xmlns="http://www.w3.org/2000/svg"
   xmlns:sodipodi="http://sodipodi.sourceforge.net/DTD/sodipodi-0.dtd"
   xmlns:inkscape="http://www.inkscape.org/namespaces/inkscape"
   width="128"
   height="32"
   id="svg2"
   version="1.1"
   inkscape:version="0.48.4 r9939"
   sodipodi:docname="template.svg">
  <defs
     id="defs4" />
  <sodipodi:namedview
     id="base"
     pagecolor="#ffffff"
     bordercolor="#666666"
     borderopacity="1.0"
     inkscape:pageopacity="0.0"
     inkscape:pageshadow="2"
     inkscape:zoom="4.0546875"
     inkscape:cx="7.7233806"
     inkscape:cy="35.701469"
     inkscape:document-units="px"
     inkscape:current-layer="layer1"
     showgrid="false"
     inkscape:window-width="1366"
     inkscape:window-height="706"
     inkscape:window-x="-8"
     inkscape:window-y="-8"
     inkscape:window-maximized="1" />
  <metadata
     id="metadata7">
    <rdf:RDF>
      <cc:Work
         rdf:about="">
        <dc:format>image/svg+xml</dc:format>
        <dc:type
           rdf:resource="http://purl.org/dc/dcmitype/StillImage" />
        <dc:title></dc:title>
      </cc:Work>
    </rdf:RDF>
  </metadata>
  <g
     inkscape:label="Layer 1"
     inkscape:groupmode="layer"
     id="layer1"
     transform="translate(0,-1020.3622)">
    <g
       transform="matrix(3.8619071,0,0,3.8619071,-132.51516,977.5455)"
       style="font-size:7.76818275000000020px;font-style:normal;font-variant:normal;font-weight:normal;font-stretch:normal;text-align:start;line-height:141.99999571000001000%;letter-spacing:0px;word-spacing:0px;writing-mode:lr-tb;text-anchor:start;fill:#ffffff;fill-opacity:1;stroke:none;font-family:KacstBook;-inkscape-font-specification:KacstBook"
       id="flowRoot2985">
      <path
         d="m 55.660981,13.631189 -0.462753,-0.318617 0.311031,-0.451374 0.432409,0.333789 z m 0.45896,0.751025 -0.402064,-0.299651 -0.23517,0.394478 -0.477925,-0.360341 0.276893,-0.428615 0.417237,0.303444 0.246549,-0.379306 0.474132,0.326203 z m -2.355489,1.642394 c 0.03287,-0.0076 0.06827,-0.01391 0.106206,-0.01897 0.03793,-0.0051 0.09103,-0.02402 0.159308,-0.0569 0.121377,-0.0531 0.206089,-0.122641 0.254135,-0.208618 l 0.07586,-0.132757 0.06827,-0.102413 c 0.06322,-0.09103 0.111262,-0.137813 0.144137,-0.140343 l 0.03034,0.07207 c -1e-6,0.0177 -6.33e-4,0.03351 -0.0019,0.04741 -0.0013,0.01391 -0.0032,0.02718 -0.0057,0.03983 l -0.06448,0.208618 -0.0531,0.117585 c 0.07586,0.07333 0.156779,0.122642 0.242756,0.147929 l 0.132757,0.01897 0.151722,0.0076 c 0.159307,1e-6 0.298386,-0.0196 0.417237,-0.05879 0.118847,-0.03919 0.217466,-0.104308 0.295858,-0.195343 l 0.383099,-0.568958 c 0.02781,0.0051 0.04172,0.03287 0.04172,0.08345 l -0.0076,0.07207 -0.08345,0.276893 -0.02655,0.0569 c -3e-6,0.03035 0.05689,0.07966 0.170687,0.147929 0.06321,0.02782 0.130858,0.04994 0.202929,0.06638 0.07207,0.01644 0.143501,0.02466 0.214308,0.02465 l 0.0531,0 0.08724,-0.01517 0.01897,-0.09103 -0.04931,-0.250342 c -3e-6,-0.01264 -0.0063,-0.02908 -0.01897,-0.04931 -0.0076,-0.03287 -0.0215,-0.05563 -0.04172,-0.06827 l 0.276893,-0.493098 c 0.07839,0.06322 0.117581,0.218734 0.117585,0.466546 -4e-6,0.09103 -0.0044,0.176378 -0.01328,0.256032 -0.0089,0.07966 -0.02403,0.156148 -0.04552,0.22948 -0.0215,0.07333 -0.05058,0.144769 -0.08724,0.214307 -0.03667,0.06954 -0.08282,0.140976 -0.138447,0.214308 -0.07586,0.09862 -0.168162,0.14793 -0.276893,0.147929 -0.09862,10e-7 -0.209885,-0.03414 -0.333789,-0.102412 -0.212414,-0.113792 -0.341378,-0.170687 -0.386892,-0.170688 l -0.0076,0 c -0.116323,0.116321 -0.25793,0.211147 -0.424823,0.28448 l -0.227583,0.06827 c -0.06069,0.01517 -0.132759,0.02276 -0.216204,0.02276 -0.03035,0 -0.0569,-6.32e-4 -0.07966,-0.0019 -0.02276,-0.0013 -0.04362,-0.0032 -0.06258,-0.0057 -0.01897,-0.0025 -0.03856,-0.007 -0.05879,-0.01328 -0.02023,-0.0063 -0.04425,-0.01454 -0.07207,-0.02465 l -0.09862,-0.04931 c -0.121379,-0.06827 -0.228849,-0.15678 -0.32241,-0.265514 -0.02529,0.04046 -0.055,0.07902 -0.08914,0.115688 -0.03414,0.03667 -0.0727,0.0727 -0.115688,0.108102 -0.106206,0.06827 -0.240228,0.102413 -0.402064,0.102413 l -0.242756,0 0,-0.534822 z"
         style="fill:#ffffff"
         id="path3053" />
      <path
         d="m 50.999313,16.024608 0.219997,-0.0076 c 0.04552,10e-7 0.07965,-0.0051 0.102413,-0.01517 0.0531,-0.0076 0.146664,-0.03034 0.280686,-0.06828 0.230111,-0.0531 0.38942,-0.131492 0.477925,-0.23517 -0.0531,-0.08345 -0.140344,-0.159307 -0.261721,-0.227583 -0.08092,-0.04299 -0.164366,-0.06448 -0.250341,-0.06448 -0.05563,10e-7 -0.09736,0.01012 -0.125171,0.03034 l 0.06448,-0.216204 c 0.04552,-0.177008 0.102411,-0.29965 0.170687,-0.367927 0.0885,-0.07333 0.260456,-0.109996 0.515856,-0.109998 0.214939,2e-6 0.395741,0.05437 0.542408,0.163101 0.174478,0.126437 0.261718,0.29586 0.261721,0.50827 -3e-6,0.05816 -0.04173,0.136551 -0.125171,0.23517 l -0.151723,0.140343 c 0.0076,0.0354 0.08597,0.08598 0.23517,0.151722 l 0.201032,0.06069 c 0.06321,0.01517 0.118847,0.02276 0.166894,0.02276 l 0.18586,0 0,0.534822 -0.216204,0 c -0.07081,0 -0.144139,-0.01328 -0.219997,-0.03983 -0.07586,-0.02655 -0.158047,-0.06511 -0.246549,-0.115688 l -0.447581,-0.379306 c -0.06322,1e-6 -0.152988,0.0354 -0.269307,0.106206 l -0.527235,0.295858 -0.265514,0.08345 -0.140343,0.03034 -0.178274,0.01897 -0.227584,0 0,-0.534822 z"
         style="fill:#ffffff"
         id="path3055" />
      <path
         d="m 49.288644,16.024608 c 0.257928,1e-6 0.465281,-0.04804 0.622061,-0.144136 l 0.333789,-0.333789 0.117585,0.242756 c 0.06574,0.15678 0.213675,0.23517 0.443788,0.235169 l 0.06827,0 0,0.534822 -0.128964,0 c -0.101149,0 -0.193447,-0.02276 -0.276893,-0.06828 l -0.07207,-0.0569 -0.09483,-0.09103 -0.113791,-0.144136 c -0.02529,-0.04046 -0.05058,-0.06322 -0.07586,-0.06827 l -0.170687,0.151722 -0.193446,0.14793 c -0.03035,0.02023 -0.06195,0.03856 -0.09483,0.055 -0.03287,0.01644 -0.06701,0.03098 -0.102412,0.04362 l -0.208618,0.03035 -0.102413,0 0,-0.534822 z m 0.864817,2.093768 -0.493097,-0.345168 0.341375,-0.477925 0.45896,0.36034 z"
         style="fill:#ffffff"
         id="path3057" />
      <path
         d="m 49.315195,16.55943 c -0.283216,0 -0.51965,-0.09483 -0.709302,-0.28448 -0.08345,-0.09609 -0.144769,-0.214939 -0.183963,-0.356547 -0.0392,-0.141607 -0.06385,-0.295858 -0.07397,-0.462753 l -0.03034,-0.591717 -0.06448,-0.60689 c -0.02782,-0.336315 -0.05753,-0.617633 -0.08914,-0.843955 -0.03161,-0.226316 -0.06511,-0.405222 -0.100516,-0.536718 l 0.2731,-0.534821 c 0.02023,0.05816 0.04236,0.154887 0.06638,0.290169 0.02402,0.135289 0.04362,0.314195 0.05879,0.536718 l 0.07965,1.19102 0,0.356547 0.04172,0.451374 0.04172,0.28448 c 0.01517,0.134022 0.09103,0.262986 0.227583,0.386891 0.131492,0.123908 0.297122,0.185861 0.496891,0.18586 l 0.0531,0 0,0.534822 z"
         style="fill:#ffffff"
         id="path3059" />
      <path
         d="m 45.909029,13.646361 -0.493097,-0.345168 0.341375,-0.481719 0.455167,0.360341 z m 1.634808,1.4755 c -3e-6,0.614476 -0.19092,1.097458 -0.572752,1.448948 -0.318619,0.288272 -0.714361,0.432408 -1.187227,0.432408 -0.283216,0 -0.520914,-0.06954 -0.713095,-0.208618 -0.237698,-0.177009 -0.356547,-0.442523 -0.356547,-0.796542 0,-0.07586 0.0032,-0.147929 0.0095,-0.216204 0.0063,-0.06827 0.0158,-0.131492 0.02845,-0.189653 l 0.04552,-0.197239 0.07586,-0.201032 c 0.106205,-0.260455 0.190917,-0.390684 0.254135,-0.390685 0.01264,1e-6 0.02529,0.02149 0.03793,0.06448 -1e-6,0.05058 -0.0354,0.177011 -0.106206,0.379305 -0.06827,0.209884 -0.102413,0.362871 -0.102412,0.45896 -10e-7,0.207355 0.08345,0.390686 0.250341,0.549994 0.0354,0.02529 0.07649,0.05057 0.123275,0.07586 0.04678,0.02529 0.100515,0.05057 0.161205,0.07586 0.121377,0.03287 0.238961,0.04931 0.352754,0.04931 0.280685,0 0.579072,-0.07586 0.895162,-0.227584 0.389418,-0.184595 0.584128,-0.421028 0.584131,-0.709301 -3e-6,-0.0885 -0.01138,-0.179537 -0.03414,-0.273101 -0.02276,-0.09356 -0.06196,-0.197237 -0.117585,-0.31103 l -0.367926,-0.629648 0.13655,-0.527235 c 0.06321,0.07334 0.128329,0.166265 0.195342,0.27879 0.06701,0.11253 0.135916,0.248447 0.206722,0.407753 l 0.117585,0.329997 0.08345,0.326203 z"
         style="fill:#ffffff"
         id="path3061" />
    </g>
  </g>
</svg>
