<?xml version="1.0" encoding="UTF-8" standalone="no"?>
<!-- Created with Inkscape (http://www.inkscape.org/) -->

<svg
   xmlns:dc="http://purl.org/dc/elements/1.1/"
   xmlns:cc="http://creativecommons.org/ns#"
   xmlns:rdf="http://www.w3.org/1999/02/22-rdf-syntax-ns#"
   xmlns:svg="http://www.w3.org/2000/svg"
   xmlns="http://www.w3.org/2000/svg"
   xmlns:sodipodi="http://sodipodi.sourceforge.net/DTD/sodipodi-0.dtd"
   xmlns:inkscape="http://www.inkscape.org/namespaces/inkscape"
   width="128"
   height="32"
   id="svg2"
   version="1.1"
   inkscape:version="0.48.4 r9939"
   sodipodi:docname="template.svg">
  <defs
     id="defs4" />
  <sodipodi:namedview
     id="base"
     pagecolor="#ffffff"
     bordercolor="#666666"
     borderopacity="1.0"
     inkscape:pageopacity="0.0"
     inkscape:pageshadow="2"
     inkscape:zoom="4.0546875"
     inkscape:cx="7.7233806"
     inkscape:cy="35.701469"
     inkscape:document-units="px"
     inkscape:current-layer="layer1"
     showgrid="false"
     inkscape:window-width="1366"
     inkscape:window-height="706"
     inkscape:window-x="-8"
     inkscape:window-y="-8"
     inkscape:window-maximized="1" />
  <metadata
     id="metadata7">
    <rdf:RDF>
      <cc:Work
         rdf:about="">
        <dc:format>image/svg+xml</dc:format>
        <dc:type
           rdf:resource="http://purl.org/dc/dcmitype/StillImage" />
        <dc:title></dc:title>
      </cc:Work>
    </rdf:RDF>
  </metadata>
  <g
     inkscape:label="Layer 1"
     inkscape:groupmode="layer"
     id="layer1"
     transform="translate(0,-1020.3622)">
    <g
       transform="matrix(3.8619071,0,0,3.8619071,-133.5552,977.90439)"
       style="font-size:7.76818275000000020px;font-style:normal;font-variant:normal;font-weight:normal;font-stretch:normal;text-align:start;line-height:141.99999571000001000%;letter-spacing:0px;word-spacing:0px;writing-mode:lr-tb;text-anchor:start;fill:#ffffff;fill-opacity:1;stroke:none;font-family:KacstBook;-inkscape-font-specification:KacstBook"
       id="flowRoot2985">
      <path
         d="m 58.141641,15.998057 c -2e-6,0.480454 -0.17069,0.930563 -0.512062,1.350329 -0.321148,0.389419 -0.642293,0.584129 -0.963437,0.58413 -0.07586,-1e-6 -0.170689,-0.0196 -0.28448,-0.05879 -0.113792,-0.0392 -0.250342,-0.09925 -0.40965,-0.18017 -0.305973,-0.15931 -0.45896,-0.269308 -0.45896,-0.329996 0,-0.04046 0.01644,-0.06069 0.04931,-0.06069 0.02023,-1e-6 0.121378,0.04552 0.303445,0.13655 0.166894,0.09862 0.297122,0.147928 0.390685,0.147929 0.36919,-10e-7 0.754817,-0.18586 1.156882,-0.557579 0.356546,-0.33379 0.534819,-0.61574 0.534821,-0.845852 -2e-6,-0.0531 -0.01454,-0.11632 -0.04362,-0.189653 -0.02908,-0.07333 -0.0765,-0.152986 -0.142239,-0.238963 l -0.265515,-0.341375 0.140344,-0.5462 c 0.113789,0.08345 0.235167,0.269308 0.364133,0.557579 0.09356,0.202298 0.140341,0.393215 0.140343,0.572752 z"
         style="fill:#ffffff"
         id="path3064" />
      <path
         d="m 53.442043,16.024608 0.235169,0 c 0.275629,1e-6 0.528499,-0.225054 0.758612,-0.675164 0.230111,-0.450108 0.462752,-0.675162 0.697923,-0.675164 0.139077,2e-6 0.261719,0.08724 0.367926,0.261721 0.106204,0.21747 0.159306,0.543672 0.159309,0.978609 -3e-6,0.09356 -0.04805,0.188389 -0.144137,0.284479 -0.07586,0.06827 -0.15931,0.112528 -0.250341,0.132757 -0.05563,0 -0.118851,-0.01391 -0.189653,-0.04172 l -0.269307,-0.140343 c -0.209884,-0.123906 -0.338848,-0.185859 -0.386892,-0.18586 -0.0531,10e-7 -0.158677,0.09925 -0.316721,0.297755 -0.158044,0.198504 -0.314192,0.297756 -0.468442,0.297756 l -0.193446,0 z m 1.942045,-0.269307 c -10e-7,-0.06827 -0.0076,-0.127698 -0.02276,-0.178274 -0.01517,-0.05057 -0.04678,-0.122641 -0.09483,-0.216204 -0.06828,-0.154249 -0.145403,-0.231375 -0.231377,-0.231376 -0.09104,10e-7 -0.189654,0.06069 -0.295858,0.182066 -0.03793,0.0531 -0.06069,0.09483 -0.06827,0.125171 -2e-6,0.03793 0.0923,0.106207 0.276893,0.204825 0.08597,0.04299 0.164996,0.07713 0.237066,0.102413 0.07207,0.02529 0.123272,0.03793 0.153619,0.03793 0.02276,0 0.03793,-0.0089 0.04552,-0.02655 z"
         style="fill:#ffffff"
         id="path3066" />
      <path
         d="m 51.238276,13.923254 -0.493097,-0.345168 0.341375,-0.477925 0.455167,0.36034 z m -2.476867,2.097561 0.261721,0 c 0.06322,1e-6 0.104941,-0.0051 0.125171,-0.01517 l 0.121378,-0.03414 c 0.177009,-0.0531 0.298386,-0.140343 0.364134,-0.261721 0.06322,-0.121377 0.118848,-0.182066 0.166894,-0.182067 0.04046,10e-7 0.0746,0.08345 0.102413,0.250342 0.02781,0.164366 0.165629,0.246549 0.413443,0.246548 0.245283,1e-6 0.441257,-0.06954 0.587924,-0.208618 l 0.23517,-0.269307 c 0.250339,-0.298386 0.493094,-0.533555 0.728267,-0.705509 0.316084,-0.232639 0.60815,-0.348959 0.876196,-0.348961 0.09862,2e-6 0.186488,0.01328 0.263618,0.03983 0.07712,0.02655 0.142867,0.06322 0.197239,0.109999 0.05436,0.04678 0.09609,0.10115 0.125171,0.163101 0.02907,0.06196 0.04361,0.128334 0.04362,0.199136 l -0.01517,0.212411 c -0.01265,0.05816 -0.03035,0.112529 -0.0531,0.163101 -0.02276,0.05058 -0.05058,0.107472 -0.08345,0.170688 l -0.383098,0.466546 c -0.08345,0.06069 -0.128968,0.09862 -0.13655,0.113792 l 0.166894,0 c 0.182063,-0.0354 0.325566,-0.06195 0.430512,-0.07965 0.104937,-0.0177 0.171315,-0.02655 0.199136,-0.02655 l 0.292065,0 0,0.534822 -0.276893,-0.0038 -0.834473,-0.02276 c -0.05816,0 -0.125175,-0.0013 -0.201032,-0.0038 -0.07587,-0.0025 -0.158048,-0.0088 -0.246549,-0.01896 l -0.474132,-0.04931 -0.178274,0.01517 c -0.07839,0 -0.194713,0.02023 -0.348961,0.06069 l -0.477925,0.02276 -0.06448,0.04172 c -0.02529,0.01011 -0.0569,0.04046 -0.09483,0.09103 l -0.147929,0.254134 c -0.03287,0.06827 -0.08092,0.106206 -0.144136,0.113792 l 0,-0.04552 c -2e-6,-0.02023 0.0013,-0.04615 0.0038,-0.07776 0.0025,-0.03161 0.01011,-0.08029 0.02276,-0.146033 l 0.08345,-0.231376 -0.109998,0 c -0.270573,0 -0.45264,-0.06195 -0.546201,-0.18586 l -0.08345,-0.125171 c -0.02023,-0.03287 -0.05058,-0.05437 -0.09103,-0.06448 -0.08345,0.09862 -0.199769,0.187124 -0.348962,0.265514 -0.02782,0.01264 -0.06132,0.02592 -0.100516,0.03983 -0.03919,0.01391 -0.08408,0.02845 -0.134653,0.04362 l -0.132757,0.01897 -0.170688,0.0076 0,-0.534822 z m 4.236846,-0.618268 c -4e-6,-0.09862 -0.04299,-0.178273 -0.128964,-0.238963 -0.08598,-0.06322 -0.180806,-0.09483 -0.284479,-0.09483 -0.318621,10e-7 -0.630915,0.122643 -0.936886,0.367926 l -0.512062,0.512063 -0.04931,0.06828 c 0.18965,10e-7 0.371085,-0.01075 0.544304,-0.03224 0.173213,-0.02149 0.343268,-0.055 0.510166,-0.100516 0.404589,-0.108733 0.690332,-0.269306 0.857231,-0.481718 z"
         style="fill:#ffffff"
         id="path3068" />
      <path
         d="m 48.768995,16.55943 c -0.283216,0 -0.51965,-0.09483 -0.709301,-0.28448 -0.08345,-0.09609 -0.14477,-0.214939 -0.183964,-0.356547 -0.03919,-0.141607 -0.06385,-0.295858 -0.07396,-0.462753 l -0.03035,-0.591717 -0.06448,-0.60689 c -0.02782,-0.336315 -0.05753,-0.617633 -0.08914,-0.843955 -0.03161,-0.226316 -0.06511,-0.405222 -0.100516,-0.536718 l 0.2731,-0.534821 c 0.02023,0.05816 0.04236,0.154887 0.06638,0.290169 0.02402,0.135289 0.04362,0.314195 0.05879,0.536718 l 0.07966,1.19102 0,0.356547 0.04172,0.451374 0.04172,0.28448 c 0.01517,0.134022 0.09103,0.262986 0.227583,0.386891 0.131492,0.123908 0.297122,0.185861 0.496891,0.18586 l 0.0531,0 0,0.534822 z"
         style="fill:#ffffff"
         id="path3070" />
      <path
         d="m 45.362829,13.646361 -0.493097,-0.345168 0.341375,-0.481719 0.455167,0.360341 z m 1.634808,1.4755 c -3e-6,0.614476 -0.19092,1.097458 -0.572752,1.448948 -0.318619,0.288272 -0.714361,0.432408 -1.187227,0.432408 -0.283216,0 -0.520914,-0.06954 -0.713095,-0.208618 -0.237698,-0.177009 -0.356547,-0.442523 -0.356547,-0.796542 0,-0.07586 0.0032,-0.147929 0.0095,-0.216204 0.0063,-0.06827 0.01581,-0.131492 0.02845,-0.189653 l 0.04552,-0.197239 0.07586,-0.201032 c 0.106205,-0.260455 0.190917,-0.390684 0.254135,-0.390685 0.01264,1e-6 0.02529,0.02149 0.03793,0.06448 -1e-6,0.05058 -0.0354,0.177011 -0.106206,0.379305 -0.06827,0.209884 -0.102413,0.362871 -0.102412,0.45896 -1e-6,0.207355 0.08345,0.390686 0.250341,0.549994 0.0354,0.02529 0.07649,0.05057 0.123275,0.07586 0.04678,0.02529 0.100515,0.05057 0.161205,0.07586 0.121376,0.03287 0.238961,0.04931 0.352754,0.04931 0.280685,0 0.579072,-0.07586 0.895162,-0.227584 0.389418,-0.184595 0.584128,-0.421028 0.584131,-0.709301 -3e-6,-0.0885 -0.01138,-0.179537 -0.03414,-0.273101 -0.02276,-0.09356 -0.06196,-0.197237 -0.117585,-0.31103 l -0.367926,-0.629648 0.13655,-0.527235 c 0.06322,0.07334 0.128329,0.166265 0.195342,0.27879 0.06701,0.11253 0.135915,0.248447 0.206722,0.407753 l 0.117585,0.329997 0.08345,0.326203 z"
         style="fill:#ffffff"
         id="path3072" />
    </g>
  </g>
</svg>
