<?xml version="1.0" encoding="UTF-8" standalone="no"?>
<!-- Created with Inkscape (http://www.inkscape.org/) -->

<svg
   xmlns:dc="http://purl.org/dc/elements/1.1/"
   xmlns:cc="http://creativecommons.org/ns#"
   xmlns:rdf="http://www.w3.org/1999/02/22-rdf-syntax-ns#"
   xmlns:svg="http://www.w3.org/2000/svg"
   xmlns="http://www.w3.org/2000/svg"
   xmlns:sodipodi="http://sodipodi.sourceforge.net/DTD/sodipodi-0.dtd"
   xmlns:inkscape="http://www.inkscape.org/namespaces/inkscape"
   width="64"
   height="32"
   id="svg2"
   version="1.1"
   inkscape:version="0.48.4 r9939"
   sodipodi:docname="D:\Thaghra\hijri_date\img\years\template.svg">
  <defs
     id="defs4" />
  <sodipodi:namedview
     id="base"
     pagecolor="#ffffff"
     bordercolor="#666666"
     borderopacity="1.0"
     inkscape:pageopacity="0.0"
     inkscape:pageshadow="2"
     inkscape:zoom="4.0546875"
     inkscape:cx="3.4527933"
     inkscape:cy="35.701469"
     inkscape:document-units="px"
     inkscape:current-layer="layer1"
     showgrid="false"
     inkscape:window-width="1366"
     inkscape:window-height="706"
     inkscape:window-x="-8"
     inkscape:window-y="-8"
     inkscape:window-maximized="1" />
  <metadata
     id="metadata7">
    <rdf:RDF>
      <cc:Work
         rdf:about="">
        <dc:format>image/svg+xml</dc:format>
        <dc:type
           rdf:resource="http://purl.org/dc/dcmitype/StillImage" />
        <dc:title></dc:title>
      </cc:Work>
    </rdf:RDF>
  </metadata>
  <g
     inkscape:label="Layer 1"
     inkscape:groupmode="layer"
     id="layer1"
     transform="translate(0,-1020.3622)">
    <g
       transform="matrix(1.7057212,0,0,1.7057212,-10.964963,1001.7704)"
       style="font-size:16.41534424000000000px;font-style:normal;font-variant:normal;font-weight:normal;font-stretch:normal;text-align:start;line-height:141.99999571000001000%;letter-spacing:0px;word-spacing:0px;writing-mode:lr-tb;text-anchor:start;fill:#ffffff;fill-opacity:1;stroke:none;font-family:Gulim;-inkscape-font-specification:Gulim"
       id="flowRoot2985">
      <path
         d="m 8.396673,16.961515 1.763367,0 0,8.896988 c -4e-6,0.18168 0.04809,0.331299 0.144276,0.448857 0.09618,0.09618 0.213736,0.149619 0.352673,0.160306 0.12824,0 0.240454,-0.05344 0.336643,-0.160306 0.106865,-0.106871 0.1603,-0.251146 0.160306,-0.432826 l 0,-11.365703 c -6e-6,-0.277852 -0.138937,-0.41144 -0.416796,-0.400765 -0.277869,0.0107 -0.422144,0.144287 -0.432826,0.400765 -0.03207,0.630549 -0.229777,1.084749 -0.593133,1.362602 -0.3099288,0.235126 -0.764129,0.352683 -1.3626018,0.352674 -0.2458051,9e-6 -0.3633628,0.122911 -0.3526734,0.368704 0.010685,0.245812 0.144273,0.368713 0.4007652,0.368704 z"
         style="fill:#ffffff"
         id="path2996" />
      <path
         d="m 21.173069,15.935556 0,6.508427 -4.21605,0 z m -0.192367,-1.394663 -4.98552,7.63057 c -0.170994,0.26718 -0.229773,0.52367 -0.176336,0.769469 0.06412,0.256493 0.235114,0.384737 0.512979,0.384735 l 4.841244,0 0,2.62902 c -6e-6,0.160306 0.04809,0.283207 0.144276,0.368704 0.09618,0.0855 0.213735,0.128244 0.352673,0.128244 0.128238,0 0.240452,-0.04275 0.336643,-0.128244 0.106864,-0.09618 0.160299,-0.219085 0.160306,-0.368704 l 0,-2.62902 1.522908,0 c 0.14961,2e-6 0.267168,-0.04809 0.352673,-0.144276 0.08549,-0.08549 0.128236,-0.18702 0.128245,-0.304581 -9e-6,-0.117555 -0.03741,-0.219082 -0.112214,-0.304582 -0.08551,-0.08549 -0.192376,-0.128241 -0.320612,-0.128245 l -1.571,0 0,-7.790876 c -7e-6,-0.341975 -0.149626,-0.523655 -0.448857,-0.545041 -0.299245,-0.01068 -0.545047,0.1336 -0.737408,0.432827 z"
         style="fill:#ffffff"
         id="path2998" />
      <path
         d="m 29.156313,14.108066 c -1.079398,1.2e-5 -1.934363,0.325968 -2.564898,0.977867 -0.566416,0.5878 -0.849623,1.31452 -0.849622,2.180163 -1e-6,0.160315 0.04809,0.293903 0.144276,0.400765 0.0855,0.0855 0.197709,0.128254 0.336642,0.128245 0.128243,9e-6 0.235114,-0.04274 0.320613,-0.128245 0.106868,-0.106862 0.160304,-0.24045 0.160306,-0.400765 -2e-6,-0.619841 0.197708,-1.143507 0.593132,-1.571 0.448854,-0.459533 1.06336,-0.689305 1.84352,-0.689316 0.758777,1.1e-5 1.362596,0.229783 1.811459,0.689316 0.416789,0.427493 0.625187,0.951159 0.625194,1.571 -7e-6,0.598485 -0.208405,1.10612 -0.625194,1.522908 -0.438176,0.448864 -1.041995,0.673292 -1.811459,0.673286 l -0.448857,0 c -0.299242,6e-6 -0.448861,0.144282 -0.448857,0.432826 -4e-6,0.299244 0.149615,0.448863 0.448857,0.448857 l 0.561072,0 c 0.865647,6e-6 1.554962,0.261839 2.067948,0.7855 0.459537,0.480923 0.689309,1.084742 0.689316,1.811459 -7e-6,0.694662 -0.229779,1.287794 -0.689316,1.779398 -0.512986,0.555728 -1.202301,0.833592 -2.067948,0.833591 -0.865657,1e-6 -1.554973,-0.277863 -2.067949,-0.833591 -0.448859,-0.491604 -0.673288,-1.084736 -0.673286,-1.779398 l 0,-0.352673 c -2e-6,-0.160303 -0.05344,-0.283204 -0.160306,-0.368704 -0.09618,-0.07481 -0.208399,-0.112211 -0.336643,-0.112215 -0.138933,4e-6 -0.256491,0.03741 -0.352673,0.112215 -0.09618,0.0855 -0.144276,0.208401 -0.144275,0.368704 l 0,0.336642 c -1e-6,0.951152 0.309923,1.758025 0.929775,2.420622 0.68397,0.737409 1.619088,1.106112 2.805357,1.106112 1.154198,0 2.078629,-0.368703 2.773295,-1.106112 0.641216,-0.673284 0.961828,-1.480157 0.961837,-2.420622 -9e-6,-0.790839 -0.229781,-1.485498 -0.689317,-2.083979 -0.35268,-0.448851 -0.764132,-0.774807 -1.234357,-0.977867 0.34198,-0.149613 0.657248,-0.416789 0.945806,-0.801531 0.395414,-0.512971 0.593125,-1.111447 0.593133,-1.795428 -8e-6,-0.854956 -0.288559,-1.581676 -0.865653,-2.180163 -0.641231,-0.651899 -1.501539,-0.977855 -2.580928,-0.977867 z"
         style="fill:#ffffff"
         id="path3000" />
      <path
         d="m 35.969322,22.476044 c -2e-6,-0.844274 0.261831,-1.544277 0.7855,-2.10001 0.53435,-0.555721 1.207635,-0.833585 2.019857,-0.833591 0.887021,6e-6 1.56565,0.293901 2.035887,0.881683 0.406102,0.523672 0.609156,1.202301 0.609164,2.035888 -8e-6,0.929778 -0.251154,1.677872 -0.753439,2.244285 -0.491612,0.566416 -1.138179,0.849623 -1.939704,0.849622 -0.812221,1e-6 -1.474819,-0.283206 -1.987795,-0.849622 -0.512982,-0.566413 -0.769472,-1.309164 -0.76947,-2.228255 z m 3.093908,-8.367978 c -1.410697,1.2e-5 -2.47406,0.721389 -3.190091,2.164132 -0.609165,1.261084 -0.913746,2.944296 -0.913745,5.049642 -1e-6,1.966425 0.400764,3.371773 1.202296,4.216051 0.587786,0.609163 1.394659,0.913744 2.420622,0.913744 1.207633,0 2.142751,-0.352673 2.805356,-1.05802 0.683965,-0.716032 1.025951,-1.731303 1.025959,-3.045816 -8e-6,-1.207634 -0.390086,-2.158782 -1.170234,-2.853448 -0.651918,-0.566408 -1.389326,-0.849615 -2.212224,-0.849622 -0.780161,7e-6 -1.448102,0.15497 -2.003827,0.464887 -0.448859,0.256497 -0.801532,0.598483 -1.05802,1.025959 0.07481,-1.357251 0.315267,-2.479392 0.721378,-3.366428 0.545037,-1.175567 1.330536,-1.763356 2.356499,-1.763367 0.630532,1.1e-5 1.12748,0.176348 1.490847,0.52901 0.309918,0.299249 0.507629,0.710701 0.593133,1.234357 0.06411,0.320622 0.256482,0.45421 0.577102,0.400766 0.331291,-0.06411 0.48091,-0.245794 0.448857,-0.545041 -0.106879,-0.854956 -0.464896,-1.501523 -1.074051,-1.939704 -0.534361,-0.384723 -1.207645,-0.57709 -2.019857,-0.577102 z"
         style="fill:#ffffff"
         id="path3002" />
    </g>
  </g>
</svg>
