<?xml version="1.0" encoding="UTF-8" standalone="no"?>
<!-- Created with Inkscape (http://www.inkscape.org/) -->

<svg
   xmlns:dc="http://purl.org/dc/elements/1.1/"
   xmlns:cc="http://creativecommons.org/ns#"
   xmlns:rdf="http://www.w3.org/1999/02/22-rdf-syntax-ns#"
   xmlns:svg="http://www.w3.org/2000/svg"
   xmlns="http://www.w3.org/2000/svg"
   xmlns:sodipodi="http://sodipodi.sourceforge.net/DTD/sodipodi-0.dtd"
   xmlns:inkscape="http://www.inkscape.org/namespaces/inkscape"
   width="64"
   height="32"
   id="svg2"
   version="1.1"
   inkscape:version="0.48.4 r9939"
   sodipodi:docname="D:\Thaghra\hijri_date\img\years\template.svg">
  <defs
     id="defs4" />
  <sodipodi:namedview
     id="base"
     pagecolor="#ffffff"
     bordercolor="#666666"
     borderopacity="1.0"
     inkscape:pageopacity="0.0"
     inkscape:pageshadow="2"
     inkscape:zoom="4.0546875"
     inkscape:cx="3.4527933"
     inkscape:cy="35.701469"
     inkscape:document-units="px"
     inkscape:current-layer="layer1"
     showgrid="false"
     inkscape:window-width="1366"
     inkscape:window-height="706"
     inkscape:window-x="-8"
     inkscape:window-y="-8"
     inkscape:window-maximized="1" />
  <metadata
     id="metadata7">
    <rdf:RDF>
      <cc:Work
         rdf:about="">
        <dc:format>image/svg+xml</dc:format>
        <dc:type
           rdf:resource="http://purl.org/dc/dcmitype/StillImage" />
        <dc:title></dc:title>
      </cc:Work>
    </rdf:RDF>
  </metadata>
  <g
     inkscape:label="Layer 1"
     inkscape:groupmode="layer"
     id="layer1"
     transform="translate(0,-1020.3622)">
    <g
       transform="matrix(1.7057212,0,0,1.7057212,-10.964963,1001.7704)"
       style="font-size:16.41534424000000000px;font-style:normal;font-variant:normal;font-weight:normal;font-stretch:normal;text-align:start;line-height:141.99999571000001000%;letter-spacing:0px;word-spacing:0px;writing-mode:lr-tb;text-anchor:start;fill:#ffffff;fill-opacity:1;stroke:none;font-family:Gulim;-inkscape-font-specification:Gulim"
       id="flowRoot2985">
      <path
         d="m 8.396673,16.961515 1.763367,0 0,8.896988 c -4e-6,0.18168 0.04809,0.331299 0.144276,0.448857 0.09618,0.09618 0.213736,0.149619 0.352673,0.160306 0.12824,0 0.240454,-0.05344 0.336643,-0.160306 0.106865,-0.106871 0.1603,-0.251146 0.160306,-0.432826 l 0,-11.365703 c -6e-6,-0.277852 -0.138937,-0.41144 -0.416796,-0.400765 -0.277869,0.0107 -0.422144,0.144287 -0.432826,0.400765 -0.03207,0.630549 -0.229777,1.084749 -0.593133,1.362602 -0.3099288,0.235126 -0.764129,0.352683 -1.3626018,0.352674 -0.2458051,9e-6 -0.3633628,0.122911 -0.3526734,0.368704 0.010685,0.245812 0.144273,0.368713 0.4007652,0.368704 z"
         style="fill:#ffffff"
         id="path3014" />
      <path
         d="m 21.173069,15.935556 0,6.508427 -4.21605,0 z m -0.192367,-1.394663 -4.98552,7.63057 c -0.170994,0.26718 -0.229773,0.52367 -0.176336,0.769469 0.06412,0.256493 0.235114,0.384737 0.512979,0.384735 l 4.841244,0 0,2.62902 c -6e-6,0.160306 0.04809,0.283207 0.144276,0.368704 0.09618,0.0855 0.213735,0.128244 0.352673,0.128244 0.128238,0 0.240452,-0.04275 0.336643,-0.128244 0.106864,-0.09618 0.160299,-0.219085 0.160306,-0.368704 l 0,-2.62902 1.522908,0 c 0.14961,2e-6 0.267168,-0.04809 0.352673,-0.144276 0.08549,-0.08549 0.128236,-0.18702 0.128245,-0.304581 -9e-6,-0.117555 -0.03741,-0.219082 -0.112214,-0.304582 -0.08551,-0.08549 -0.192376,-0.128241 -0.320612,-0.128245 l -1.571,0 0,-7.790876 c -7e-6,-0.341975 -0.149626,-0.523655 -0.448857,-0.545041 -0.299245,-0.01068 -0.545047,0.1336 -0.737408,0.432827 z"
         style="fill:#ffffff"
         id="path3016" />
      <path
         d="m 29.156313,14.108066 c -1.079398,1.2e-5 -1.934363,0.325968 -2.564898,0.977867 -0.566416,0.5878 -0.849623,1.31452 -0.849622,2.180163 -1e-6,0.160315 0.04809,0.293903 0.144276,0.400765 0.0855,0.0855 0.197709,0.128254 0.336642,0.128245 0.128243,9e-6 0.235114,-0.04274 0.320613,-0.128245 0.106868,-0.106862 0.160304,-0.24045 0.160306,-0.400765 -2e-6,-0.619841 0.197708,-1.143507 0.593132,-1.571 0.448854,-0.459533 1.06336,-0.689305 1.84352,-0.689316 0.758777,1.1e-5 1.362596,0.229783 1.811459,0.689316 0.416789,0.427493 0.625187,0.951159 0.625194,1.571 -7e-6,0.598485 -0.208405,1.10612 -0.625194,1.522908 -0.438176,0.448864 -1.041995,0.673292 -1.811459,0.673286 l -0.448857,0 c -0.299242,6e-6 -0.448861,0.144282 -0.448857,0.432826 -4e-6,0.299244 0.149615,0.448863 0.448857,0.448857 l 0.561072,0 c 0.865647,6e-6 1.554962,0.261839 2.067948,0.7855 0.459537,0.480923 0.689309,1.084742 0.689316,1.811459 -7e-6,0.694662 -0.229779,1.287794 -0.689316,1.779398 -0.512986,0.555728 -1.202301,0.833592 -2.067948,0.833591 -0.865657,1e-6 -1.554973,-0.277863 -2.067949,-0.833591 -0.448859,-0.491604 -0.673288,-1.084736 -0.673286,-1.779398 l 0,-0.352673 c -2e-6,-0.160303 -0.05344,-0.283204 -0.160306,-0.368704 -0.09618,-0.07481 -0.208399,-0.112211 -0.336643,-0.112215 -0.138933,4e-6 -0.256491,0.03741 -0.352673,0.112215 -0.09618,0.0855 -0.144276,0.208401 -0.144275,0.368704 l 0,0.336642 c -1e-6,0.951152 0.309923,1.758025 0.929775,2.420622 0.68397,0.737409 1.619088,1.106112 2.805357,1.106112 1.154198,0 2.078629,-0.368703 2.773295,-1.106112 0.641216,-0.673284 0.961828,-1.480157 0.961837,-2.420622 -9e-6,-0.790839 -0.229781,-1.485498 -0.689317,-2.083979 -0.35268,-0.448851 -0.764132,-0.774807 -1.234357,-0.977867 0.34198,-0.149613 0.657248,-0.416789 0.945806,-0.801531 0.395414,-0.512971 0.593125,-1.111447 0.593133,-1.795428 -8e-6,-0.854956 -0.288559,-1.581676 -0.865653,-2.180163 -0.641231,-0.651899 -1.501539,-0.977855 -2.580928,-0.977867 z"
         style="fill:#ffffff"
         id="path3018" />
      <path
         d="m 42.22126,17.153882 c -8e-6,-0.822895 -0.299246,-1.522897 -0.897714,-2.10001 -0.662605,-0.630526 -1.538944,-0.945794 -2.62902,-0.945806 -1.090085,1.2e-5 -1.966424,0.31528 -2.62902,0.945806 -0.587791,0.577113 -0.881685,1.277115 -0.881684,2.10001 -10e-7,0.683981 0.181679,1.266426 0.545041,1.747336 0.277862,0.374055 0.609161,0.641231 0.993898,0.801531 -0.598478,0.320618 -1.063366,0.742757 -1.394663,1.266418 -0.341987,0.555732 -0.51298,1.186269 -0.51298,1.891612 0,0.961839 0.325955,1.784743 0.977868,2.468714 0.726718,0.748095 1.688554,1.122142 2.885509,1.122142 1.207634,0 2.174813,-0.374047 2.901541,-1.122142 0.66259,-0.683971 0.993889,-1.506875 0.993897,-2.468714 -8e-6,-0.705343 -0.187032,-1.346567 -0.561071,-1.923673 -0.352681,-0.545035 -0.812225,-0.951144 -1.378632,-1.218327 0.395414,-0.160299 0.7374,-0.427476 1.025959,-0.80153 0.374039,-0.491598 0.561063,-1.079386 0.561071,-1.763367 z m -3.526734,3.029785 c 0.897708,6e-6 1.619085,0.27787 2.164132,0.833592 0.502285,0.502297 0.753431,1.122147 0.753439,1.859551 -8e-6,0.726723 -0.251154,1.341229 -0.753439,1.84352 -0.545047,0.555728 -1.266424,0.833592 -2.164132,0.833591 -0.908405,1e-6 -1.629782,-0.277863 -2.164132,-0.833591 -0.491608,-0.502291 -0.73741,-1.116797 -0.737408,-1.84352 -2e-6,-0.737404 0.2458,-1.357254 0.737408,-1.859551 0.53435,-0.555722 1.255727,-0.833586 2.164132,-0.833592 z m 0,-5.177887 c 0.790838,1.1e-5 1.426718,0.219096 1.907642,0.657255 0.438163,0.406119 0.657248,0.903067 0.657255,1.490847 -7e-6,0.587797 -0.219092,1.079402 -0.657255,1.474816 -0.480924,0.448864 -1.116804,0.673292 -1.907642,0.673286 -0.790847,6e-6 -1.421384,-0.224422 -1.891612,-0.673286 -0.427485,-0.395414 -0.641227,-0.887019 -0.641224,-1.474816 -3e-6,-0.58778 0.213739,-1.084728 0.641224,-1.490847 0.470228,-0.438159 1.100765,-0.657244 1.891612,-0.657255 z"
         style="fill:#ffffff"
         id="path3020" />
    </g>
  </g>
</svg>
