<?xml version="1.0" encoding="UTF-8" standalone="no"?>
<!-- Created with Inkscape (http://www.inkscape.org/) -->

<svg
   xmlns:dc="http://purl.org/dc/elements/1.1/"
   xmlns:cc="http://creativecommons.org/ns#"
   xmlns:rdf="http://www.w3.org/1999/02/22-rdf-syntax-ns#"
   xmlns:svg="http://www.w3.org/2000/svg"
   xmlns="http://www.w3.org/2000/svg"
   xmlns:sodipodi="http://sodipodi.sourceforge.net/DTD/sodipodi-0.dtd"
   xmlns:inkscape="http://www.inkscape.org/namespaces/inkscape"
   width="64"
   height="32"
   id="svg2"
   version="1.1"
   inkscape:version="0.48.4 r9939"
   sodipodi:docname="D:\Thaghra\hijri_date\img\years\template.svg">
  <defs
     id="defs4" />
  <sodipodi:namedview
     id="base"
     pagecolor="#ffffff"
     bordercolor="#666666"
     borderopacity="1.0"
     inkscape:pageopacity="0.0"
     inkscape:pageshadow="2"
     inkscape:zoom="4.0546875"
     inkscape:cx="3.4527933"
     inkscape:cy="35.701469"
     inkscape:document-units="px"
     inkscape:current-layer="layer1"
     showgrid="false"
     inkscape:window-width="1366"
     inkscape:window-height="706"
     inkscape:window-x="-8"
     inkscape:window-y="-8"
     inkscape:window-maximized="1" />
  <metadata
     id="metadata7">
    <rdf:RDF>
      <cc:Work
         rdf:about="">
        <dc:format>image/svg+xml</dc:format>
        <dc:type
           rdf:resource="http://purl.org/dc/dcmitype/StillImage" />
        <dc:title></dc:title>
      </cc:Work>
    </rdf:RDF>
  </metadata>
  <g
     inkscape:label="Layer 1"
     inkscape:groupmode="layer"
     id="layer1"
     transform="translate(0,-1020.3622)">
    <g
       transform="matrix(1.7057212,0,0,1.7057212,-10.964963,1001.7704)"
       style="font-size:16.41534424000000000px;font-style:normal;font-variant:normal;font-weight:normal;font-stretch:normal;text-align:start;line-height:141.99999571000001000%;letter-spacing:0px;word-spacing:0px;writing-mode:lr-tb;text-anchor:start;fill:#ffffff;fill-opacity:1;stroke:none;font-family:Gulim;-inkscape-font-specification:Gulim"
       id="flowRoot2985">
      <path
         d="m 8.396673,16.961515 1.763367,0 0,8.896988 c -4e-6,0.18168 0.04809,0.331299 0.144276,0.448857 0.09618,0.09618 0.213736,0.149619 0.352673,0.160306 0.12824,0 0.240454,-0.05344 0.336643,-0.160306 0.106865,-0.106871 0.1603,-0.251146 0.160306,-0.432826 l 0,-11.365703 c -6e-6,-0.277852 -0.138937,-0.41144 -0.416796,-0.400765 -0.277869,0.0107 -0.422144,0.144287 -0.432826,0.400765 -0.03207,0.630549 -0.229777,1.084749 -0.593133,1.362602 -0.3099288,0.235126 -0.764129,0.352683 -1.3626018,0.352674 -0.2458051,9e-6 -0.3633628,0.122911 -0.3526734,0.368704 0.010685,0.245812 0.144273,0.368713 0.4007652,0.368704 z"
         style="fill:#ffffff"
         id="path3032" />
      <path
         d="m 21.173069,15.935556 0,6.508427 -4.21605,0 z m -0.192367,-1.394663 -4.98552,7.63057 c -0.170994,0.26718 -0.229773,0.52367 -0.176336,0.769469 0.06412,0.256493 0.235114,0.384737 0.512979,0.384735 l 4.841244,0 0,2.62902 c -6e-6,0.160306 0.04809,0.283207 0.144276,0.368704 0.09618,0.0855 0.213735,0.128244 0.352673,0.128244 0.128238,0 0.240452,-0.04275 0.336643,-0.128244 0.106864,-0.09618 0.160299,-0.219085 0.160306,-0.368704 l 0,-2.62902 1.522908,0 c 0.14961,2e-6 0.267168,-0.04809 0.352673,-0.144276 0.08549,-0.08549 0.128236,-0.18702 0.128245,-0.304581 -9e-6,-0.117555 -0.03741,-0.219082 -0.112214,-0.304582 -0.08551,-0.08549 -0.192376,-0.128241 -0.320612,-0.128245 l -1.571,0 0,-7.790876 c -7e-6,-0.341975 -0.149626,-0.523655 -0.448857,-0.545041 -0.299245,-0.01068 -0.545047,0.1336 -0.737408,0.432827 z"
         style="fill:#ffffff"
         id="path3034" />
      <path
         d="m 30.599068,15.935556 0,6.508427 -4.216051,0 z m -0.192368,-1.394663 -4.985519,7.63057 c -0.170994,0.26718 -0.229773,0.52367 -0.176337,0.769469 0.06412,0.256493 0.235115,0.384737 0.51298,0.384735 l 4.841244,0 0,2.62902 c -6e-6,0.160306 0.04809,0.283207 0.144275,0.368704 0.09618,0.0855 0.213735,0.128244 0.352674,0.128244 0.128238,0 0.240452,-0.04275 0.336643,-0.128244 0.106863,-0.09618 0.160299,-0.219085 0.160306,-0.368704 l 0,-2.62902 1.522908,0 c 0.14961,2e-6 0.267167,-0.04809 0.352673,-0.144276 0.08549,-0.08549 0.128236,-0.18702 0.128245,-0.304581 -9e-6,-0.117555 -0.03741,-0.219082 -0.112214,-0.304582 -0.08551,-0.08549 -0.192377,-0.128241 -0.320613,-0.128245 l -1.570999,0 0,-7.790876 c -7e-6,-0.341975 -0.149626,-0.523655 -0.448857,-0.545041 -0.299245,-0.01068 -0.545047,0.1336 -0.737409,0.432827 z"
         style="fill:#ffffff"
         id="path3036" />
      <path
         d="m 38.678495,14.108066 c -1.175581,1.2e-5 -2.105356,0.635892 -2.789326,1.907643 -0.609164,1.154213 -0.913746,2.575592 -0.913745,4.264142 -10e-7,1.677874 0.304581,3.09391 0.913745,4.248111 0.68397,1.282449 1.613745,1.923673 2.789326,1.923673 1.164885,0 2.089316,-0.641224 2.773296,-1.923673 0.619842,-1.154201 0.929767,-2.570237 0.929775,-4.248111 -8e-6,-1.68855 -0.309933,-3.109929 -0.929775,-4.264142 -0.68398,-1.271751 -1.608411,-1.907631 -2.773296,-1.907643 z m 0,0.897714 c 0.844274,1.1e-5 1.517558,0.545052 2.019857,1.635122 0.44885,0.98322 0.673278,2.201545 0.673286,3.654979 -8e-6,1.432073 -0.224436,2.639711 -0.673286,3.622918 -0.502299,1.090083 -1.175583,1.635123 -2.019857,1.635122 -0.865656,1e-6 -1.544285,-0.545039 -2.035887,-1.635122 -0.438172,-0.983207 -0.657257,-2.190845 -0.657255,-3.622918 -2e-6,-1.453434 0.219083,-2.671759 0.657255,-3.654979 0.491602,-1.09007 1.170231,-1.635111 2.035887,-1.635122 z"
         style="fill:#ffffff"
         id="path3038" />
    </g>
  </g>
</svg>
