<?xml version="1.0" encoding="UTF-8" standalone="no"?>
<!-- Created with Inkscape (http://www.inkscape.org/) -->

<svg
   xmlns:dc="http://purl.org/dc/elements/1.1/"
   xmlns:cc="http://creativecommons.org/ns#"
   xmlns:rdf="http://www.w3.org/1999/02/22-rdf-syntax-ns#"
   xmlns:svg="http://www.w3.org/2000/svg"
   xmlns="http://www.w3.org/2000/svg"
   xmlns:sodipodi="http://sodipodi.sourceforge.net/DTD/sodipodi-0.dtd"
   xmlns:inkscape="http://www.inkscape.org/namespaces/inkscape"
   width="64"
   height="64"
   id="svg2"
   version="1.1"
   inkscape:version="0.48.4 r9939"
   sodipodi:docname="D:\Thaghra\hijri_date\img\days\1.svg">
  <defs
     id="defs4" />
  <sodipodi:namedview
     id="base"
     pagecolor="#ffffff"
     bordercolor="#666666"
     borderopacity="1.0"
     inkscape:pageopacity="0.0"
     inkscape:pageshadow="2"
     inkscape:zoom="4.0546875"
     inkscape:cx="3.4527933"
     inkscape:cy="35.701469"
     inkscape:document-units="px"
     inkscape:current-layer="layer1"
     showgrid="false"
     inkscape:window-width="1366"
     inkscape:window-height="706"
     inkscape:window-x="-8"
     inkscape:window-y="-8"
     inkscape:window-maximized="1" />
  <metadata
     id="metadata7">
    <rdf:RDF>
      <cc:Work
         rdf:about="">
        <dc:format>image/svg+xml</dc:format>
        <dc:type
           rdf:resource="http://purl.org/dc/dcmitype/StillImage" />
        <dc:title></dc:title>
      </cc:Work>
    </rdf:RDF>
  </metadata>
  <g
     inkscape:label="Layer 1"
     inkscape:groupmode="layer"
     id="layer1"
     transform="translate(0,-988.36218)">
    <g
       transform="matrix(3.3620304,0,0,3.3620304,-0.11959427,952.31338)"
       style="font-size:16.35916138000000000px;font-style:normal;font-variant:normal;font-weight:normal;font-stretch:normal;text-align:start;line-height:141.99999571000001000%;letter-spacing:0px;word-spacing:0px;writing-mode:lr-tb;text-anchor:start;fill:#ffffff;fill-opacity:1;stroke:none;font-family:Gulim;-inkscape-font-specification:Gulim"
       id="flowRoot2985">
      <path
         d="m 8.3874007,16.93341 1.7573313,0 0,8.866538 c -4e-6,0.181058 0.04792,0.330165 0.143782,0.44732 0.09585,0.09586 0.213005,0.149107 0.351466,0.159758 0.127801,0 0.239631,-0.05325 0.335491,-0.159758 0.1065,-0.106505 0.159752,-0.250286 0.159758,-0.431345 l 0,-11.326802 c -6e-6,-0.276901 -0.138462,-0.410032 -0.41537,-0.399393 -0.276917,0.01066 -0.420699,0.143793 -0.431345,0.399393 -0.03196,0.62839 -0.22899,1.081036 -0.5911024,1.357938 -0.308868,0.234321 -0.7615137,0.351477 -1.3579382,0.351467 -0.2449638,10e-6 -0.3621191,0.12249 -0.3514663,0.367442 0.010648,0.244971 0.1437792,0.367451 0.3993936,0.367442 z"
         style="fill:#ffffff"
         id="path2989" />
    </g>
  </g>
</svg>
