<?xml version="1.0" encoding="UTF-8" standalone="no"?>
<!-- Created with Inkscape (http://www.inkscape.org/) -->

<svg
   xmlns:dc="http://purl.org/dc/elements/1.1/"
   xmlns:cc="http://creativecommons.org/ns#"
   xmlns:rdf="http://www.w3.org/1999/02/22-rdf-syntax-ns#"
   xmlns:svg="http://www.w3.org/2000/svg"
   xmlns="http://www.w3.org/2000/svg"
   xmlns:sodipodi="http://sodipodi.sourceforge.net/DTD/sodipodi-0.dtd"
   xmlns:inkscape="http://www.inkscape.org/namespaces/inkscape"
   width="64"
   height="64"
   id="svg2"
   version="1.1"
   inkscape:version="0.48.4 r9939"
   sodipodi:docname="1.svg">
  <defs
     id="defs4" />
  <sodipodi:namedview
     id="base"
     pagecolor="#ffffff"
     bordercolor="#666666"
     borderopacity="1.0"
     inkscape:pageopacity="0.0"
     inkscape:pageshadow="2"
     inkscape:zoom="4.665165"
     inkscape:cx="32.004933"
     inkscape:cy="32.004933"
     inkscape:document-units="px"
     inkscape:current-layer="layer1"
     showgrid="false"
     inkscape:window-width="1366"
     inkscape:window-height="706"
     inkscape:window-x="-8"
     inkscape:window-y="-8"
     inkscape:window-maximized="1" />
  <metadata
     id="metadata7">
    <rdf:RDF>
      <cc:Work
         rdf:about="">
        <dc:format>image/svg+xml</dc:format>
        <dc:type
           rdf:resource="http://purl.org/dc/dcmitype/StillImage" />
        <dc:title></dc:title>
      </cc:Work>
    </rdf:RDF>
  </metadata>
  <g
     inkscape:label="Layer 1"
     inkscape:groupmode="layer"
     id="layer1"
     transform="translate(0,-988.36218)">
    <g
       transform="matrix(3.3620304,0,0,3.3620304,-20.932581,952.31338)"
       style="font-size:16.35916138000000000px;font-style:normal;font-variant:normal;font-weight:normal;font-stretch:normal;text-align:start;line-height:141.99999571000001000%;letter-spacing:0px;word-spacing:0px;writing-mode:lr-tb;text-anchor:start;fill:#ffffff;fill-opacity:1;stroke:none;font-family:Gulim;-inkscape-font-specification:Gulim"
       id="flowRoot2985">
      <path
         d="m 8.3874007,16.93341 1.7573313,0 0,8.866538 c -4e-6,0.181058 0.04792,0.330165 0.143782,0.44732 0.09585,0.09586 0.213005,0.149107 0.351466,0.159758 0.127801,0 0.239631,-0.05325 0.335491,-0.159758 0.1065,-0.106505 0.159752,-0.250286 0.159758,-0.431345 l 0,-11.326802 c -6e-6,-0.276901 -0.138462,-0.410032 -0.41537,-0.399393 -0.276917,0.01066 -0.420699,0.143793 -0.431345,0.399393 -0.03196,0.62839 -0.22899,1.081036 -0.5911024,1.357938 -0.308868,0.234321 -0.7615137,0.351477 -1.3579382,0.351467 -0.2449638,10e-6 -0.3621191,0.12249 -0.3514663,0.367442 0.010648,0.244971 0.1437792,0.367451 0.3993936,0.367442 z"
         style="fill:#ffffff"
         id="path3033" />
      <path
         d="m 19.810057,14.089728 c -1.086354,1.2e-5 -1.949044,0.335502 -2.588071,1.006471 -0.564477,0.596439 -0.846715,1.331322 -0.846714,2.204653 l 0,0.415369 c -10e-7,0.181067 0.04793,0.324849 0.143782,0.431346 0.09585,0.09586 0.213008,0.143789 0.351466,0.143781 0.138455,8e-6 0.25561,-0.04792 0.351466,-0.143781 0.106503,-0.09585 0.159756,-0.223653 0.159758,-0.383418 l 0,-0.463297 c -2e-6,-0.63902 0.202357,-1.171544 0.607078,-1.597574 0.447318,-0.479262 1.054395,-0.718898 1.821235,-0.718909 0.76683,1.1e-5 1.379233,0.239647 1.83721,0.718909 0.404712,0.42603 0.607072,0.958554 0.607079,1.597574 -7e-6,0.777494 -0.239643,1.437824 -0.718909,1.980992 -0.372773,0.404726 -1.091681,0.93725 -2.156725,1.597575 -1.118305,0.670985 -1.938393,1.400544 -2.460265,2.188677 -0.575128,0.862692 -0.857366,1.879813 -0.846714,3.051367 l 6.9814,0 c 0.138448,0 0.250278,-0.04793 0.33549,-0.143782 0.0852,-0.0852 0.127798,-0.186384 0.127806,-0.303539 -8e-6,-0.127806 -0.04261,-0.234311 -0.127806,-0.319515 -0.08521,-0.0852 -0.197042,-0.127805 -0.33549,-0.127806 l -5.927001,0 c 0.07455,-0.766834 0.292886,-1.395213 0.655005,-1.885138 0.415367,-0.575123 1.187527,-1.214152 2.316483,-1.917089 l 0.319515,-0.22366 c 1.043742,-0.660326 1.730699,-1.182199 2.060871,-1.565623 0.521866,-0.596421 0.782803,-1.373906 0.782812,-2.332459 -9e-6,-0.873331 -0.287572,-1.608214 -0.862691,-2.204653 -0.649687,-0.670969 -1.512376,-1.006459 -2.58807,-1.006471 z"
         style="fill:#ffffff"
         id="path3035" />
    </g>
  </g>
</svg>
