<?xml version="1.0" encoding="UTF-8" standalone="no"?>
<!-- Created with Inkscape (http://www.inkscape.org/) -->

<svg
   xmlns:dc="http://purl.org/dc/elements/1.1/"
   xmlns:cc="http://creativecommons.org/ns#"
   xmlns:rdf="http://www.w3.org/1999/02/22-rdf-syntax-ns#"
   xmlns:svg="http://www.w3.org/2000/svg"
   xmlns="http://www.w3.org/2000/svg"
   xmlns:sodipodi="http://sodipodi.sourceforge.net/DTD/sodipodi-0.dtd"
   xmlns:inkscape="http://www.inkscape.org/namespaces/inkscape"
   width="64"
   height="64"
   id="svg2"
   version="1.1"
   inkscape:version="0.48.4 r9939"
   sodipodi:docname="1.svg">
  <defs
     id="defs4" />
  <sodipodi:namedview
     id="base"
     pagecolor="#ffffff"
     bordercolor="#666666"
     borderopacity="1.0"
     inkscape:pageopacity="0.0"
     inkscape:pageshadow="2"
     inkscape:zoom="4.665165"
     inkscape:cx="32.004933"
     inkscape:cy="32.004933"
     inkscape:document-units="px"
     inkscape:current-layer="layer1"
     showgrid="false"
     inkscape:window-width="1366"
     inkscape:window-height="706"
     inkscape:window-x="-8"
     inkscape:window-y="-8"
     inkscape:window-maximized="1" />
  <metadata
     id="metadata7">
    <rdf:RDF>
      <cc:Work
         rdf:about="">
        <dc:format>image/svg+xml</dc:format>
        <dc:type
           rdf:resource="http://purl.org/dc/dcmitype/StillImage" />
        <dc:title></dc:title>
      </cc:Work>
    </rdf:RDF>
  </metadata>
  <g
     inkscape:label="Layer 1"
     inkscape:groupmode="layer"
     id="layer1"
     transform="translate(0,-988.36218)">
    <g
       transform="matrix(3.3620304,0,0,3.3620304,-20.905726,952.31338)"
       style="font-size:16.35916138000000000px;font-style:normal;font-variant:normal;font-weight:normal;font-stretch:normal;text-align:start;line-height:141.99999571000001000%;letter-spacing:0px;word-spacing:0px;writing-mode:lr-tb;text-anchor:start;fill:#ffffff;fill-opacity:1;stroke:none;font-family:Gulim;-inkscape-font-specification:Gulim"
       id="flowRoot2985">
      <path
         d="m 8.3874007,16.93341 1.7573313,0 0,8.866538 c -4e-6,0.181058 0.04792,0.330165 0.143782,0.44732 0.09585,0.09586 0.213005,0.149107 0.351466,0.159758 0.127801,0 0.239631,-0.05325 0.335491,-0.159758 0.1065,-0.106505 0.159752,-0.250286 0.159758,-0.431345 l 0,-11.326802 c -6e-6,-0.276901 -0.138462,-0.410032 -0.41537,-0.399393 -0.276917,0.01066 -0.420699,0.143793 -0.431345,0.399393 -0.03196,0.62839 -0.22899,1.081036 -0.5911024,1.357938 -0.308868,0.234321 -0.7615137,0.351477 -1.3579382,0.351467 -0.2449638,10e-6 -0.3621191,0.12249 -0.3514663,0.367442 0.010648,0.244971 0.1437792,0.367451 0.3993936,0.367442 z"
         style="fill:#ffffff"
         id="path3038" />
      <path
         d="m 19.682251,14.089728 c -1.075704,1.2e-5 -1.927742,0.324851 -2.556119,0.97452 -0.564478,0.585788 -0.846716,1.310021 -0.846714,2.172701 -2e-6,0.159766 0.04793,0.292897 0.143781,0.399394 0.0852,0.08521 0.197033,0.127814 0.335491,0.127806 0.127804,8e-6 0.234309,-0.04259 0.319515,-0.127806 0.106503,-0.106497 0.159755,-0.239628 0.159757,-0.399394 -2e-6,-0.617719 0.197032,-1.139593 0.591103,-1.565623 0.447317,-0.45796 1.05972,-0.686946 1.83721,-0.686957 0.75618,1.1e-5 1.357932,0.228997 1.805259,0.686957 0.415363,0.42603 0.623047,0.947904 0.623054,1.565623 -7e-6,0.596436 -0.207691,1.102334 -0.623054,1.517696 -0.436676,0.447327 -1.038428,0.670988 -1.805259,0.670981 l -0.447321,0 c -0.298217,7e-6 -0.447324,0.143788 -0.44732,0.431345 -4e-6,0.29822 0.149103,0.447327 0.44732,0.447321 l 0.559151,0 c 0.862685,6e-6 1.549641,0.260943 2.060871,0.782811 0.457964,0.479277 0.68695,1.08103 0.686957,1.805259 -7e-6,0.692285 -0.228993,1.283387 -0.686957,1.773308 -0.51123,0.553827 -1.198186,0.830739 -2.060871,0.830739 -0.862694,0 -1.54965,-0.276912 -2.06087,-0.830739 -0.447323,-0.489921 -0.670984,-1.081023 -0.670982,-1.773308 l 0,-0.351466 c -2e-6,-0.159754 -0.05325,-0.282234 -0.159757,-0.367442 -0.09586,-0.07455 -0.207686,-0.111826 -0.335491,-0.11183 -0.138458,4e-6 -0.255613,0.03728 -0.351466,0.11183 -0.09586,0.08521 -0.143783,0.207688 -0.143782,0.367442 l 0,0.335491 c -1e-6,0.947896 0.308863,1.752008 0.926593,2.412337 0.681629,0.734884 1.613547,1.102326 2.795755,1.102326 1.150248,0 2.071515,-0.367442 2.763804,-1.102326 0.639022,-0.67098 0.958536,-1.475091 0.958545,-2.412337 -9e-6,-0.788133 -0.228994,-1.480415 -0.686957,-2.076847 -0.351474,-0.447315 -0.761518,-0.772155 -1.230133,-0.97452 0.340809,-0.149101 0.654999,-0.415363 0.942569,-0.798788 0.394061,-0.511216 0.591095,-1.107643 0.591103,-1.789283 -8e-6,-0.85203 -0.287571,-1.576263 -0.86269,-2.172701 -0.639037,-0.649669 -1.496401,-0.974508 -2.572095,-0.97452 z"
         style="fill:#ffffff"
         id="path3040" />
    </g>
  </g>
</svg>
