<?xml version="1.0" encoding="UTF-8" standalone="no"?>
<!-- Created with Inkscape (http://www.inkscape.org/) -->

<svg
   xmlns:dc="http://purl.org/dc/elements/1.1/"
   xmlns:cc="http://creativecommons.org/ns#"
   xmlns:rdf="http://www.w3.org/1999/02/22-rdf-syntax-ns#"
   xmlns:svg="http://www.w3.org/2000/svg"
   xmlns="http://www.w3.org/2000/svg"
   xmlns:sodipodi="http://sodipodi.sourceforge.net/DTD/sodipodi-0.dtd"
   xmlns:inkscape="http://www.inkscape.org/namespaces/inkscape"
   width="64"
   height="64"
   id="svg2"
   version="1.1"
   inkscape:version="0.48.4 r9939"
   sodipodi:docname="1.svg">
  <defs
     id="defs4" />
  <sodipodi:namedview
     id="base"
     pagecolor="#ffffff"
     bordercolor="#666666"
     borderopacity="1.0"
     inkscape:pageopacity="0.0"
     inkscape:pageshadow="2"
     inkscape:zoom="4.665165"
     inkscape:cx="32.004933"
     inkscape:cy="32.004933"
     inkscape:document-units="px"
     inkscape:current-layer="layer1"
     showgrid="false"
     inkscape:window-width="1366"
     inkscape:window-height="706"
     inkscape:window-x="-8"
     inkscape:window-y="-8"
     inkscape:window-maximized="1" />
  <metadata
     id="metadata7">
    <rdf:RDF>
      <cc:Work
         rdf:about="">
        <dc:format>image/svg+xml</dc:format>
        <dc:type
           rdf:resource="http://purl.org/dc/dcmitype/StillImage" />
        <dc:title></dc:title>
      </cc:Work>
    </rdf:RDF>
  </metadata>
  <g
     inkscape:label="Layer 1"
     inkscape:groupmode="layer"
     id="layer1"
     transform="translate(0,-988.36218)">
    <g
       transform="matrix(3.3620304,0,0,3.3620304,-21.926233,952.31338)"
       style="font-size:16.35916138000000000px;font-style:normal;font-variant:normal;font-weight:normal;font-stretch:normal;text-align:start;line-height:141.99999571000001000%;letter-spacing:0px;word-spacing:0px;writing-mode:lr-tb;text-anchor:start;fill:#ffffff;fill-opacity:1;stroke:none;font-family:Gulim;-inkscape-font-specification:Gulim"
       id="flowRoot2985">
      <path
         d="m 8.3874007,16.93341 1.7573313,0 0,8.866538 c -4e-6,0.181058 0.04792,0.330165 0.143782,0.44732 0.09585,0.09586 0.213005,0.149107 0.351466,0.159758 0.127801,0 0.239631,-0.05325 0.335491,-0.159758 0.1065,-0.106505 0.159752,-0.250286 0.159758,-0.431345 l 0,-11.326802 c -6e-6,-0.276901 -0.138462,-0.410032 -0.41537,-0.399393 -0.276917,0.01066 -0.420699,0.143793 -0.431345,0.399393 -0.03196,0.62839 -0.22899,1.081036 -0.5911024,1.357938 -0.308868,0.234321 -0.7615137,0.351477 -1.3579382,0.351467 -0.2449638,10e-6 -0.3621191,0.12249 -0.3514663,0.367442 0.010648,0.244971 0.1437792,0.367451 0.3993936,0.367442 z"
         style="fill:#ffffff"
         id="path3043" />
      <path
         d="m 21.120068,15.910962 0,6.486152 -4.201621,0 z m -0.191709,-1.389889 -4.968456,7.604454 c -0.170409,0.266266 -0.228987,0.521877 -0.175733,0.766835 0.0639,0.255615 0.23431,0.383421 0.511223,0.383418 l 4.824675,0 0,2.620022 c -6e-6,0.159758 0.04792,0.282238 0.143782,0.367442 0.09585,0.0852 0.213003,0.127806 0.351466,0.127806 0.127799,0 0.239629,-0.0426 0.335491,-0.127806 0.106498,-0.09585 0.15975,-0.218335 0.159757,-0.367442 l 0,-2.620022 1.517696,0 c 0.149098,3e-6 0.266253,-0.04792 0.351466,-0.143782 0.08519,-0.0852 0.127797,-0.18638 0.127806,-0.303539 -9e-6,-0.117152 -0.03729,-0.218331 -0.11183,-0.303539 -0.08521,-0.0852 -0.191718,-0.127802 -0.319515,-0.127806 l -1.565623,0 0,-7.764211 c -7e-6,-0.340804 -0.149114,-0.521862 -0.447321,-0.543175 -0.29822,-0.01064 -0.543181,0.133143 -0.734884,0.431345 z"
         style="fill:#ffffff"
         id="path3045" />
    </g>
  </g>
</svg>
