<?xml version="1.0" encoding="UTF-8" standalone="no"?>
<!-- Created with Inkscape (http://www.inkscape.org/) -->

<svg
   xmlns:dc="http://purl.org/dc/elements/1.1/"
   xmlns:cc="http://creativecommons.org/ns#"
   xmlns:rdf="http://www.w3.org/1999/02/22-rdf-syntax-ns#"
   xmlns:svg="http://www.w3.org/2000/svg"
   xmlns="http://www.w3.org/2000/svg"
   xmlns:sodipodi="http://sodipodi.sourceforge.net/DTD/sodipodi-0.dtd"
   xmlns:inkscape="http://www.inkscape.org/namespaces/inkscape"
   width="64"
   height="64"
   id="svg2"
   version="1.1"
   inkscape:version="0.48.4 r9939"
   sodipodi:docname="1.svg">
  <defs
     id="defs4" />
  <sodipodi:namedview
     id="base"
     pagecolor="#ffffff"
     bordercolor="#666666"
     borderopacity="1.0"
     inkscape:pageopacity="0.0"
     inkscape:pageshadow="2"
     inkscape:zoom="4.665165"
     inkscape:cx="32.004933"
     inkscape:cy="32.004933"
     inkscape:document-units="px"
     inkscape:current-layer="layer1"
     showgrid="false"
     inkscape:window-width="1366"
     inkscape:window-height="706"
     inkscape:window-x="-8"
     inkscape:window-y="-8"
     inkscape:window-maximized="1" />
  <metadata
     id="metadata7">
    <rdf:RDF>
      <cc:Work
         rdf:about="">
        <dc:format>image/svg+xml</dc:format>
        <dc:type
           rdf:resource="http://purl.org/dc/dcmitype/StillImage" />
        <dc:title></dc:title>
      </cc:Work>
    </rdf:RDF>
  </metadata>
  <g
     inkscape:label="Layer 1"
     inkscape:groupmode="layer"
     id="layer1"
     transform="translate(0,-988.36218)">
    <g
       transform="matrix(3.3620304,0,0,3.3620304,-20.87887,952.31338)"
       style="font-size:16.35916138000000000px;font-style:normal;font-variant:normal;font-weight:normal;font-stretch:normal;text-align:start;line-height:141.99999571000001000%;letter-spacing:0px;word-spacing:0px;writing-mode:lr-tb;text-anchor:start;fill:#ffffff;fill-opacity:1;stroke:none;font-family:Gulim;-inkscape-font-specification:Gulim"
       id="flowRoot2985">
      <path
         d="m 8.3874007,16.93341 1.7573313,0 0,8.866538 c -4e-6,0.181058 0.04792,0.330165 0.143782,0.44732 0.09585,0.09586 0.213005,0.149107 0.351466,0.159758 0.127801,0 0.239631,-0.05325 0.335491,-0.159758 0.1065,-0.106505 0.159752,-0.250286 0.159758,-0.431345 l 0,-11.326802 c -6e-6,-0.276901 -0.138462,-0.410032 -0.41537,-0.399393 -0.276917,0.01066 -0.420699,0.143793 -0.431345,0.399393 -0.03196,0.62839 -0.22899,1.081036 -0.5911024,1.357938 -0.308868,0.234321 -0.7615137,0.351477 -1.3579382,0.351467 -0.2449638,10e-6 -0.3621191,0.12249 -0.3514663,0.367442 0.010648,0.244971 0.1437792,0.367451 0.3993936,0.367442 z"
         style="fill:#ffffff"
         id="path3048" />
      <path
         d="m 22.414103,14.361315 -5.096262,0 -0.830739,5.639438 c -0.0639,0.330171 0.03195,0.553831 0.287564,0.670981 0.25561,0.10651 0.48992,0.0053 0.702932,-0.303539 0.213008,-0.330159 0.48992,-0.591096 0.830739,-0.782812 0.415366,-0.223653 0.873337,-0.335483 1.373914,-0.33549 0.873335,7e-6 1.570942,0.319521 2.092822,0.958544 0.468615,0.585783 0.702926,1.310016 0.702933,2.172702 -7e-6,0.841392 -0.250294,1.560299 -0.75086,2.156725 -0.543181,0.639031 -1.256764,0.958545 -2.140749,0.958545 -0.713587,0 -1.294039,-0.154432 -1.741357,-0.463297 -0.426022,-0.298213 -0.692284,-0.69228 -0.798787,-1.182205 -0.0426,-0.170406 -0.127807,-0.287561 -0.255612,-0.351466 -0.117157,-0.0639 -0.239637,-0.07988 -0.367442,-0.04793 -0.138457,0.03195 -0.244962,0.106508 -0.319515,0.223661 -0.07455,0.117158 -0.09053,0.255614 -0.04793,0.415369 0.149106,0.692284 0.543174,1.251434 1.182205,1.677453 0.639027,0.415369 1.400537,0.623054 2.284532,0.623054 1.352607,0 2.375053,-0.415369 3.067342,-1.246108 0.59642,-0.713581 0.894634,-1.634848 0.894642,-2.763803 -8e-6,-1.107647 -0.303547,-2.034239 -0.910617,-2.77978 -0.660338,-0.830731 -1.560304,-1.2461 -2.699901,-1.246108 -0.479277,8e-6 -0.921272,0.07456 -1.325987,0.223661 -0.383421,0.138463 -0.718911,0.351473 -1.006472,0.639029 l 0.607079,-3.961984 4.265523,0 c 0.15975,1.1e-5 0.292881,-0.04792 0.399394,-0.143782 0.0852,-0.08519 0.127798,-0.186372 0.127806,-0.303539 -8e-6,-0.127794 -0.04794,-0.234299 -0.143782,-0.319515 -0.09586,-0.08519 -0.223668,-0.127794 -0.383418,-0.127806 z"
         style="fill:#ffffff"
         id="path3050" />
    </g>
  </g>
</svg>
