<?xml version="1.0" encoding="UTF-8" standalone="no"?>
<!-- Created with Inkscape (http://www.inkscape.org/) -->

<svg
   xmlns:dc="http://purl.org/dc/elements/1.1/"
   xmlns:cc="http://creativecommons.org/ns#"
   xmlns:rdf="http://www.w3.org/1999/02/22-rdf-syntax-ns#"
   xmlns:svg="http://www.w3.org/2000/svg"
   xmlns="http://www.w3.org/2000/svg"
   xmlns:sodipodi="http://sodipodi.sourceforge.net/DTD/sodipodi-0.dtd"
   xmlns:inkscape="http://www.inkscape.org/namespaces/inkscape"
   width="64"
   height="64"
   id="svg2"
   version="1.1"
   inkscape:version="0.48.4 r9939"
   sodipodi:docname="1.svg">
  <defs
     id="defs4" />
  <sodipodi:namedview
     id="base"
     pagecolor="#ffffff"
     bordercolor="#666666"
     borderopacity="1.0"
     inkscape:pageopacity="0.0"
     inkscape:pageshadow="2"
     inkscape:zoom="4.665165"
     inkscape:cx="32.004933"
     inkscape:cy="32.004933"
     inkscape:document-units="px"
     inkscape:current-layer="layer1"
     showgrid="false"
     inkscape:window-width="1366"
     inkscape:window-height="706"
     inkscape:window-x="-8"
     inkscape:window-y="-8"
     inkscape:window-maximized="1" />
  <metadata
     id="metadata7">
    <rdf:RDF>
      <cc:Work
         rdf:about="">
        <dc:format>image/svg+xml</dc:format>
        <dc:type
           rdf:resource="http://purl.org/dc/dcmitype/StillImage" />
        <dc:title></dc:title>
      </cc:Work>
    </rdf:RDF>
  </metadata>
  <g
     inkscape:label="Layer 1"
     inkscape:groupmode="layer"
     id="layer1"
     transform="translate(0,-988.36218)">
    <g
       transform="matrix(3.3620304,0,0,3.3620304,-21.17428,952.31338)"
       style="font-size:16.35916138000000000px;font-style:normal;font-variant:normal;font-weight:normal;font-stretch:normal;text-align:start;line-height:141.99999571000001000%;letter-spacing:0px;word-spacing:0px;writing-mode:lr-tb;text-anchor:start;fill:#ffffff;fill-opacity:1;stroke:none;font-family:Gulim;-inkscape-font-specification:Gulim"
       id="flowRoot2985">
      <path
         d="m 8.3874007,16.93341 1.7573313,0 0,8.866538 c -4e-6,0.181058 0.04792,0.330165 0.143782,0.44732 0.09585,0.09586 0.213005,0.149107 0.351466,0.159758 0.127801,0 0.239631,-0.05325 0.335491,-0.159758 0.1065,-0.106505 0.159752,-0.250286 0.159758,-0.431345 l 0,-11.326802 c -6e-6,-0.276901 -0.138462,-0.410032 -0.41537,-0.399393 -0.276917,0.01066 -0.420699,0.143793 -0.431345,0.399393 -0.03196,0.62839 -0.22899,1.081036 -0.5911024,1.357938 -0.308868,0.234321 -0.7615137,0.351477 -1.3579382,0.351467 -0.2449638,10e-6 -0.3621191,0.12249 -0.3514663,0.367442 0.010648,0.244971 0.1437792,0.367451 0.3993936,0.367442 z"
         style="fill:#ffffff"
         id="path3063" />
      <path
         d="m 23.308745,17.125119 c -8e-6,-0.820078 -0.298222,-1.517685 -0.894642,-2.092822 -0.660337,-0.628368 -1.533677,-0.942557 -2.620022,-0.942569 -1.086354,1.2e-5 -1.959694,0.314201 -2.620022,0.942569 -0.585779,0.575137 -0.878667,1.272744 -0.878666,2.092822 -1e-6,0.68164 0.181057,1.262091 0.543176,1.741356 0.27691,0.372774 0.607076,0.639036 0.990496,0.798787 -0.59643,0.319521 -1.059726,0.740215 -1.38989,1.262084 -0.340817,0.55383 -0.511225,1.182209 -0.511224,1.885138 -1e-6,0.958547 0.324839,1.778634 0.974521,2.460264 0.724231,0.745535 1.682774,1.118302 2.875633,1.118302 1.203501,0 2.167369,-0.372767 2.89161,-1.118302 0.660323,-0.68163 0.990488,-1.501717 0.990496,-2.460264 -8e-6,-0.702929 -0.186392,-1.341958 -0.559151,-1.91709 -0.351474,-0.543169 -0.809445,-0.947888 -1.373914,-1.214156 0.394061,-0.159751 0.734877,-0.426013 1.022448,-0.798787 0.372759,-0.489915 0.559143,-1.075692 0.559151,-1.757332 z m -3.514664,3.019415 c 0.894636,6e-6 1.613544,0.276919 2.156726,0.830739 0.500565,0.500578 0.750852,1.118306 0.75086,1.853186 -8e-6,0.724237 -0.250295,1.33664 -0.75086,1.837211 -0.543182,0.553827 -1.26209,0.830739 -2.156726,0.830739 -0.905296,0 -1.624203,-0.276912 -2.156725,-0.830739 -0.489925,-0.500571 -0.734886,-1.112974 -0.734884,-1.837211 -2e-6,-0.73488 0.244959,-1.352608 0.734884,-1.853186 0.532522,-0.55382 1.251429,-0.830733 2.156725,-0.830739 z m 0,-5.160165 c 0.788131,1.1e-5 1.421835,0.218346 1.901114,0.655006 0.436663,0.404729 0.654998,0.899976 0.655005,1.485744 -7e-6,0.585786 -0.218342,1.075708 -0.655005,1.469768 -0.479279,0.447328 -1.112983,0.670988 -1.901114,0.670982 -0.78814,6e-6 -1.416519,-0.223654 -1.885138,-0.670982 -0.426022,-0.39406 -0.639031,-0.883982 -0.639029,-1.469768 -2e-6,-0.585768 0.213007,-1.081015 0.639029,-1.485744 0.468619,-0.43666 1.096998,-0.654995 1.885138,-0.655006 z"
         style="fill:#ffffff"
         id="path3065" />
    </g>
  </g>
</svg>
