<?xml version="1.0" encoding="UTF-8" standalone="no"?>
<!-- Created with Inkscape (http://www.inkscape.org/) -->

<svg
   xmlns:dc="http://purl.org/dc/elements/1.1/"
   xmlns:cc="http://creativecommons.org/ns#"
   xmlns:rdf="http://www.w3.org/1999/02/22-rdf-syntax-ns#"
   xmlns:svg="http://www.w3.org/2000/svg"
   xmlns="http://www.w3.org/2000/svg"
   xmlns:sodipodi="http://sodipodi.sourceforge.net/DTD/sodipodi-0.dtd"
   xmlns:inkscape="http://www.inkscape.org/namespaces/inkscape"
   width="64"
   height="64"
   id="svg2"
   version="1.1"
   inkscape:version="0.48.4 r9939"
   sodipodi:docname="1.svg">
  <defs
     id="defs4" />
  <sodipodi:namedview
     id="base"
     pagecolor="#ffffff"
     bordercolor="#666666"
     borderopacity="1.0"
     inkscape:pageopacity="0.0"
     inkscape:pageshadow="2"
     inkscape:zoom="4.665165"
     inkscape:cx="32.004933"
     inkscape:cy="32.004933"
     inkscape:document-units="px"
     inkscape:current-layer="layer1"
     showgrid="false"
     inkscape:window-width="1366"
     inkscape:window-height="706"
     inkscape:window-x="-8"
     inkscape:window-y="-8"
     inkscape:window-maximized="1" />
  <metadata
     id="metadata7">
    <rdf:RDF>
      <cc:Work
         rdf:about="">
        <dc:format>image/svg+xml</dc:format>
        <dc:type
           rdf:resource="http://purl.org/dc/dcmitype/StillImage" />
        <dc:title></dc:title>
      </cc:Work>
    </rdf:RDF>
  </metadata>
  <g
     inkscape:label="Layer 1"
     inkscape:groupmode="layer"
     id="layer1"
     transform="translate(0,-988.36218)">
    <g
       transform="matrix(3.3620304,0,0,3.3620304,-18.676722,952.31338)"
       style="font-size:16.35916138000000000px;font-style:normal;font-variant:normal;font-weight:normal;font-stretch:normal;text-align:start;line-height:141.99999571000001000%;letter-spacing:0px;word-spacing:0px;writing-mode:lr-tb;text-anchor:start;fill:#ffffff;fill-opacity:1;stroke:none;font-family:Gulim;-inkscape-font-specification:Gulim"
       id="flowRoot2985">
      <path
         d="m 10.41632,14.089728 c -1.0863541,1.2e-5 -1.9490434,0.335502 -2.5880704,1.006471 -0.5644778,0.596439 -0.8467157,1.331322 -0.8467144,2.204653 l 0,0.415369 c -1.3e-6,0.181067 0.047926,0.324849 0.1437817,0.431346 0.095853,0.09586 0.2130083,0.143789 0.3514664,0.143781 0.1384545,8e-6 0.2556098,-0.04792 0.3514663,-0.143781 0.1065027,-0.09585 0.1597552,-0.223653 0.1597575,-0.383418 l 0,-0.463297 c -2.3e-6,-0.63902 0.2023569,-1.171544 0.6070782,-1.597574 0.4473175,-0.479262 1.0543951,-0.718898 1.8212347,-0.718909 0.76683,1.1e-5 1.379233,0.239647 1.837211,0.718909 0.404711,0.42603 0.607071,0.958554 0.607078,1.597574 -7e-6,0.777494 -0.239643,1.437824 -0.718909,1.980992 -0.372773,0.404726 -1.091681,0.93725 -2.156725,1.597575 -1.1183052,0.670985 -1.9383926,1.400544 -2.4602645,2.188677 -0.575128,0.862692 -0.8573659,1.879813 -0.8467144,3.051367 l 6.9813999,0 c 0.138448,0 0.250278,-0.04793 0.335491,-0.143782 0.0852,-0.0852 0.127797,-0.186384 0.127806,-0.303539 -9e-6,-0.127806 -0.04261,-0.234311 -0.127806,-0.319515 -0.08521,-0.0852 -0.197043,-0.127805 -0.335491,-0.127806 l -5.9270008,0 C 7.8069465,24.457987 8.0252815,23.829608 8.3874007,23.339683 8.8027669,22.76456 9.574927,22.125531 10.703883,21.422594 l 0.319515,-0.22366 c 1.043743,-0.660326 1.730699,-1.182199 2.060871,-1.565623 0.521867,-0.596421 0.782804,-1.373906 0.782812,-2.332459 -8e-6,-0.873331 -0.287572,-1.608214 -0.86269,-2.204653 C 12.354704,14.42523 11.492014,14.08974 10.41632,14.089728 z"
         style="fill:#ffffff"
         id="path3098" />
      <path
         d="m 22.414103,14.361315 -5.096262,0 -0.830739,5.639438 c -0.0639,0.330171 0.03195,0.553831 0.287564,0.670981 0.25561,0.10651 0.48992,0.0053 0.702932,-0.303539 0.213008,-0.330159 0.48992,-0.591096 0.830739,-0.782812 0.415366,-0.223653 0.873337,-0.335483 1.373914,-0.33549 0.873335,7e-6 1.570942,0.319521 2.092822,0.958544 0.468615,0.585783 0.702926,1.310016 0.702933,2.172702 -7e-6,0.841392 -0.250294,1.560299 -0.75086,2.156725 -0.543181,0.639031 -1.256764,0.958545 -2.140749,0.958545 -0.713587,0 -1.294039,-0.154432 -1.741357,-0.463297 -0.426022,-0.298213 -0.692284,-0.69228 -0.798787,-1.182205 -0.0426,-0.170406 -0.127807,-0.287561 -0.255612,-0.351466 -0.117157,-0.0639 -0.239637,-0.07988 -0.367442,-0.04793 -0.138457,0.03195 -0.244962,0.106508 -0.319515,0.223661 -0.07455,0.117158 -0.09053,0.255614 -0.04793,0.415369 0.149106,0.692284 0.543174,1.251434 1.182205,1.677453 0.639027,0.415369 1.400537,0.623054 2.284532,0.623054 1.352607,0 2.375053,-0.415369 3.067342,-1.246108 0.59642,-0.713581 0.894634,-1.634848 0.894642,-2.763803 -8e-6,-1.107647 -0.303547,-2.034239 -0.910617,-2.77978 -0.660338,-0.830731 -1.560304,-1.2461 -2.699901,-1.246108 -0.479277,8e-6 -0.921272,0.07456 -1.325987,0.223661 -0.383421,0.138463 -0.718911,0.351473 -1.006472,0.639029 l 0.607079,-3.961984 4.265523,0 c 0.15975,1.1e-5 0.292881,-0.04792 0.399394,-0.143782 0.0852,-0.08519 0.127798,-0.186372 0.127806,-0.303539 -8e-6,-0.127794 -0.04794,-0.234299 -0.143782,-0.319515 -0.09586,-0.08519 -0.223668,-0.127794 -0.383418,-0.127806 z"
         style="fill:#ffffff"
         id="path3100" />
    </g>
  </g>
</svg>
