<?xml version="1.0" encoding="UTF-8" standalone="no"?>
<!-- Created with Inkscape (http://www.inkscape.org/) -->

<svg
   xmlns:dc="http://purl.org/dc/elements/1.1/"
   xmlns:cc="http://creativecommons.org/ns#"
   xmlns:rdf="http://www.w3.org/1999/02/22-rdf-syntax-ns#"
   xmlns:svg="http://www.w3.org/2000/svg"
   xmlns="http://www.w3.org/2000/svg"
   xmlns:sodipodi="http://sodipodi.sourceforge.net/DTD/sodipodi-0.dtd"
   xmlns:inkscape="http://www.inkscape.org/namespaces/inkscape"
   width="64"
   height="64"
   id="svg2"
   version="1.1"
   inkscape:version="0.48.4 r9939"
   sodipodi:docname="1.svg">
  <defs
     id="defs4" />
  <sodipodi:namedview
     id="base"
     pagecolor="#ffffff"
     bordercolor="#666666"
     borderopacity="1.0"
     inkscape:pageopacity="0.0"
     inkscape:pageshadow="2"
     inkscape:zoom="4.665165"
     inkscape:cx="32.004933"
     inkscape:cy="32.004933"
     inkscape:document-units="px"
     inkscape:current-layer="layer1"
     showgrid="false"
     inkscape:window-width="1366"
     inkscape:window-height="706"
     inkscape:window-x="-8"
     inkscape:window-y="-8"
     inkscape:window-maximized="1" />
  <metadata
     id="metadata7">
    <rdf:RDF>
      <cc:Work
         rdf:about="">
        <dc:format>image/svg+xml</dc:format>
        <dc:type
           rdf:resource="http://purl.org/dc/dcmitype/StillImage" />
        <dc:title></dc:title>
      </cc:Work>
    </rdf:RDF>
  </metadata>
  <g
     inkscape:label="Layer 1"
     inkscape:groupmode="layer"
     id="layer1"
     transform="translate(0,-988.36218)">
    <g
       transform="matrix(3.3620304,0,0,3.3620304,-18.703577,952.31338)"
       style="font-size:16.35916138000000000px;font-style:normal;font-variant:normal;font-weight:normal;font-stretch:normal;text-align:start;line-height:141.99999571000001000%;letter-spacing:0px;word-spacing:0px;writing-mode:lr-tb;text-anchor:start;fill:#ffffff;fill-opacity:1;stroke:none;font-family:Gulim;-inkscape-font-specification:Gulim"
       id="flowRoot2985">
      <path
         d="m 10.41632,14.089728 c -1.0863541,1.2e-5 -1.9490434,0.335502 -2.5880704,1.006471 -0.5644778,0.596439 -0.8467157,1.331322 -0.8467144,2.204653 l 0,0.415369 c -1.3e-6,0.181067 0.047926,0.324849 0.1437817,0.431346 0.095853,0.09586 0.2130083,0.143789 0.3514664,0.143781 0.1384545,8e-6 0.2556098,-0.04792 0.3514663,-0.143781 0.1065027,-0.09585 0.1597552,-0.223653 0.1597575,-0.383418 l 0,-0.463297 c -2.3e-6,-0.63902 0.2023569,-1.171544 0.6070782,-1.597574 0.4473175,-0.479262 1.0543951,-0.718898 1.8212347,-0.718909 0.76683,1.1e-5 1.379233,0.239647 1.837211,0.718909 0.404711,0.42603 0.607071,0.958554 0.607078,1.597574 -7e-6,0.777494 -0.239643,1.437824 -0.718909,1.980992 -0.372773,0.404726 -1.091681,0.93725 -2.156725,1.597575 -1.1183052,0.670985 -1.9383926,1.400544 -2.4602645,2.188677 -0.575128,0.862692 -0.8573659,1.879813 -0.8467144,3.051367 l 6.9813999,0 c 0.138448,0 0.250278,-0.04793 0.335491,-0.143782 0.0852,-0.0852 0.127797,-0.186384 0.127806,-0.303539 -9e-6,-0.127806 -0.04261,-0.234311 -0.127806,-0.319515 -0.08521,-0.0852 -0.197043,-0.127805 -0.335491,-0.127806 l -5.9270008,0 C 7.8069465,24.457987 8.0252815,23.829608 8.3874007,23.339683 8.8027669,22.76456 9.574927,22.125531 10.703883,21.422594 l 0.319515,-0.22366 c 1.043743,-0.660326 1.730699,-1.182199 2.060871,-1.565623 0.521867,-0.596421 0.782804,-1.373906 0.782812,-2.332459 -8e-6,-0.873331 -0.287572,-1.608214 -0.86269,-2.204653 C 12.354704,14.42523 11.492014,14.08974 10.41632,14.089728 z"
         style="fill:#ffffff"
         id="path3103" />
      <path
         d="m 17.078205,22.429066 c -2e-6,-0.841385 0.260935,-1.538992 0.782811,-2.092823 0.532522,-0.553819 1.203502,-0.830732 2.012944,-0.830738 0.883985,6e-6 1.560291,0.292895 2.028919,0.878666 0.404712,0.521879 0.607071,1.198185 0.607079,2.028919 -8e-6,0.926596 -0.250294,1.67213 -0.75086,2.236604 -0.489929,0.564477 -1.134284,0.846715 -1.933065,0.846715 -0.809442,0 -1.469772,-0.282238 -1.980993,-0.846715 -0.511226,-0.564474 -0.766837,-1.304683 -0.766835,-2.220628 z m 3.083318,-8.339338 c -1.405869,1.2e-5 -2.465592,0.718919 -3.179173,2.156725 -0.607079,1.256767 -0.910618,2.934219 -0.910617,5.032359 -10e-7,1.959694 0.399392,3.360233 1.198181,4.201621 0.585774,0.607078 1.389886,0.910617 2.412337,0.910617 1.2035,0 2.135418,-0.351466 2.795755,-1.054399 0.681624,-0.713582 1.022439,-1.725378 1.022448,-3.035391 -9e-6,-1.203501 -0.388751,-2.151394 -1.16623,-2.843683 -0.649686,-0.564469 -1.38457,-0.846706 -2.204652,-0.846714 -0.777491,8e-6 -1.443146,0.15444 -1.996968,0.463297 -0.447324,0.255618 -0.79879,0.596434 -1.054399,1.022447 0.07455,-1.352605 0.314187,-2.470906 0.718908,-3.354906 0.543172,-1.171544 1.325983,-1.757321 2.348435,-1.757332 0.628373,1.1e-5 1.123621,0.175744 1.485744,0.5272 0.308857,0.298224 0.505891,0.708268 0.591102,1.230132 0.0639,0.319524 0.255605,0.452655 0.575127,0.399394 0.330157,-0.06389 0.479264,-0.244953 0.447321,-0.543176 -0.106513,-0.852029 -0.463304,-1.496383 -1.070375,-1.933065 -0.532531,-0.383406 -1.203512,-0.575114 -2.012944,-0.575126 z"
         style="fill:#ffffff"
         id="path3105" />
    </g>
  </g>
</svg>
