<?xml version="1.0" encoding="UTF-8" standalone="no"?>
<!-- Created with Inkscape (http://www.inkscape.org/) -->

<svg
   xmlns:dc="http://purl.org/dc/elements/1.1/"
   xmlns:cc="http://creativecommons.org/ns#"
   xmlns:rdf="http://www.w3.org/1999/02/22-rdf-syntax-ns#"
   xmlns:svg="http://www.w3.org/2000/svg"
   xmlns="http://www.w3.org/2000/svg"
   xmlns:sodipodi="http://sodipodi.sourceforge.net/DTD/sodipodi-0.dtd"
   xmlns:inkscape="http://www.inkscape.org/namespaces/inkscape"
   width="64"
   height="64"
   id="svg2"
   version="1.1"
   inkscape:version="0.48.4 r9939"
   sodipodi:docname="1.svg">
  <defs
     id="defs4" />
  <sodipodi:namedview
     id="base"
     pagecolor="#ffffff"
     bordercolor="#666666"
     borderopacity="1.0"
     inkscape:pageopacity="0.0"
     inkscape:pageshadow="2"
     inkscape:zoom="4.665165"
     inkscape:cx="32.004933"
     inkscape:cy="32.004933"
     inkscape:document-units="px"
     inkscape:current-layer="layer1"
     showgrid="false"
     inkscape:window-width="1366"
     inkscape:window-height="706"
     inkscape:window-x="-8"
     inkscape:window-y="-8"
     inkscape:window-maximized="1" />
  <metadata
     id="metadata7">
    <rdf:RDF>
      <cc:Work
         rdf:about="">
        <dc:format>image/svg+xml</dc:format>
        <dc:type
           rdf:resource="http://purl.org/dc/dcmitype/StillImage" />
        <dc:title></dc:title>
      </cc:Work>
    </rdf:RDF>
  </metadata>
  <g
     inkscape:label="Layer 1"
     inkscape:groupmode="layer"
     id="layer1"
     transform="translate(0,-988.36218)">
    <g
       transform="matrix(3.3620304,0,0,3.3620304,-18.703577,952.31338)"
       style="font-size:16.35916138000000000px;font-style:normal;font-variant:normal;font-weight:normal;font-stretch:normal;text-align:start;line-height:141.99999571000001000%;letter-spacing:0px;word-spacing:0px;writing-mode:lr-tb;text-anchor:start;fill:#ffffff;fill-opacity:1;stroke:none;font-family:Gulim;-inkscape-font-specification:Gulim"
       id="flowRoot2985">
      <path
         d="m 10.41632,14.089728 c -1.0863541,1.2e-5 -1.9490434,0.335502 -2.5880704,1.006471 -0.5644778,0.596439 -0.8467157,1.331322 -0.8467144,2.204653 l 0,0.415369 c -1.3e-6,0.181067 0.047926,0.324849 0.1437817,0.431346 0.095853,0.09586 0.2130083,0.143789 0.3514664,0.143781 0.1384545,8e-6 0.2556098,-0.04792 0.3514663,-0.143781 0.1065027,-0.09585 0.1597552,-0.223653 0.1597575,-0.383418 l 0,-0.463297 c -2.3e-6,-0.63902 0.2023569,-1.171544 0.6070782,-1.597574 0.4473175,-0.479262 1.0543951,-0.718898 1.8212347,-0.718909 0.76683,1.1e-5 1.379233,0.239647 1.837211,0.718909 0.404711,0.42603 0.607071,0.958554 0.607078,1.597574 -7e-6,0.777494 -0.239643,1.437824 -0.718909,1.980992 -0.372773,0.404726 -1.091681,0.93725 -2.156725,1.597575 -1.1183052,0.670985 -1.9383926,1.400544 -2.4602645,2.188677 -0.575128,0.862692 -0.8573659,1.879813 -0.8467144,3.051367 l 6.9813999,0 c 0.138448,0 0.250278,-0.04793 0.335491,-0.143782 0.0852,-0.0852 0.127797,-0.186384 0.127806,-0.303539 -9e-6,-0.127806 -0.04261,-0.234311 -0.127806,-0.319515 -0.08521,-0.0852 -0.197043,-0.127805 -0.335491,-0.127806 l -5.9270008,0 C 7.8069465,24.457987 8.0252815,23.829608 8.3874007,23.339683 8.8027669,22.76456 9.574927,22.125531 10.703883,21.422594 l 0.319515,-0.22366 c 1.043743,-0.660326 1.730699,-1.182199 2.060871,-1.565623 0.521867,-0.596421 0.782804,-1.373906 0.782812,-2.332459 -8e-6,-0.873331 -0.287572,-1.608214 -0.86269,-2.204653 C 12.354704,14.42523 11.492014,14.08974 10.41632,14.089728 z"
         style="fill:#ffffff"
         id="path3118" />
      <path
         d="m 22.509958,18.147567 c -8e-6,0.809444 -0.26627,1.48575 -0.798788,2.028919 -0.53253,0.553831 -1.198186,0.830744 -1.996968,0.830739 -0.894645,5e-6 -1.576276,-0.298209 -2.044895,-0.894642 -0.39407,-0.500567 -0.591104,-1.150246 -0.591102,-1.949041 -2e-6,-0.979836 0.244959,-1.757322 0.734884,-2.332458 0.479269,-0.564466 1.128949,-0.846704 1.949041,-0.846715 0.873335,1.1e-5 1.560291,0.314201 2.060871,0.942569 0.457964,0.575137 0.686949,1.315345 0.686957,2.220629 z m -3.099295,8.243483 c 1.480413,0 2.534811,-0.564476 3.163198,-1.693429 0.61772,-1.107649 0.926584,-2.960833 0.926593,-5.559558 -9e-6,-1.949032 -0.404727,-3.333595 -1.214157,-4.153694 -0.585784,-0.596416 -1.379245,-0.894629 -2.380386,-0.894641 -1.21416,1.2e-5 -2.151402,0.351478 -2.81173,1.054399 -0.681634,0.724244 -1.022449,1.767991 -1.022448,3.131245 -10e-7,1.256766 0.388742,2.204659 1.166229,2.843683 0.617726,0.511228 1.357935,0.76684 2.220629,0.766835 0.75618,5e-6 1.41651,-0.159753 1.980992,-0.479272 0.447314,-0.255607 0.804105,-0.585772 1.070375,-0.990496 -0.07456,1.704083 -0.319522,2.944865 -0.734885,3.722348 -0.479278,0.905294 -1.256764,1.357939 -2.332458,1.357939 -0.639034,0 -1.139606,-0.181058 -1.50172,-0.543176 -0.308867,-0.298212 -0.500576,-0.702931 -0.575127,-1.214156 -0.07456,-0.330163 -0.271589,-0.468619 -0.591102,-0.41537 -0.330167,0.06391 -0.473949,0.25029 -0.431345,0.559151 0.0852,0.841391 0.431343,1.48042 1.038423,1.91709 0.532522,0.394068 1.208828,0.591102 2.028919,0.591102 z"
         style="fill:#ffffff"
         id="path3120" />
    </g>
  </g>
</svg>
