<?xml version="1.0" encoding="UTF-8" standalone="no"?>
<!-- Created with Inkscape (http://www.inkscape.org/) -->

<svg
   xmlns:dc="http://purl.org/dc/elements/1.1/"
   xmlns:cc="http://creativecommons.org/ns#"
   xmlns:rdf="http://www.w3.org/1999/02/22-rdf-syntax-ns#"
   xmlns:svg="http://www.w3.org/2000/svg"
   xmlns="http://www.w3.org/2000/svg"
   xmlns:sodipodi="http://sodipodi.sourceforge.net/DTD/sodipodi-0.dtd"
   xmlns:inkscape="http://www.inkscape.org/namespaces/inkscape"
   width="64"
   height="64"
   id="svg2"
   version="1.1"
   inkscape:version="0.48.4 r9939"
   sodipodi:docname="1.svg">
  <defs
     id="defs4" />
  <sodipodi:namedview
     id="base"
     pagecolor="#ffffff"
     bordercolor="#666666"
     borderopacity="1.0"
     inkscape:pageopacity="0.0"
     inkscape:pageshadow="2"
     inkscape:zoom="4.0546875"
     inkscape:cx="3.4527933"
     inkscape:cy="35.701469"
     inkscape:document-units="px"
     inkscape:current-layer="layer1"
     showgrid="false"
     inkscape:window-width="1366"
     inkscape:window-height="706"
     inkscape:window-x="-8"
     inkscape:window-y="-8"
     inkscape:window-maximized="1" />
  <metadata
     id="metadata7">
    <rdf:RDF>
      <cc:Work
         rdf:about="">
        <dc:format>image/svg+xml</dc:format>
        <dc:type
           rdf:resource="http://purl.org/dc/dcmitype/StillImage" />
        <dc:title></dc:title>
      </cc:Work>
    </rdf:RDF>
  </metadata>
  <g
     inkscape:label="Layer 1"
     inkscape:groupmode="layer"
     id="layer1"
     transform="translate(0,-988.36218)">
    <g
       transform="matrix(3.3620304,0,0,3.3620304,-2.9125629,952.31338)"
       style="font-size:16.35916138000000000px;font-style:normal;font-variant:normal;font-weight:normal;font-stretch:normal;text-align:start;line-height:141.99999571000001000%;letter-spacing:0px;word-spacing:0px;writing-mode:lr-tb;text-anchor:start;fill:#ffffff;fill-opacity:1;stroke:none;font-family:Gulim;-inkscape-font-specification:Gulim"
       id="flowRoot2985">
      <path
         d="m 10.288514,14.089728 c -1.0757035,1.2e-5 -1.9277423,0.324851 -2.5561188,0.97452 -0.5644778,0.585788 -0.8467156,1.310021 -0.8467144,2.172701 -1.2e-6,0.159766 0.047926,0.292897 0.1437817,0.399394 0.085202,0.08521 0.1970326,0.127814 0.3354906,0.127806 0.1278041,8e-6 0.234309,-0.04259 0.3195148,-0.127806 0.1065029,-0.106497 0.1597553,-0.239628 0.1597575,-0.399394 -2.2e-6,-0.617719 0.1970318,-1.139593 0.5911025,-1.565623 0.4473176,-0.45796 1.0597205,-0.686946 1.8372101,-0.686957 0.75618,1.1e-5 1.357933,0.228997 1.805259,0.686957 0.415363,0.42603 0.623047,0.947904 0.623054,1.565623 -7e-6,0.596436 -0.207691,1.102334 -0.623054,1.517696 -0.436676,0.447327 -1.038428,0.670988 -1.805259,0.670981 l -0.4473204,0 c -0.2982177,7e-6 -0.4473245,0.143788 -0.4473208,0.431345 -3.7e-6,0.29822 0.1491031,0.447327 0.4473208,0.447321 l 0.5591514,0 c 0.862684,6e-6 1.54964,0.260943 2.060871,0.782811 0.457964,0.479277 0.686949,1.08103 0.686956,1.805259 -7e-6,0.692285 -0.228992,1.283387 -0.686956,1.773308 -0.511231,0.553827 -1.198187,0.830739 -2.060871,0.830739 -0.8626944,0 -1.5496507,-0.276912 -2.0608713,-0.830739 -0.447323,-0.489921 -0.6709832,-1.081023 -0.6709812,-1.773308 l 0,-0.351466 c -2e-6,-0.159754 -0.053254,-0.282234 -0.1597575,-0.367442 -0.095856,-0.07455 -0.2076862,-0.111826 -0.3354906,-0.11183 -0.1384578,4e-6 -0.2556131,0.03728 -0.3514664,0.11183 -0.095855,0.08521 -0.1437826,0.207688 -0.1437816,0.367442 l 0,0.335491 c -1e-6,0.947896 0.308863,1.752008 0.9265931,2.412337 0.6816291,0.734884 1.6135466,1.102326 2.7957555,1.102326 1.150247,0 2.071514,-0.367442 2.763803,-1.102326 0.639022,-0.67098 0.958536,-1.475091 0.958545,-2.412337 -9e-6,-0.788133 -0.228994,-1.480415 -0.686957,-2.076847 -0.351474,-0.447315 -0.761518,-0.772155 -1.230132,-0.97452 0.340809,-0.149101 0.654998,-0.415363 0.942568,-0.798788 0.394061,-0.511216 0.591095,-1.107643 0.591103,-1.789283 -8e-6,-0.85203 -0.287571,-1.576263 -0.86269,-2.172701 -0.639036,-0.649669 -1.4964,-0.974508 -2.572095,-0.97452 z"
         style="fill:#ffffff"
         id="path2997" />
    </g>
  </g>
</svg>
