<?xml version="1.0" encoding="UTF-8" standalone="no"?>
<!-- Created with Inkscape (http://www.inkscape.org/) -->

<svg
   xmlns:dc="http://purl.org/dc/elements/1.1/"
   xmlns:cc="http://creativecommons.org/ns#"
   xmlns:rdf="http://www.w3.org/1999/02/22-rdf-syntax-ns#"
   xmlns:svg="http://www.w3.org/2000/svg"
   xmlns="http://www.w3.org/2000/svg"
   xmlns:sodipodi="http://sodipodi.sourceforge.net/DTD/sodipodi-0.dtd"
   xmlns:inkscape="http://www.inkscape.org/namespaces/inkscape"
   width="64"
   height="64"
   id="svg2"
   version="1.1"
   inkscape:version="0.48.4 r9939"
   sodipodi:docname="1.svg">
  <defs
     id="defs4" />
  <sodipodi:namedview
     id="base"
     pagecolor="#ffffff"
     bordercolor="#666666"
     borderopacity="1.0"
     inkscape:pageopacity="0.0"
     inkscape:pageshadow="2"
     inkscape:zoom="4.665165"
     inkscape:cx="32.004933"
     inkscape:cy="32.004933"
     inkscape:document-units="px"
     inkscape:current-layer="layer1"
     showgrid="false"
     inkscape:window-width="1366"
     inkscape:window-height="706"
     inkscape:window-x="-8"
     inkscape:window-y="-8"
     inkscape:window-maximized="1" />
  <metadata
     id="metadata7">
    <rdf:RDF>
      <cc:Work
         rdf:about="">
        <dc:format>image/svg+xml</dc:format>
        <dc:type
           rdf:resource="http://purl.org/dc/dcmitype/StillImage" />
        <dc:title></dc:title>
      </cc:Work>
    </rdf:RDF>
  </metadata>
  <g
     inkscape:label="Layer 1"
     inkscape:groupmode="layer"
     id="layer1"
     transform="translate(0,-988.36218)">
    <g
       transform="matrix(3.3620304,0,0,3.3620304,-2.9662738,952.31338)"
       style="font-size:16.35916138000000000px;font-style:normal;font-variant:normal;font-weight:normal;font-stretch:normal;text-align:start;line-height:141.99999571000001000%;letter-spacing:0px;word-spacing:0px;writing-mode:lr-tb;text-anchor:start;fill:#ffffff;fill-opacity:1;stroke:none;font-family:Gulim;-inkscape-font-specification:Gulim"
       id="flowRoot2985">
      <path
         d="m 13.915008,17.125119 c -8e-6,-0.820078 -0.298222,-1.517685 -0.894642,-2.092822 -0.660337,-0.628368 -1.533677,-0.942557 -2.620022,-0.942569 -1.0863538,1.2e-5 -1.9596936,0.314201 -2.6200216,0.942569 -0.5857788,0.575137 -0.8786671,1.272744 -0.8786659,2.092822 -1.2e-6,0.68164 0.181057,1.262091 0.5431753,1.741356 0.2769108,0.372774 0.6070759,0.639036 0.9904961,0.798787 -0.5964299,0.319521 -1.059726,0.740215 -1.3898897,1.262084 -0.3408169,0.55383 -0.5112246,1.182209 -0.5112238,1.885138 -8e-7,0.958547 0.324839,1.778634 0.9745204,2.460264 0.7242311,0.745535 1.6827748,1.118302 2.8756342,1.118302 1.2035,0 2.167369,-0.372767 2.891609,-1.118302 0.660323,-0.68163 0.990488,-1.501717 0.990496,-2.460264 -8e-6,-0.702929 -0.186392,-1.341958 -0.559151,-1.91709 -0.351474,-0.543169 -0.809445,-0.947888 -1.373914,-1.214156 0.394062,-0.159751 0.734877,-0.426013 1.022448,-0.798787 0.372759,-0.489915 0.559143,-1.075692 0.559151,-1.757332 z m -3.514664,3.019415 c 0.894636,6e-6 1.613544,0.276919 2.156726,0.830739 0.500566,0.500578 0.750852,1.118306 0.75086,1.853186 -8e-6,0.724237 -0.250294,1.33664 -0.75086,1.837211 -0.543182,0.553827 -1.26209,0.830739 -2.156726,0.830739 -0.9052956,0 -1.6242033,-0.276912 -2.156725,-0.830739 -0.4899249,-0.500571 -0.7348861,-1.112974 -0.7348842,-1.837211 -1.9e-6,-0.73488 0.2449593,-1.352608 0.7348842,-1.853186 0.5325217,-0.55382 1.2514294,-0.830733 2.156725,-0.830739 z m 0,-5.160165 c 0.788132,1.1e-5 1.421835,0.218346 1.901114,0.655006 0.436663,0.404729 0.654998,0.899976 0.655005,1.485744 -7e-6,0.585786 -0.218342,1.075708 -0.655005,1.469768 -0.479279,0.447328 -1.112982,0.670988 -1.901114,0.670982 -0.7881403,6e-6 -1.4165189,-0.223654 -1.8851374,-0.670982 -0.4260222,-0.39406 -0.6390319,-0.883982 -0.6390297,-1.469768 -2.2e-6,-0.585768 0.2130075,-1.081015 0.6390297,-1.485744 0.4686185,-0.43666 1.0969971,-0.654995 1.8851374,-0.655006 z"
         style="fill:#ffffff"
         id="path3012" />
    </g>
  </g>
</svg>
